<?xml version="1.0" encoding="utf-8" standalone="no"?>
<!DOCTYPE svg PUBLIC "-//W3C//DTD SVG 1.1//EN"
  "http://www.w3.org/Graphics/SVG/1.1/DTD/svg11.dtd">
<svg height="345.6pt" version="1.1" viewBox="0 0 460.8 345.6" width="460.8pt" xmlns="http://www.w3.org/2000/svg" xmlns:xlink="http://www.w3.org/1999/xlink">
 <metadata>
  <rdf:RDF xmlns:cc="http://creativecommons.org/ns#" xmlns:dc="http://purl.org/dc/elements/1.1/" xmlns:rdf="http://www.w3.org/1999/02/22-rdf-syntax-ns#">
   <cc:Work>
    <dc:type rdf:resource="http://purl.org/dc/dcmitype/StillImage"/>
    <dc:date>2021-11-23T03:35:32.283934</dc:date>
    <dc:format>image/svg+xml</dc:format>
    <dc:creator>
     <cc:Agent>
      <dc:title>Matplotlib v3.4.3, https://matplotlib.org/</dc:title>
     </cc:Agent>
    </dc:creator>
   </cc:Work>
  </rdf:RDF>
 </metadata>
 <defs>
  <style type="text/css">*{stroke-linecap:butt;stroke-linejoin:round;}</style>
 </defs>
 <g id="figure_1">
  <g id="patch_1">
   <path d="M 0 345.6 
L 460.8 345.6 
L 460.8 0 
L 0 0 
z
" style="fill:#ffffff;"/>
  </g>
  <g id="axes_1">
   <g id="patch_2">
    <path d="M 115.475838 307.584 
L 356.844162 307.584 
L 356.844162 41.472 
L 115.475838 41.472 
z
" style="fill:#ffffff;"/>
   </g>
   <g id="PatchCollection_1">
    <path clip-path="url(#p3d17d3327c)" d="M 151.701056 275.838226 
L 151.488673 276.569843 
L 150.367586 282.408531 
L 138.641352 279.125234 
L 137.579968 284.24663 
L 134.810867 283.448516 
L 135.745814 283.029086 
L 138.506191 278.689317 
L 139.680576 278.723976 
L 141.492884 276.056294 
L 144.557262 276.452777 
L 145.735786 277.29059 
L 147.349195 277.706713 
L 148.670309 277.119494 
L 150.891734 277.536601 
L 151.210845 275.448969 
L 151.749279 275.579272 
L 151.701056 275.838226 
" style="fill:#808080;"/>
    <path clip-path="url(#p3d17d3327c)" d="M 317.700588 200.514565 
L 316.371037 201.898718 
L 315.602707 201.440121 
L 311.241132 201.396444 
L 307.095582 202.584641 
L 304.591221 202.933088 
L 304.441654 203.518596 
L 299.817781 201.758447 
L 296.261573 201.545661 
L 293.174522 200.192412 
L 294.866663 198.844797 
L 295.830043 194.810927 
L 293.833182 193.887145 
L 296.963825 190.809103 
L 296.568895 190.013051 
L 294.556573 191.559273 
L 293.986484 189.845772 
L 294.853879 188.259674 
L 297.126748 186.964634 
L 296.993561 185.544359 
L 295.598969 183.708806 
L 295.748218 181.317659 
L 295.253979 180.230611 
L 291.259676 180.51439 
L 289.888178 181.130433 
L 287.731911 179.951121 
L 286.138435 181.269164 
L 282.619908 181.070384 
L 282.403346 180.299599 
L 280.97229 178.948896 
L 279.025706 179.433054 
L 278.423173 178.310001 
L 278.74086 177.328378 
L 276.511264 175.672751 
L 274.226105 176.851224 
L 273.455775 176.887069 
L 273.142343 177.95488 
L 272.216577 178.074669 
L 272.216521 178.074676 
L 270.88009 175.773528 
L 269.944718 174.654316 
L 270.276527 174.156492 
L 272.167993 173.708193 
L 272.782818 172.576751 
L 271.796419 171.761202 
L 270.056405 171.566445 
L 269.972855 170.825652 
L 268.838918 170.404339 
L 266.667514 168.291771 
L 266.822806 167.104005 
L 266.053203 165.350118 
L 263.65517 165.048668 
L 262.647266 165.835464 
L 262.065583 164.954248 
L 259.517017 164.588094 
L 258.216334 162.459182 
L 257.537454 160.60908 
L 256.290717 159.963161 
L 256.862868 158.496365 
L 255.298605 155.003969 
L 256.124103 152.38726 
L 255.639996 151.784763 
L 255.640006 151.784747 
L 257.257746 149.034782 
L 254.715098 147.732526 
L 254.715094 147.732524 
L 257.258554 141.66284 
L 258.21396 138.928554 
L 258.220624 136.762835 
L 254.789938 134.922752 
L 254.678538 132.208349 
L 252.269991 129.790599 
L 252.300445 126.175321 
L 249.098751 122.334483 
L 249.55462 119.038859 
L 246.516099 117.125424 
L 245.897746 114.377926 
L 246.90866 113.704158 
L 248.713908 111.464663 
L 248.713947 111.464613 
L 249.608065 109.697064 
L 252.675598 111.199529 
L 256.712753 110.661171 
L 263.802255 112.517345 
L 265.75354 113.716134 
L 267.119837 116.06151 
L 266.512067 118.728378 
L 264.582098 120.800659 
L 256.687322 120.659446 
L 255.771714 121.532689 
L 259.342137 123.381803 
L 260.150982 125.083907 
L 261.813485 128.880351 
L 264.37879 129.207978 
L 266.070482 129.657158 
L 265.483851 127.768986 
L 263.822146 126.566949 
L 264.200252 124.748441 
L 269.043627 125.381718 
L 269.906362 123.881518 
L 267.543111 121.700777 
L 269.100631 116.502791 
L 270.521401 116.027722 
L 272.554243 116.552552 
L 271.935527 113.686212 
L 269.557915 112.220796 
L 268.961795 109.763452 
L 266.714429 108.112886 
L 268.808897 107.683741 
L 318.575713 200.364246 
L 317.700588 200.514565 
" style="fill:#808080;"/>
    <path clip-path="url(#p3d17d3327c)" d="M 244.691712 175.277431 
L 241.764334 175.234978 
L 242.046938 173.406409 
L 245.004406 171.64686 
L 247.50268 171.949403 
L 248.622617 172.402247 
L 248.575346 173.532824 
L 248.942715 174.513127 
L 244.691712 175.277431 
" style="fill:#808080;"/>
    <path clip-path="url(#p3d17d3327c)" d="M 284.082958 199.256851 
L 286.218331 199.445974 
L 287.114059 199.30325 
L 287.70609 199.941553 
L 288.142688 199.917802 
L 288.274513 200.242171 
L 289.87784 200.703553 
L 292.487645 199.478185 
L 292.450757 201.034323 
L 289.764332 202.763487 
L 286.819556 206.255549 
L 285.065285 205.97165 
L 285.105117 203.961598 
L 281.820895 203.779705 
L 282.075206 202.887611 
L 284.235032 200.774018 
L 283.687042 200.443336 
L 284.082958 199.256851 
" style="fill:#808080;"/>
    <path clip-path="url(#p3d17d3327c)" d="M 223.144161 74.542589 
L 224.181592 74.307505 
L 225.282537 75.558873 
L 228.29463 78.069394 
L 226.566546 79.90618 
L 226.543518 82.832175 
L 225.881885 83.661155 
L 225.866555 86.949569 
L 224.751249 87.212746 
L 222.564609 84.961322 
L 223.269255 83.515314 
L 221.889108 82.456384 
L 220.142377 79.195138 
L 219.494412 76.131874 
L 221.451831 74.675673 
L 221.937846 76.023952 
L 222.993789 75.898724 
L 223.144161 74.542589 
" style="fill:#808080;"/>
    <path clip-path="url(#p3d17d3327c)" d="M 246.90866 113.704158 
L 245.897746 114.377926 
L 245.634996 111.524212 
L 243.444731 110.474765 
L 241.722111 112.313303 
L 241.791812 115.316258 
L 240.860057 117.344871 
L 239.093708 116.726611 
L 237.253824 117.281474 
L 235.262543 115.481401 
L 234.594063 116.658538 
L 233.729249 116.955887 
L 233.935088 119.583919 
L 231.051404 119.314664 
L 230.935409 121.568005 
L 229.477193 121.708186 
L 228.75165 124.632707 
L 227.543726 129.180305 
L 225.312958 134.96367 
L 226.02558 136.296381 
L 225.504763 137.915202 
L 223.741702 137.924119 
L 222.701179 141.720429 
L 222.975526 147.044041 
L 224.279148 149.03744 
L 223.798825 153.780164 
L 222.182038 156.579321 
L 221.310402 158.911538 
L 219.894753 156.45829 
L 215.727207 161.070876 
L 212.857588 161.922157 
L 210.036814 159.727004 
L 209.584083 155.366163 
L 209.635427 146.074237 
L 211.544961 143.609045 
L 216.539126 140.435865 
L 220.085341 136.322676 
L 223.081514 130.67904 
L 226.486527 122.773604 
L 228.745059 119.573997 
L 232.069804 114.155561 
L 234.800569 111.975198 
L 237.075974 111.780074 
L 238.352732 108.139275 
L 240.752903 107.76574 
L 242.822198 106.404137 
L 247.751566 107.991612 
L 246.428281 109.533286 
L 248.713908 111.464663 
L 246.90866 113.704158 
" style="fill:#808080;"/>
    <path clip-path="url(#p3d17d3327c)" d="M 231.074315 75.224451 
L 229.049203 76.149979 
L 226.717841 75.89426 
L 226.395961 74.848362 
L 225.344371 74.925492 
L 224.313007 73.236483 
L 226.249006 71.869799 
L 227.420684 72.62697 
L 227.841801 71.349844 
L 229.773859 71.932988 
L 231.506816 72.918904 
L 231.074315 75.224451 
" style="fill:#808080;"/>
    <path clip-path="url(#p3d17d3327c)" d="M 230.32933 83.756833 
L 228.599313 83.130534 
L 228.997549 82.031781 
L 228.245208 80.880572 
L 229.78448 79.801206 
L 230.448902 81.179388 
L 231.879125 81.785653 
L 230.32933 83.756833 
" style="fill:#808080;"/>
    <path clip-path="url(#p3d17d3327c)" d="M 200.191838 53.674164 
L 202.718347 56.223506 
L 203.527405 60.369161 
L 201.832075 61.203502 
L 199.945263 60.281587 
L 197.298072 58.89714 
L 197.030536 59.604736 
L 198.919475 60.40761 
L 199.522399 62.435305 
L 201.178457 61.977315 
L 200.807842 63.411824 
L 198.94619 65.04554 
L 201.123213 64.525946 
L 204.469561 64.378733 
L 205.782868 65.714481 
L 205.44055 67.386354 
L 201.795848 68.994351 
L 201.027696 69.660336 
L 198.693347 69.332897 
L 200.060382 70.193895 
L 197.896354 72.40104 
L 196.061464 74.400739 
L 193.883532 78.304982 
L 193.59186 81.06648 
L 192.220829 80.597353 
L 190.220605 81.010887 
L 190.722121 83.654273 
L 189.278649 86.756828 
L 188.105103 86.597051 
L 187.663433 90.241068 
L 185.342027 89.414881 
L 185.67558 91.424929 
L 184.64531 92.505305 
L 182.887841 92.307929 
L 181.466482 91.552479 
L 181.337169 94.606956 
L 180.434795 96.172223 
L 179.203759 93.58265 
L 178.078537 94.191991 
L 178.977956 95.866749 
L 179.156387 98.778202 
L 177.96855 101.844296 
L 175.473667 101.406463 
L 175.401572 99.570327 
L 175.278274 96.795222 
L 174.154986 99.343724 
L 171.650983 100.348987 
L 174.643087 102.282625 
L 176.18017 103.361451 
L 171.092347 104.608344 
L 165.985648 105.284707 
L 161.587733 104.056586 
L 160.252738 103.125435 
L 158.036496 103.460511 
L 153.60995 105.553175 
L 150.727213 105.620856 
L 199.988214 53.568 
L 200.191838 53.674164 
" style="fill:#808080;"/>
    <path clip-path="url(#p3d17d3327c)" d="M 210.356689 197.566643 
L 214.133697 198.442206 
L 212.708695 201.154624 
L 212.27294 204.004977 
L 211.501407 204.663959 
L 210.274944 204.243497 
L 210.319231 205.26742 
L 208.203277 207.424851 
L 208.068724 209.238864 
L 209.427791 208.677261 
L 210.310661 210.479487 
L 210.148424 211.607986 
L 210.921403 213.147972 
L 209.88729 214.328575 
L 210.504052 217.460792 
L 212.055874 218.026257 
L 211.668017 219.754361 
L 208.92444 221.909885 
L 203.190041 220.482302 
L 198.816131 221.426848 
L 198.269692 223.799591 
L 194.778618 223.96818 
L 191.648558 221.777698 
L 190.475697 222.502531 
L 185.314656 219.92935 
L 184.383976 218.20335 
L 186.224873 216.054888 
L 187.909711 208.214032 
L 185.723526 203.590412 
L 184.072799 201.23906 
L 180.286933 198.948314 
L 180.583729 196.010178 
L 184.120311 195.797809 
L 188.341534 197.572251 
L 188.231749 192.935327 
L 190.403189 195.027207 
L 196.823182 192.724802 
L 197.966085 189.536439 
L 200.256391 188.968177 
L 200.479694 190.414037 
L 201.652227 190.595092 
L 202.692381 192.312007 
L 204.334482 194.351987 
L 205.685427 194.138474 
L 207.8426 196.116426 
L 208.408083 196.498649 
L 209.168074 196.454478 
L 210.356689 197.566643 
" style="fill:#ff0000;"/>
    <path clip-path="url(#p3d17d3327c)" d="M 217.358488 222.61528 
L 217.84244 226.052356 
L 216.822616 229.135233 
L 215.455892 228.302666 
L 214.803394 225.597732 
L 215.430627 224.120919 
L 217.358488 222.61528 
" style="fill:#ff0000;"/>
    <path clip-path="url(#p3d17d3327c)" d="M 157.86828 287.792686 
L 163.503627 288.840877 
L 165.433527 290.683489 
L 157.792253 289.198424 
L 157.86828 287.792686 
" style="fill:#808080;"/>
    <path clip-path="url(#p3d17d3327c)" d="M 138.641352 279.125234 
L 150.367586 282.408531 
L 151.488673 276.569843 
L 163.503627 288.840877 
L 157.86828 287.792686 
L 157.792253 289.198424 
L 137.579968 284.24663 
L 138.641352 279.125234 
" style="fill:#808080;"/>
    <path clip-path="url(#p3d17d3327c)" d="M 305.583444 250.549467 
L 304.258335 250.42099 
L 304.291186 253.201785 
L 305.234629 253.353745 
L 304.543025 254.163017 
L 304.679531 255.218929 
L 306.083151 254.176959 
L 306.577745 255.638446 
L 306.588515 262.311246 
L 305.987428 261.428708 
L 302.629474 256.45336 
L 302.62946 256.453376 
L 302.629451 256.453364 
L 303.250965 254.876072 
L 302.966904 254.732559 
L 303.34504 252.654074 
L 303.198801 249.541701 
L 303.38637 248.415476 
L 303.464018 248.345604 
L 304.543628 247.984236 
L 304.645282 247.211327 
L 305.490716 246.861561 
L 305.998417 248.40961 
L 305.730442 249.1438 
L 305.799755 249.14842 
L 305.583444 250.549467 
" style="fill:#ffa500;"/>
    <path clip-path="url(#p3d17d3327c)" d="M 304.645282 247.211327 
L 304.543628 247.984236 
L 303.464018 248.345604 
L 303.704668 244.834672 
L 304.477597 241.587079 
L 304.496525 241.432791 
L 305.967483 241.121983 
L 306.94133 242.433107 
L 305.652928 244.492258 
L 305.490716 246.861561 
L 304.645282 247.211327 
" style="fill:#ffa500;"/>
    <path clip-path="url(#p3d17d3327c)" d="M 304.679531 255.218929 
L 304.543025 254.163017 
L 305.234629 253.353745 
L 304.291186 253.201785 
L 304.258335 250.42099 
L 305.583444 250.549467 
L 306.249996 252.888838 
L 306.083151 254.176959 
L 304.679531 255.218929 
" style="fill:#808080;"/>
    <path clip-path="url(#p3d17d3327c)" d="M 215.890788 266.029333 
L 213.782674 264.400115 
L 213.769395 263.442397 
L 211.022226 261.014175 
L 210.803871 258.021652 
L 212.930996 255.868289 
L 213.779986 252.612689 
L 213.331828 248.812878 
L 214.033534 246.785731 
L 217.57966 245.226827 
L 219.841505 245.708703 
L 219.750767 247.722642 
L 222.497051 246.236262 
L 222.737439 246.997607 
L 221.125829 248.96486 
L 221.116368 250.803981 
L 222.267377 251.77993 
L 221.8637 255.221237 
L 219.665758 257.229033 
L 220.313834 259.387284 
L 222.068048 259.441153 
L 222.944641 261.313005 
L 224.252306 261.910197 
L 224.106791 264.951682 
L 222.435682 266.111803 
L 221.377675 267.38813 
L 218.988164 268.918326 
L 219.36086 270.552471 
L 219.05628 272.218079 
L 217.328861 273.125197 
L 215.890788 266.029333 
" style="fill:#808080;"/>
    <path clip-path="url(#p3d17d3327c)" d="M 151.701056 275.838226 
L 151.749279 275.579272 
L 152.611408 270.991925 
L 158.778206 269.434808 
L 162.357869 269.586788 
L 165.381269 269.116693 
L 167.022975 267.422925 
L 171.304829 266.623351 
L 171.881341 263.75407 
L 173.912964 263.75522 
L 175.663562 262.562978 
L 180.220426 262.592766 
L 181.033682 261.156338 
L 180.242574 260.190774 
L 179.614189 255.864523 
L 179.733125 253.440167 
L 178.832868 250.723304 
L 182.268677 249.0502 
L 185.88298 248.856137 
L 188.12385 247.488243 
L 191.375204 246.651415 
L 196.93172 246.495914 
L 202.317612 246.594158 
L 203.921992 247.289539 
L 207.053541 245.890085 
L 210.51388 246.003717 
L 211.806595 246.971801 
L 214.033534 246.785731 
L 213.331828 248.812878 
L 213.779986 252.612689 
L 212.930996 255.868289 
L 210.803871 258.021652 
L 211.022226 261.014175 
L 213.769395 263.442397 
L 213.782674 264.400115 
L 215.890788 266.029333 
L 217.328861 273.125197 
L 218.466937 276.605349 
L 218.658712 278.43223 
L 218.014978 281.63333 
L 218.272678 283.421969 
L 217.801137 285.564086 
L 218.114151 288.025376 
L 216.6371 289.649695 
L 218.828275 292.505363 
L 218.96787 294.17603 
L 219.776696 295.488 
L 165.433527 290.683489 
L 163.503627 288.840877 
L 151.488673 276.569843 
L 151.701056 275.838226 
" style="fill:#ffa500;"/>
    <path clip-path="url(#p3d17d3327c)" d="M 305.799755 249.14842 
L 309.844673 249.38094 
L 314.806902 242.956497 
L 317.607128 247.060733 
L 317.185188 247.874788 
L 311.312848 252.247642 
L 315.728624 254.835952 
L 314.83772 255.890619 
L 314.677469 257.36563 
L 312.298118 258.817565 
L 311.893526 260.474125 
L 310.772692 262.157422 
L 306.849703 262.827267 
L 306.588515 262.311246 
L 306.577745 255.638446 
L 306.083151 254.176959 
L 306.249996 252.888838 
L 305.583444 250.549467 
L 305.799755 249.14842 
" style="fill:#ffa500;"/>
    <path clip-path="url(#p3d17d3327c)" d="M 314.806902 242.956497 
L 320.316693 236.174681 
L 319.785127 231.126294 
L 318.472636 228.504995 
L 319.739156 226.853992 
L 320.328072 223.830911 
L 321.343276 222.670082 
L 324.896941 221.543963 
L 326.304295 221.99337 
L 327.414476 220.680527 
L 327.746093 220.988775 
L 339.613973 250.277175 
L 339.221014 250.445407 
L 327.450232 247.104399 
L 321.789369 246.511717 
L 317.607128 247.060733 
L 314.806902 242.956497 
" style="fill:#ffa500;"/>
    <path clip-path="url(#p3d17d3327c)" d="M 327.414476 220.680527 
L 327.414435 220.680489 
L 324.587723 218.488148 
L 324.650247 217.06408 
L 321.944478 213.245947 
L 323.37409 211.240744 
L 323.613375 211.506742 
L 327.746093 220.988775 
L 327.414476 220.680527 
" style="fill:#808080;"/>
    <path clip-path="url(#p3d17d3327c)" d="M 305.730442 249.1438 
L 305.998417 248.40961 
L 305.490716 246.861561 
L 305.652928 244.492258 
L 306.94133 242.433107 
L 305.967483 241.121983 
L 304.496525 241.432791 
L 303.319173 238.608947 
L 303.59576 236.764065 
L 304.160474 235.628697 
L 304.718158 234.49163 
L 304.204768 232.300681 
L 305.436431 232.6738 
L 308.410987 230.341024 
L 310.253791 230.422946 
L 312.714273 229.408663 
L 315.615441 226.546786 
L 317.226263 225.916535 
L 320.328072 223.830911 
L 319.739156 226.853992 
L 318.472636 228.504995 
L 319.785127 231.126294 
L 320.316693 236.174681 
L 314.806902 242.956497 
L 309.844673 249.38094 
L 305.799755 249.14842 
L 305.730442 249.1438 
" style="fill:#808080;"/>
    <path clip-path="url(#p3d17d3327c)" d="M 323.37409 211.240744 
L 321.815633 210.707535 
L 319.373645 210.798475 
L 318.856073 208.862428 
L 317.827595 207.782748 
L 320.958085 205.579694 
L 323.465366 211.173076 
L 323.37409 211.240744 
" style="fill:#ffa500;"/>
    <path clip-path="url(#p3d17d3327c)" d="M 222.182038 156.579321 
L 223.798825 153.780164 
L 224.279148 149.03744 
L 222.975526 147.044041 
L 222.701179 141.720429 
L 223.741702 137.924119 
L 225.504763 137.915202 
L 226.02558 136.296381 
L 225.312958 134.96367 
L 227.543726 129.180305 
L 228.75165 124.632707 
L 229.477193 121.708186 
L 230.935409 121.568005 
L 231.051404 119.314664 
L 233.935088 119.583919 
L 233.729249 116.955887 
L 234.594063 116.658538 
L 236.880276 118.262628 
L 239.743441 120.499245 
L 241.103595 126.526602 
L 241.98008 127.943974 
L 239.410025 129.590866 
L 238.304226 132.619794 
L 239.000104 134.997859 
L 236.733449 138.61051 
L 233.697247 142.476487 
L 232.963812 148.245092 
L 234.669548 150.912484 
L 236.844215 152.902536 
L 235.533033 157.628399 
L 233.472131 158.788532 
L 233.309189 165.589443 
L 232.385119 169.454337 
L 229.636065 169.266718 
L 228.554335 172.530875 
L 225.912319 172.845675 
L 225.041144 169.072292 
L 223.049074 164.566196 
L 221.310402 158.911538 
L 222.182038 156.579321 
" style="fill:#ffa500;"/>
    <path clip-path="url(#p3d17d3327c)" d="M 262.065583 164.954248 
L 262.647266 165.835464 
L 263.65517 165.048668 
L 266.053203 165.350118 
L 266.822806 167.104005 
L 266.667514 168.291771 
L 268.838918 170.404339 
L 269.972855 170.825652 
L 270.056405 171.566445 
L 271.796419 171.761202 
L 272.782818 172.576751 
L 272.167993 173.708193 
L 270.276527 174.156492 
L 269.944718 174.654316 
L 270.88009 175.773528 
L 272.216521 178.074676 
L 272.216577 178.074669 
L 270.263108 178.922176 
L 269.782361 179.991405 
L 270.193582 181.993473 
L 269.129706 181.894026 
L 267.005147 182.688488 
L 266.128875 181.946051 
L 265.402004 182.868558 
L 264.34714 182.539301 
L 262.421642 182.93988 
L 259.496304 182.638157 
L 256.980724 182.872387 
L 255.11747 183.353258 
L 253.991702 184.692704 
L 252.847975 185.072182 
L 252.470614 183.315716 
L 251.381922 181.617154 
L 252.669771 180.536222 
L 252.377721 178.954267 
L 251.432273 177.572375 
L 250.995912 175.838177 
L 253.249102 175.423973 
L 255.436918 173.406848 
L 255.466506 171.064799 
L 257.015234 169.381929 
L 256.38524 167.670668 
L 257.563858 166.68955 
L 259.517017 164.588094 
L 262.065583 164.954248 
" style="fill:#808080;"/>
    <path clip-path="url(#p3d17d3327c)" d="M 273.142343 177.95488 
L 273.455775 176.887069 
L 274.226105 176.851224 
L 276.511264 175.672751 
L 278.74086 177.328378 
L 278.423173 178.310001 
L 279.025706 179.433054 
L 280.97229 178.948896 
L 282.403346 180.299599 
L 282.619908 181.070384 
L 286.138435 181.269164 
L 287.731911 179.951121 
L 289.888178 181.130433 
L 291.259676 180.51439 
L 295.253979 180.230611 
L 295.748218 181.317659 
L 295.598969 183.708806 
L 296.993561 185.544359 
L 297.126748 186.964634 
L 294.853879 188.259674 
L 293.986484 189.845772 
L 294.556573 191.559273 
L 292.653547 192.67394 
L 291.409601 194.565688 
L 289.074239 195.673085 
L 287.325849 197.909717 
L 288.142688 199.917802 
L 287.70609 199.941553 
L 287.114059 199.30325 
L 286.218331 199.445974 
L 284.082958 199.256851 
L 283.687042 200.443336 
L 283.19332 200.143579 
L 278.785492 200.46801 
L 278.185716 199.076254 
L 275.873005 200.282141 
L 275.466978 202.710976 
L 274.127962 206.17651 
L 272.721119 205.837757 
L 271.592468 206.803215 
L 270.19751 206.392534 
L 270.782734 205.792565 
L 270.930481 204.326813 
L 271.36026 202.886314 
L 270.995682 202.235341 
L 271.477146 201.775729 
L 271.87766 202.24704 
L 273.484431 201.934539 
L 274.115369 201.450142 
L 273.513944 201.192525 
L 273.548594 200.558848 
L 272.362633 199.820955 
L 271.557305 198.291175 
L 270.436839 197.908069 
L 270.285649 196.532682 
L 268.843782 195.789617 
L 267.739425 195.918046 
L 265.533954 195.171723 
L 263.899299 195.972761 
L 263.408421 196.697601 
L 262.306233 196.947648 
L 261.845085 198.015817 
L 259.979181 198.813602 
L 259.197353 199.607639 
L 257.780317 198.888842 
L 256.082041 199.202719 
L 254.365873 199.066361 
L 253.366539 200.119643 
L 253.002153 199.087305 
L 251.35733 198.255165 
L 251.608719 196.566782 
L 252.15882 195.408717 
L 252.765567 195.541509 
L 251.793612 193.872799 
L 253.52965 190.155419 
L 254.694796 189.456818 
L 254.751128 188.293286 
L 252.847975 185.072182 
L 253.991702 184.692704 
L 255.11747 183.353258 
L 256.980724 182.872387 
L 259.496304 182.638157 
L 262.421642 182.93988 
L 264.34714 182.539301 
L 265.402004 182.868558 
L 266.128875 181.946051 
L 267.005147 182.688488 
L 269.129706 181.894026 
L 270.193582 181.993473 
L 269.782361 179.991405 
L 270.263108 178.922176 
L 272.216577 178.074669 
L 273.142343 177.95488 
" style="fill:#ffa500;"/>
    <path clip-path="url(#p3d17d3327c)" d="M 251.432273 177.572375 
L 252.377721 178.954267 
L 252.669771 180.536222 
L 251.381922 181.617154 
L 252.470614 183.315716 
L 252.847975 185.072182 
L 254.751128 188.293286 
L 254.694796 189.456818 
L 253.52965 190.155419 
L 251.793612 193.872799 
L 252.765567 195.541509 
L 252.15882 195.408717 
L 249.447726 194.28977 
L 247.668529 195.140917 
L 246.384828 194.910729 
L 244.964538 195.979123 
L 243.471161 194.735766 
L 242.47009 195.411426 
L 242.294564 195.187903 
L 240.875454 193.35954 
L 238.935463 193.328106 
L 238.563042 192.099709 
L 236.766364 191.824964 
L 236.479173 192.895508 
L 235.013855 192.189078 
L 235.080101 191.072156 
L 233.150808 190.875912 
L 231.857327 189.670023 
L 230.660159 187.17368 
L 230.76515 185.776524 
L 230.021591 183.665904 
L 229.053272 182.285602 
L 229.664189 181.173907 
L 228.983624 179.16189 
L 230.530374 177.882001 
L 234.048085 175.742313 
L 236.836031 174.102109 
L 239.220609 174.517163 
L 239.515213 175.471343 
L 241.764334 175.234978 
L 244.691712 175.277431 
L 248.942715 174.513127 
L 250.206944 174.721389 
L 250.995912 175.838177 
L 251.432273 177.572375 
" style="fill:#ffa500;"/>
    <path clip-path="url(#p3d17d3327c)" d="M 237.875697 202.869865 
L 236.354287 203.014486 
L 236.952501 203.836887 
L 236.260486 206.493687 
L 235.789234 207.213062 
L 233.381804 207.49463 
L 232.041903 208.496287 
L 229.732568 208.315892 
L 225.731558 207.444465 
L 225.075038 206.066649 
L 222.372002 206.825498 
L 222.062046 207.594228 
L 220.383228 207.039987 
L 218.9759 206.934368 
L 217.733441 206.198057 
L 218.15839 205.217194 
L 218.056339 204.503685 
L 218.879203 204.284974 
L 220.262576 205.397936 
L 220.644791 204.335158 
L 223.049159 204.474457 
L 224.976644 203.707249 
L 226.282061 203.788632 
L 227.160478 204.578964 
L 227.387488 203.88639 
L 226.902945 201.284942 
L 227.844609 200.734984 
L 228.699271 198.83962 
L 230.741844 200.025604 
L 232.133763 198.289891 
L 233.042495 197.926066 
L 235.186823 198.992456 
L 236.413364 198.678321 
L 237.703045 199.322868 
L 237.536333 199.851541 
L 237.930023 201.214267 
L 237.875697 202.869865 
" style="fill:#ffa500;"/>
    <path clip-path="url(#p3d17d3327c)" d="M 253.002153 199.087305 
L 253.366539 200.119643 
L 251.873989 201.229985 
L 251.02029 204.133611 
L 249.767062 207.086987 
L 247.65737 208.157429 
L 245.906606 208.213067 
L 243.903178 209.527441 
L 243.903144 209.527467 
L 242.926314 210.245869 
L 240.539069 209.728115 
L 238.298942 208.216408 
L 237.376238 207.803506 
L 236.726587 206.498668 
L 236.260486 206.493687 
L 236.952501 203.836887 
L 236.354287 203.014486 
L 237.875697 202.869865 
L 237.930023 201.214267 
L 239.394381 202.1049 
L 240.431432 202.437641 
L 242.635966 201.69355 
L 242.758943 200.865379 
L 243.806628 200.617199 
L 245.027015 199.830614 
L 245.347595 200.047593 
L 246.529398 199.378842 
L 247.020549 198.352727 
L 247.850161 197.983715 
L 250.859031 198.754513 
L 251.35733 198.255165 
L 253.002153 199.087305 
" style="fill:#ffa500;"/>
    <path clip-path="url(#p3d17d3327c)" d="M 263.899299 195.972761 
L 265.533954 195.171723 
L 267.739425 195.918046 
L 268.843782 195.789617 
L 270.285649 196.532682 
L 270.436839 197.908069 
L 271.557305 198.291175 
L 272.362633 199.820955 
L 273.548594 200.558848 
L 273.513944 201.192525 
L 274.115369 201.450142 
L 273.484431 201.934539 
L 271.87766 202.24704 
L 271.477146 201.775729 
L 270.995682 202.235341 
L 271.36026 202.886314 
L 270.930481 204.326813 
L 270.782734 205.792565 
L 270.19751 206.392534 
L 269.285006 204.725457 
L 269.17171 202.979473 
L 268.673481 201.279774 
L 266.588546 199.32493 
L 265.368274 197.869734 
L 264.290714 196.895949 
L 263.408421 196.697601 
L 263.899299 195.972761 
" style="fill:#808080;"/>
    <path clip-path="url(#p3d17d3327c)" d="M 271.592468 206.803215 
L 272.721119 205.837757 
L 274.127962 206.17651 
L 274.449153 207.166555 
L 273.327375 208.364915 
L 272.399471 208.21807 
L 272.757135 213.141792 
L 271.002498 213.145788 
L 268.631416 212.213151 
L 265.503767 213.883935 
L 264.29681 215.192824 
L 260.062666 215.8302 
L 257.756989 215.621402 
L 256.695978 216.108778 
L 255.608564 214.621036 
L 254.976787 214.018168 
L 255.526085 213.236538 
L 254.748761 212.861505 
L 253.99943 213.899184 
L 252.171895 213.010178 
L 251.708276 211.406024 
L 249.865026 210.729122 
L 249.374932 209.508378 
L 247.65737 208.157429 
L 249.767062 207.086987 
L 251.02029 204.133611 
L 251.873989 201.229985 
L 253.366539 200.119643 
L 254.365873 199.066361 
L 256.082041 199.202719 
L 257.780317 198.888842 
L 259.197353 199.607639 
L 259.979181 198.813602 
L 261.845085 198.015817 
L 262.306233 196.947648 
L 263.408421 196.697601 
L 264.290714 196.895949 
L 265.368274 197.869734 
L 266.588546 199.32493 
L 268.673481 201.279774 
L 269.17171 202.979473 
L 269.285006 204.725457 
L 270.19751 206.392534 
L 271.592468 206.803215 
" style="fill:#ffa500;"/>
    <path clip-path="url(#p3d17d3327c)" d="M 257.015234 169.381929 
L 255.466506 171.064799 
L 255.436918 173.406848 
L 253.249102 175.423973 
L 250.995912 175.838177 
L 250.206944 174.721389 
L 248.942715 174.513127 
L 248.575346 173.532824 
L 248.622617 172.402247 
L 247.50268 171.949403 
L 245.004406 171.64686 
L 243.98985 168.375466 
L 246.319362 166.740734 
L 250.052217 166.315783 
L 252.119092 165.487334 
L 252.603921 166.243017 
L 253.825997 166.24337 
L 256.38524 167.670668 
L 257.015234 169.381929 
" style="fill:#808080;"/>
    <path clip-path="url(#p3d17d3327c)" d="M 257.537454 160.60908 
L 258.216334 162.459182 
L 259.517017 164.588094 
L 257.563858 166.68955 
L 256.38524 167.670668 
L 253.825997 166.24337 
L 252.603921 166.243017 
L 252.119092 165.487334 
L 250.052217 166.315783 
L 246.319362 166.740734 
L 243.98985 168.375466 
L 243.585822 165.36711 
L 244.235553 162.699372 
L 246.003363 161.000791 
L 248.260652 163.650722 
L 249.971691 163.237572 
L 249.746513 160.122129 
L 251.379089 159.04977 
L 252.404324 159.331165 
L 254.555753 160.375339 
L 256.290717 159.963161 
L 257.537454 160.60908 
" style="fill:#ffa500;"/>
    <path clip-path="url(#p3d17d3327c)" d="M 255.639996 151.784763 
L 256.124103 152.38726 
L 255.298605 155.003969 
L 256.862868 158.496365 
L 256.290717 159.963161 
L 254.555753 160.375339 
L 252.404324 159.331165 
L 251.379089 159.04977 
L 249.746513 160.122129 
L 249.493306 157.743762 
L 248.836043 158.396368 
L 247.235996 157.249257 
L 246.60571 155.011153 
L 248.925328 153.401342 
L 251.308482 152.279554 
L 253.624579 152.417246 
L 255.639965 151.784696 
L 255.640006 151.784747 
L 255.639996 151.784763 
" style="fill:#ffa500;"/>
    <path clip-path="url(#p3d17d3327c)" d="M 229.664189 181.173907 
L 229.053272 182.285602 
L 230.021591 183.665904 
L 230.76515 185.776524 
L 230.660159 187.17368 
L 231.857327 189.670023 
L 230.755927 190.163144 
L 230.06086 189.742065 
L 229.469271 190.543154 
L 227.681464 191.413858 
L 226.774777 192.456235 
L 224.937347 193.39797 
L 225.427439 194.578514 
L 225.759252 196.264371 
L 227.133027 197.179726 
L 228.699271 198.83962 
L 227.844609 200.734984 
L 226.902945 201.284942 
L 227.387488 203.88639 
L 227.160478 204.578964 
L 226.282061 203.788632 
L 224.976644 203.707249 
L 223.049159 204.474457 
L 220.644791 204.335158 
L 220.262576 205.397936 
L 218.879203 204.284974 
L 218.056339 204.503685 
L 215.160153 203.238108 
L 214.584811 204.099 
L 212.27294 204.004977 
L 212.708695 201.154624 
L 214.133697 198.442206 
L 210.356689 197.566643 
L 209.168074 196.454478 
L 209.404642 194.700889 
L 208.935009 193.766487 
L 209.369498 191.067392 
L 209.172632 186.833858 
L 210.667365 186.908339 
L 211.363936 185.4234 
L 212.127273 181.767127 
L 211.734038 180.388832 
L 212.236955 179.556573 
L 214.238727 179.40624 
L 214.657777 180.305386 
L 216.319231 178.356231 
L 215.807634 176.838106 
L 215.747335 174.55424 
L 217.49311 175.111513 
L 218.981261 174.507081 
L 219.020866 176.062316 
L 221.396032 176.98549 
L 221.389858 178.413988 
L 223.779669 177.610279 
L 225.06705 176.467638 
L 227.793524 177.941993 
L 228.983624 179.16189 
L 229.664189 181.173907 
" style="fill:#ff0000;"/>
    <path clip-path="url(#p3d17d3327c)" d="M 256.695978 216.108778 
L 257.756989 215.621402 
L 260.062666 215.8302 
L 264.29681 215.192824 
L 265.503767 213.883935 
L 268.631416 212.213151 
L 271.002498 213.145788 
L 272.757135 213.141792 
L 271.665585 215.133787 
L 271.253124 218.194146 
L 272.68974 220.203927 
L 270.067703 220.276585 
L 267.344886 222.185035 
L 267.704838 224.151571 
L 265.078611 225.092986 
L 262.733161 224.133095 
L 260.540993 225.669722 
L 258.312872 225.950175 
L 257.683277 223.368953 
L 256.005224 222.348214 
L 256.402084 221.707927 
L 256.010329 221.289867 
L 256.304292 219.945687 
L 257.212732 218.51563 
L 255.534223 217.045915 
L 255.047854 215.640366 
L 255.608564 214.621036 
L 256.695978 216.108778 
" style="fill:#ff0000;"/>
    <path clip-path="url(#p3d17d3327c)" d="M 272.65905 248.934324 
L 268.017471 250.223272 
L 267.941391 249.569546 
L 263.832531 249.542981 
L 264.174179 247.763985 
L 266.1645 248.761837 
L 268.658383 248.050548 
L 271.12287 247.838465 
L 271.167564 248.536586 
L 272.850302 247.692658 
L 272.65905 248.934324 
" style="fill:#ffa500;"/>
    <path clip-path="url(#p3d17d3327c)" d="M 260.540993 225.669722 
L 262.733161 224.133095 
L 265.078611 225.092986 
L 267.704838 224.151571 
L 267.344886 222.185035 
L 268.989937 222.909087 
L 268.573777 225.573389 
L 267.952742 226.169058 
L 266.109997 226.443597 
L 264.47948 226.390074 
L 261.023113 228.114805 
L 263.500902 229.938887 
L 262.066385 230.87452 
L 260.368343 231.187535 
L 258.435136 229.432568 
L 257.999511 230.39751 
L 259.047342 232.643435 
L 260.880679 234.228752 
L 259.850575 235.298246 
L 261.871101 236.812604 
L 263.604999 237.673041 
L 264.02199 239.890022 
L 260.938347 239.369956 
L 262.1852 241.217525 
L 260.231844 241.980371 
L 261.971728 245.25169 
L 259.83922 245.661988 
L 256.959699 244.364691 
L 255.33709 241.384399 
L 254.435465 238.834066 
L 252.975469 237.190519 
L 251.09591 235.151178 
L 250.747941 234.049764 
L 251.937855 231.928367 
L 251.954623 230.612963 
L 252.868105 229.894994 
L 252.788826 228.843807 
L 254.717229 228.193421 
L 255.73919 227.145112 
L 257.378452 226.953517 
L 257.763662 226.17976 
L 258.312872 225.950175 
L 260.540993 225.669722 
" style="fill:#ffa500;"/>
    <path clip-path="url(#p3d17d3327c)" d="M 326.304295 221.99337 
L 324.896941 221.543963 
L 321.343276 222.670082 
L 320.328072 223.830911 
L 317.226263 225.916535 
L 315.615441 226.546786 
L 312.714273 229.408663 
L 310.253791 230.422946 
L 308.410987 230.341024 
L 305.436431 232.6738 
L 304.204768 232.300681 
L 304.718158 234.49163 
L 304.160474 235.628697 
L 303.59576 236.764065 
L 301.930869 235.432032 
L 302.64648 233.580521 
L 300.882782 234.569098 
L 298.055643 234.569039 
L 296.573821 237.488037 
L 291.963335 239.414785 
L 288.895079 238.093828 
L 285.496428 238.924276 
L 285.160745 240.735409 
L 283.086543 241.783271 
L 279.565489 240.494637 
L 276.132111 241.402509 
L 273.473163 237.942112 
L 270.764706 236.274536 
L 271.660934 232.890406 
L 269.348513 231.443262 
L 271.935279 226.933774 
L 276.496485 225.653908 
L 277.038158 222.363105 
L 282.743615 221.339377 
L 285.535954 217.781482 
L 288.54647 215.631436 
L 293.199637 213.961733 
L 299.011451 214.861969 
L 303.570226 214.757547 
L 306.619356 212.832796 
L 309.142521 212.144846 
L 311.614181 208.73758 
L 314.436758 207.213692 
L 317.827595 207.782748 
L 318.856073 208.862428 
L 319.373645 210.798475 
L 321.815633 210.707535 
L 323.37409 211.240744 
L 321.944478 213.245947 
L 324.650247 217.06408 
L 324.587723 218.488148 
L 327.414435 220.680489 
L 327.414476 220.680527 
L 326.304295 221.99337 
" style="fill:#ffa500;"/>
    <path clip-path="url(#p3d17d3327c)" d="M 270.067703 220.276585 
L 272.68974 220.203927 
L 273.376372 221.625179 
L 276.22599 222.242953 
L 275.915731 223.33827 
L 272.456071 224.421659 
L 271.448564 225.933349 
L 269.381425 228.61427 
L 268.072222 226.989571 
L 267.952742 226.169058 
L 268.573777 225.573389 
L 268.989937 222.909087 
L 267.344886 222.185035 
L 270.067703 220.276585 
" style="fill:#ffa500;"/>
    <path clip-path="url(#p3d17d3327c)" d="M 252.868105 229.894994 
L 251.954623 230.612963 
L 251.937855 231.928367 
L 250.747941 234.049764 
L 250.188943 233.842038 
L 250.022239 232.976876 
L 248.16437 231.861765 
L 247.683036 230.001016 
L 247.627792 227.255724 
L 247.8934 225.969217 
L 247.317097 225.405782 
L 247.317094 225.40577 
L 246.970242 224.164345 
L 248.020535 222.040785 
L 248.299184 222.765037 
L 249.049541 222.307211 
L 249.814071 223.288801 
L 250.575039 223.597219 
L 250.96351 225.009318 
L 250.963515 225.009336 
L 250.759356 226.414766 
L 251.406991 228.058037 
L 252.788826 228.843807 
L 252.868105 229.894994 
" style="fill:#808080;"/>
    <path clip-path="url(#p3d17d3327c)" d="M 238.298942 208.216408 
L 240.539069 209.728115 
L 242.926314 210.245869 
L 243.903144 209.527467 
L 244.761096 210.991363 
L 245.78948 212.016886 
L 244.877201 213.652857 
L 243.495668 212.921231 
L 241.542819 213.193063 
L 239.0448 212.772973 
L 237.729598 212.98209 
L 237.182468 213.865322 
L 236.091637 213.030346 
L 235.620357 214.738455 
L 237.166669 216.496281 
L 237.891761 217.682279 
L 239.351427 219.055667 
L 240.541517 219.834257 
L 241.803782 221.391234 
L 244.563978 222.618134 
L 244.310441 223.332633 
L 244.31044 223.332637 
L 241.385877 222.153022 
L 239.550846 220.880274 
L 236.777363 219.924142 
L 234.127493 217.162866 
L 234.689636 216.822694 
L 233.269844 215.229373 
L 233.131781 213.880911 
L 231.267661 213.361334 
L 230.48468 215.139166 
L 229.57696 213.840288 
L 229.575199 212.445192 
L 229.672925 212.375337 
L 231.649976 212.404753 
L 232.127699 211.69708 
L 233.127339 212.289744 
L 234.241026 212.290911 
L 234.153912 211.172258 
L 235.100603 210.690012 
L 235.252561 209.051116 
L 237.376238 207.803506 
L 238.298942 208.216408 
" style="fill:#ffa500;"/>
    <path clip-path="url(#p3d17d3327c)" d="M 218.15839 205.217194 
L 217.733441 206.198057 
L 218.9759 206.934368 
L 220.383228 207.039987 
L 220.172206 208.687652 
L 218.946965 209.367298 
L 216.889005 208.851726 
L 216.26492 210.463295 
L 214.927501 210.568041 
L 214.455363 209.92145 
L 212.84889 211.241092 
L 211.486384 211.38656 
L 210.310661 210.479487 
L 209.427791 208.677261 
L 208.068724 209.238864 
L 208.203277 207.424851 
L 210.319231 205.26742 
L 210.274944 204.243497 
L 211.501407 204.663959 
L 212.27294 204.004977 
L 214.584811 204.099 
L 215.160153 203.238108 
L 218.056339 204.503685 
L 218.15839 205.217194 
" style="fill:#ffa500;"/>
    <path clip-path="url(#p3d17d3327c)" d="M 209.404642 194.700889 
L 209.168074 196.454478 
L 208.408083 196.498649 
L 207.8426 196.116426 
L 208.253524 193.880465 
L 208.935009 193.766487 
L 209.404642 194.700889 
" style="fill:#ffa500;"/>
    <path clip-path="url(#p3d17d3327c)" d="M 208.935009 193.766487 
L 208.253524 193.880465 
L 207.8426 196.116426 
L 205.685427 194.138474 
L 204.334482 194.351987 
L 202.692381 192.312007 
L 201.652227 190.595092 
L 200.479694 190.414037 
L 200.256391 188.968177 
L 202.345553 188.37363 
L 202.345653 188.373657 
L 202.345544 188.373734 
L 204.156552 188.848068 
L 206.545722 188.189459 
L 208.026827 190.050343 
L 209.369498 191.067392 
L 208.935009 193.766487 
" style="fill:#808080;"/>
    <path clip-path="url(#p3d17d3327c)" d="M 212.127273 181.767127 
L 211.363936 185.4234 
L 210.667365 186.908339 
L 209.172632 186.833858 
L 209.369498 191.067392 
L 208.026827 190.050343 
L 206.545722 188.189459 
L 204.156552 188.848068 
L 202.345544 188.373734 
L 202.345653 188.373657 
L 203.731302 187.385608 
L 206.348686 181.650908 
L 209.74787 180.178788 
L 211.734038 180.388832 
L 212.127273 181.767127 
" style="fill:#ffa500;"/>
    <path clip-path="url(#p3d17d3327c)" d="M 163.789097 219.215321 
L 165.102845 218.942338 
L 165.395512 221.040494 
L 167.123107 221.451694 
L 167.730999 221.073977 
L 169.406722 221.603628 
L 169.824006 223.759589 
L 168.237063 224.516056 
L 167.56294 227.570952 
L 166.955813 228.033838 
L 166.449003 229.86028 
L 165.072393 229.878355 
L 165.800059 232.512108 
L 164.417977 234.890307 
L 165.24694 236.301075 
L 164.603213 237.268457 
L 163.143384 238.467751 
L 163.137628 239.824347 
L 161.660605 240.540674 
L 160.117756 239.589481 
L 158.402162 239.614387 
L 159.559154 236.681918 
L 159.807087 234.208298 
L 158.514269 233.495112 
L 158.128227 231.825836 
L 158.972383 229.336524 
L 160.505608 228.232739 
L 161.085661 226.708673 
L 162.252443 224.517524 
L 162.572423 222.844143 
L 162.316628 221.289288 
L 162.501666 219.938253 
L 163.789097 219.215321 
" style="fill:#ffa500;"/>
    <path clip-path="url(#p3d17d3327c)" d="M 163.143384 238.467751 
L 164.603213 237.268457 
L 165.24694 236.301075 
L 164.417977 234.890307 
L 165.800059 232.512108 
L 165.072393 229.878355 
L 166.449003 229.86028 
L 166.955813 228.033838 
L 167.56294 227.570952 
L 168.237063 224.516056 
L 169.824006 223.759589 
L 169.406722 221.603628 
L 167.730999 221.073977 
L 167.123107 221.451694 
L 165.395512 221.040494 
L 165.102845 218.942338 
L 163.789097 219.215321 
L 162.501666 219.938253 
L 163.313157 217.191547 
L 162.558474 215.188791 
L 167.241145 213.391663 
L 170.553597 214.924066 
L 174.388075 215.737866 
L 177.311832 217.028279 
L 179.738341 217.271523 
L 184.383976 218.20335 
L 185.314656 219.92935 
L 190.475697 222.502531 
L 191.648558 221.777698 
L 194.778618 223.96818 
L 198.269692 223.799591 
L 198.228776 226.132369 
L 195.131828 228.505534 
L 191.163889 228.906138 
L 190.74215 230.210663 
L 188.606599 232.174342 
L 187.024216 235.245496 
L 187.967876 237.673995 
L 185.935983 239.19809 
L 184.930012 241.676212 
L 182.424535 242.11442 
L 179.740337 244.799353 
L 175.656138 244.173518 
L 172.616952 243.539381 
L 170.374343 244.537959 
L 168.88572 245.774748 
L 167.370867 245.124289 
L 166.431963 243.54786 
L 165.962461 241.097569 
L 163.137628 239.824347 
L 163.143384 238.467751 
" style="fill:#ffa500;"/>
    <path clip-path="url(#p3d17d3327c)" d="M 180.736815 177.600943 
L 178.132336 180.701743 
L 173.302767 181.958644 
L 170.069293 180.442276 
L 173.108355 176.902733 
L 173.001703 172.604248 
L 176.914328 170.38324 
L 179.079236 168.987687 
L 179.012818 171.203217 
L 178.017871 173.188394 
L 179.447326 173.481317 
L 180.995195 174.700034 
L 180.736815 177.600943 
" style="fill:#ff0000;"/>
    <path clip-path="url(#p3d17d3327c)" d="M 222.062046 207.594228 
L 222.372002 206.825498 
L 225.075038 206.066649 
L 225.731558 207.444465 
L 229.732568 208.315892 
L 229.526465 210.30673 
L 230.2836 211.97943 
L 228.013428 211.50195 
L 225.766327 213.009921 
L 225.98371 214.995861 
L 225.666373 216.149089 
L 226.675621 218.159127 
L 229.484171 220.065188 
L 231.12119 223.299614 
L 234.62344 226.319166 
L 236.972498 226.12174 
L 237.770198 226.945327 
L 236.98363 227.80816 
L 239.806138 229.022521 
L 242.142694 230.016468 
L 244.963508 231.816768 
L 245.357312 232.524198 
L 244.925335 234.012292 
L 243.034549 232.335991 
L 240.308634 231.938362 
L 239.217486 234.629476 
L 241.585119 235.90362 
L 241.390217 238.014498 
L 240.09609 238.368593 
L 238.661307 241.92144 
L 237.352275 242.330477 
L 237.283216 241.11333 
L 237.782948 238.929826 
L 238.406472 238.025603 
L 237.021333 235.812652 
L 235.939256 233.872145 
L 234.624995 233.463348 
L 233.615022 231.799404 
L 231.606859 231.187583 
L 230.211034 229.649091 
L 227.949941 229.487066 
L 225.526543 227.76016 
L 222.725037 225.215679 
L 220.67787 222.931965 
L 219.744442 218.975158 
L 218.297785 218.508102 
L 215.952947 217.162626 
L 214.612583 217.680468 
L 212.889825 219.498796 
L 211.668017 219.754361 
L 212.055874 218.026257 
L 210.504052 217.460792 
L 209.88729 214.328575 
L 210.921403 213.147972 
L 210.148424 211.607986 
L 210.310661 210.479487 
L 211.486384 211.38656 
L 212.84889 211.241092 
L 214.455363 209.92145 
L 214.927501 210.568041 
L 216.26492 210.463295 
L 216.889005 208.851726 
L 218.946965 209.367298 
L 220.172206 208.687652 
L 220.383228 207.039987 
L 222.062046 207.594228 
" style="fill:#ffa500;"/>
    <path clip-path="url(#p3d17d3327c)" d="M 236.746075 241.086549 
L 235.79061 244.297917 
L 236.348242 245.496622 
L 235.790827 247.586043 
L 233.225351 246.241832 
L 231.558378 245.900316 
L 226.981918 244.060703 
L 227.370206 242.001069 
L 231.119465 242.211065 
L 234.351332 241.59654 
L 236.746075 241.086549 
" style="fill:#ffa500;"/>
    <path clip-path="url(#p3d17d3327c)" d="M 216.756095 229.814565 
L 218.576812 232.664722 
L 218.123209 237.945133 
L 216.696178 237.682883 
L 215.396361 238.998276 
L 214.221202 237.918531 
L 214.188515 233.098975 
L 213.535301 230.798381 
L 215.213847 231.033095 
L 216.756095 229.814565 
" style="fill:#ffa500;"/>
    <path clip-path="url(#p3d17d3327c)" d="M 217.49311 175.111513 
L 215.747335 174.55424 
L 214.866627 172.299803 
L 214.909755 168.185987 
L 215.307857 167.109641 
L 215.967305 165.91702 
L 217.901755 165.694775 
L 218.674224 164.589363 
L 220.413416 163.450483 
L 220.356683 165.519629 
L 219.713722 166.833508 
L 219.984475 167.958947 
L 221.197477 168.557097 
L 220.666761 170.080836 
L 219.993455 169.648631 
L 218.361211 172.545947 
L 218.981261 174.507081 
L 217.49311 175.111513 
" style="fill:#ffa500;"/>
    <path clip-path="url(#p3d17d3327c)" d="M 225.294313 171.870013 
L 224.023708 175.17359 
L 221.556209 172.95362 
L 221.214385 171.287788 
L 224.498874 169.878996 
L 225.294313 171.870013 
" style="fill:#ffa500;"/>
    <path clip-path="url(#p3d17d3327c)" d="M 179.447326 173.481317 
L 178.017871 173.188394 
L 179.012818 171.203217 
L 179.079236 168.987687 
L 180.989228 169.282568 
L 182.839659 172.270571 
L 180.995195 174.700034 
L 179.447326 173.481317 
" style="fill:#808080;"/>
    <path clip-path="url(#p3d17d3327c)" d="M 187.869322 178.024114 
L 188.637693 175.783335 
L 187.552371 173.052746 
L 187.528177 172.990268 
L 184.902399 171.738809 
L 184.592833 170.556363 
L 185.786106 168.963923 
L 185.289516 167.722298 
L 183.679528 169.326697 
L 184.409747 165.500942 
L 183.783402 163.246781 
L 185.509017 159.357581 
L 187.847296 156.519719 
L 189.420337 157.174801 
L 191.974984 157.325004 
L 188.883763 161.173692 
L 191.150003 161.047886 
L 193.47047 161.480929 
L 192.33866 164.6203 
L 189.713513 167.822822 
L 191.963632 168.484073 
L 192.067952 168.931663 
L 193.311582 173.953462 
L 194.795402 174.831729 
L 195.5935 179.581931 
L 196.063054 181.251115 
L 198.895417 182.374536 
L 198.30155 184.899019 
L 196.904785 185.921006 
L 197.649428 188.109681 
L 195.129726 189.922742 
L 191.75946 189.415087 
L 187.293502 189.819289 
L 186.256367 188.830675 
L 184.253317 190.382818 
L 182.006009 189.477404 
L 179.92633 190.620003 
L 178.752116 189.542235 
L 183.266452 186.157996 
L 185.640021 185.728512 
L 185.621232 185.72156 
L 181.915961 184.302593 
L 181.558025 182.584957 
L 184.335345 181.88049 
L 183.455653 179.483446 
L 184.439642 176.98642 
L 187.865268 178.022934 
L 187.869322 178.024114 
" style="fill:#808080;"/>
    <path clip-path="url(#p3d17d3327c)" d="M 178.958036 123.768188 
L 179.714415 126.985835 
L 176.489693 129.090242 
L 170.694578 129.755525 
L 168.977505 129.817474 
L 167.10405 128.307979 
L 163.290549 124.989441 
L 165.669782 124.180196 
L 163.345188 120.710711 
L 166.371208 121.414038 
L 166.879787 120.329236 
L 164.285453 117.870021 
L 166.590684 116.100405 
L 169.035099 116.70729 
L 169.999455 120.271206 
L 173.233593 119.339877 
L 174.606014 121.202589 
L 177.92559 120.24525 
L 180.295423 121.47329 
L 178.958036 123.768188 
" style="fill:#808080;"/>
    <path clip-path="url(#p3d17d3327c)" d="M 323.37409 211.240744 
L 323.465366 211.173076 
L 323.613375 211.506742 
L 323.37409 211.240744 
" style="fill:#808080;"/>
    <path clip-path="url(#p3d17d3327c)" d="M 304.591221 202.933088 
L 307.095582 202.584641 
L 311.241132 201.396444 
L 315.602707 201.440121 
L 316.371037 201.898718 
L 317.700588 200.514565 
L 318.575713 200.364246 
L 320.958085 205.579694 
L 317.827595 207.782748 
L 314.436758 207.213692 
L 311.614181 208.73758 
L 311.365038 206.95248 
L 309.642569 204.70646 
L 307.53237 204.023075 
L 305.876983 204.246168 
L 304.441654 203.518596 
L 304.591221 202.933088 
" style="fill:#808080;"/>
    <path clip-path="url(#p3d17d3327c)" d="M 232.041903 208.496287 
L 233.381804 207.49463 
L 235.789234 207.213062 
L 236.260486 206.493687 
L 236.726587 206.498668 
L 237.376238 207.803506 
L 235.252561 209.051116 
L 235.100603 210.690012 
L 234.153912 211.172258 
L 234.241026 212.290911 
L 233.127339 212.289744 
L 232.127699 211.69708 
L 231.649976 212.404753 
L 229.672925 212.375337 
L 230.2836 211.97943 
L 229.526465 210.30673 
L 229.732568 208.315892 
L 232.041903 208.496287 
" style="fill:#ffa500;"/>
    <path clip-path="url(#p3d17d3327c)" d="M 246.516099 117.125424 
L 249.55462 119.038859 
L 249.098751 122.334483 
L 252.300445 126.175321 
L 252.269991 129.790599 
L 254.678538 132.208349 
L 254.789938 134.922752 
L 258.220624 136.762835 
L 258.21396 138.928554 
L 257.258554 141.66284 
L 254.715094 147.732524 
L 254.715098 147.732526 
L 254.715093 147.732539 
L 251.300249 148.913643 
L 248.201132 151.115505 
L 245.148652 152.580833 
L 243.594184 150.627145 
L 241.466621 149.645808 
L 241.215787 145.66859 
L 239.691374 142.239699 
L 240.156754 139.791628 
L 241.307379 137.029519 
L 244.327231 131.9879 
L 245.246375 130.924039 
L 244.671383 129.310032 
L 241.98008 127.943974 
L 241.103595 126.526602 
L 239.743441 120.499245 
L 236.880276 118.262628 
L 234.594063 116.658538 
L 235.262543 115.481401 
L 237.253824 117.281474 
L 239.093708 116.726611 
L 240.860057 117.344871 
L 241.791812 115.316258 
L 241.722111 112.313303 
L 243.444731 110.474765 
L 245.634996 111.524212 
L 245.897746 114.377926 
L 246.516099 117.125424 
" style="fill:#ffa500;"/>
    <path clip-path="url(#p3d17d3327c)" d="M 251.608719 196.566782 
L 251.35733 198.255165 
L 250.859031 198.754513 
L 247.850161 197.983715 
L 247.020549 198.352727 
L 246.529398 199.378842 
L 245.347595 200.047593 
L 245.027015 199.830614 
L 243.806628 200.617199 
L 242.758943 200.865379 
L 242.635966 201.69355 
L 240.431432 202.437641 
L 239.394381 202.1049 
L 237.930023 201.214267 
L 237.536333 199.851541 
L 237.703045 199.322868 
L 237.99587 198.405834 
L 239.17296 198.356858 
L 240.031172 197.847984 
L 240.063031 197.468095 
L 240.545802 197.22306 
L 240.618287 196.293693 
L 241.198384 196.051847 
L 241.52015 195.285104 
L 242.294564 195.187903 
L 242.47009 195.411426 
L 243.471161 194.735766 
L 244.964538 195.979123 
L 246.384828 194.910729 
L 247.668529 195.140917 
L 249.447726 194.28977 
L 252.15882 195.408717 
L 251.608719 196.566782 
" style="fill:#ffa500;"/>
    <path clip-path="url(#p3d17d3327c)" d="M 233.150808 190.875912 
L 235.080101 191.072156 
L 235.013855 192.189078 
L 236.479173 192.895508 
L 236.766364 191.824964 
L 238.563042 192.099709 
L 238.935463 193.328106 
L 240.875454 193.35954 
L 242.294564 195.187903 
L 241.52015 195.285104 
L 241.198384 196.051847 
L 240.618287 196.293693 
L 240.545802 197.22306 
L 240.063031 197.468095 
L 240.031172 197.847984 
L 239.17296 198.356858 
L 237.99587 198.405834 
L 237.703045 199.322868 
L 236.413364 198.678321 
L 235.186823 198.992456 
L 233.042495 197.926066 
L 232.133763 198.289891 
L 230.741844 200.025604 
L 228.699271 198.83962 
L 227.133027 197.179726 
L 225.759252 196.264371 
L 225.427439 194.578514 
L 224.937347 193.39797 
L 226.774777 192.456235 
L 227.681464 191.413858 
L 229.469271 190.543154 
L 230.06086 189.742065 
L 230.755927 190.163144 
L 231.857327 189.670023 
L 233.150808 190.875912 
" style="fill:#ffa500;"/>
    <path clip-path="url(#p3d17d3327c)" d="M 310.772692 262.157422 
L 311.893526 260.474125 
L 312.298118 258.817565 
L 314.677469 257.36563 
L 314.83772 255.890619 
L 315.728624 254.835952 
L 311.312848 252.247642 
L 317.185188 247.874788 
L 317.607128 247.060733 
L 321.789369 246.511717 
L 327.450232 247.104399 
L 339.221014 250.445407 
L 339.613973 250.277175 
L 345.872874 267.274869 
L 319.86011 278.117485 
L 319.070293 277.326121 
L 319.028528 276.400856 
L 317.516731 274.783583 
L 316.265273 274.297304 
L 314.140055 271.946128 
L 311.207817 269.599912 
L 308.757124 267.570037 
L 307.051844 268.150958 
L 307.037425 265.879375 
L 306.835967 264.491607 
L 306.849703 262.827267 
L 310.772692 262.157422 
" style="fill:#ffa500;"/>
    <path clip-path="url(#p3d17d3327c)" d="M 293.86875 242.847468 
L 294.078298 241.775613 
L 296.361497 241.112008 
L 298.885663 239.031149 
L 297.232323 241.365797 
L 297.662221 242.011887 
L 297.286608 241.986444 
L 296.763711 242.472136 
L 296.26845 242.543051 
L 296.150928 242.740888 
L 295.982055 242.371442 
L 295.690085 242.207431 
L 295.069799 242.359152 
L 294.298739 242.955554 
L 293.650326 242.937405 
L 293.86875 242.847468 
" style="fill:#808080;"/>
    <path clip-path="url(#p3d17d3327c)" d="M 294.298739 242.955554 
L 295.069799 242.359152 
L 295.690085 242.207431 
L 295.982055 242.371442 
L 296.150928 242.740888 
L 296.26845 242.543051 
L 296.763711 242.472136 
L 297.286608 241.986444 
L 297.662221 242.011887 
L 297.847003 242.289156 
L 295.017763 244.88642 
L 293.324373 244.863736 
L 292.179596 243.536498 
L 293.650326 242.937405 
L 294.298739 242.955554 
" style="fill:#ffa500;"/>
    <path clip-path="url(#p3d17d3327c)" d="M 179.733125 253.440167 
L 179.614189 255.864523 
L 180.242574 260.190774 
L 181.033682 261.156338 
L 180.220426 262.592766 
L 175.663562 262.562978 
L 173.912964 263.75522 
L 171.881341 263.75407 
L 171.304829 266.623351 
L 167.022975 267.422925 
L 165.381269 269.116693 
L 162.357869 269.586788 
L 158.778206 269.434808 
L 152.611408 270.991925 
L 151.749279 275.579272 
L 151.210845 275.448969 
L 150.891734 277.536601 
L 148.670309 277.119494 
L 147.349195 277.706713 
L 145.735786 277.29059 
L 144.557262 276.452777 
L 141.492884 276.056294 
L 139.680576 278.723976 
L 138.506191 278.689317 
L 135.745814 283.029086 
L 134.810867 283.448516 
L 126.447126 280.855501 
L 127.737716 279.204033 
L 128.328826 277.202333 
L 130.190042 275.255396 
L 132.872348 274.60174 
L 136.034406 271.374087 
L 136.111079 271.339777 
L 138.209443 270.390817 
L 141.539001 270.903145 
L 144.862786 269.033262 
L 146.821994 268.473796 
L 150.385582 265.998933 
L 150.559268 260.964337 
L 152.555346 257.960259 
L 153.441295 256.0314 
L 156.13055 253.940804 
L 159.805676 252.955311 
L 162.561906 251.898381 
L 165.509514 248.327769 
L 166.971832 246.138843 
L 169.344226 246.646088 
L 171.014235 248.695704 
L 174.15672 248.998931 
L 177.41348 250.450161 
L 178.832868 250.723304 
L 179.733125 253.440167 
" style="fill:#ffa500;"/>
    <path clip-path="url(#p3d17d3327c)" d="M 274.69555 286.049961 
L 272.571789 272.247959 
L 271.028833 269.31069 
L 271.539905 266.731928 
L 270.738648 265.165671 
L 271.673933 263.051242 
L 276.196499 262.053149 
L 279.659728 262.357875 
L 283.261554 262.713604 
L 284.959792 262.932553 
L 287.313581 261.044152 
L 288.460218 259.57162 
L 291.347991 258.451009 
L 293.841672 258.267242 
L 295.212248 259.916084 
L 295.686098 258.429504 
L 298.591003 258.535742 
L 301.248703 257.943971 
L 302.62946 256.453376 
L 302.629474 256.45336 
L 305.987428 261.428708 
L 306.588502 262.311235 
L 306.045431 264.161327 
L 306.063158 267.288919 
L 305.634577 269.580148 
L 304.995283 270.503174 
L 303.534822 269.628673 
L 301.55655 268.397293 
L 297.778814 263.625294 
L 297.512983 264.077107 
L 299.904858 267.711395 
L 302.960237 270.923991 
L 307.060311 276.058163 
L 308.87523 277.71838 
L 310.547539 279.503739 
L 312.210592 280.746344 
L 275.316347 290.234504 
L 274.69555 286.049961 
" style="fill:#ffa500;"/>
    <path clip-path="url(#p3d17d3327c)" d="M 218.96787 294.17603 
L 218.828275 292.505363 
L 216.6371 289.649695 
L 218.114151 288.025376 
L 217.801137 285.564086 
L 218.272678 283.421969 
L 218.014978 281.63333 
L 218.658712 278.43223 
L 218.466937 276.605349 
L 217.328861 273.125197 
L 219.05628 272.218079 
L 219.36086 270.552471 
L 218.988164 268.918326 
L 221.377675 267.38813 
L 222.435682 266.111803 
L 224.106791 264.951682 
L 224.252306 261.910197 
L 228.30657 263.164805 
L 229.736156 262.771521 
L 232.627228 263.302547 
L 237.281456 264.799464 
L 239.113271 268.190902 
L 242.294417 268.708894 
L 247.350121 269.895163 
L 251.265767 271.439374 
L 252.875604 270.217371 
L 254.359018 268.202019 
L 253.228573 265.296097 
L 254.098595 263.245292 
L 256.345821 261.06949 
L 258.617323 260.194612 
L 263.311051 260.271817 
L 264.721481 261.82825 
L 265.991204 261.624276 
L 267.175876 262.098564 
L 270.631412 261.923767 
L 271.673933 263.051242 
L 270.738648 265.165671 
L 271.539905 266.731928 
L 271.028833 269.31069 
L 272.571789 272.247959 
L 274.69555 286.049961 
L 275.316347 290.234504 
L 219.776696 295.488 
L 218.96787 294.17603 
" style="fill:#808080;"/>
    <path clip-path="url(#p3d17d3327c)" d="M 241.803782 221.391234 
L 240.541517 219.834257 
L 239.351427 219.055667 
L 237.891761 217.682279 
L 237.166669 216.496281 
L 235.620357 214.738455 
L 236.091637 213.030346 
L 237.182468 213.865322 
L 237.729598 212.98209 
L 239.0448 212.772973 
L 241.542819 213.193063 
L 243.495668 212.921231 
L 244.877201 213.652857 
L 244.87719 213.652877 
L 245.905046 213.514396 
L 245.398313 215.35745 
L 246.964095 216.716252 
L 246.768446 218.644136 
L 246.105303 218.906158 
L 245.603535 219.336562 
L 244.75782 220.375732 
L 244.563978 222.618134 
L 241.803782 221.391234 
" style="fill:#808080;"/>
    <path clip-path="url(#p3d17d3327c)" d="M 257.683277 223.368953 
L 258.312872 225.950175 
L 257.763662 226.17976 
L 257.378452 226.953517 
L 255.73919 227.145112 
L 254.717229 228.193421 
L 252.788826 228.843807 
L 251.406991 228.058037 
L 250.759356 226.414766 
L 250.963515 225.009336 
L 250.96351 225.009318 
L 251.346543 224.988359 
L 251.371777 224.155825 
L 253.037684 223.281364 
L 253.678018 223.0271 
L 254.649194 222.63695 
L 256.005224 222.348214 
L 257.683277 223.368953 
" style="fill:#808080;"/>
    <path clip-path="url(#p3d17d3327c)" d="M 243.903178 209.527441 
L 245.906606 208.213067 
L 247.65737 208.157429 
L 249.374932 209.508378 
L 249.865026 210.729122 
L 251.708276 211.406024 
L 252.171895 213.010178 
L 253.99943 213.899184 
L 254.748761 212.861505 
L 255.526085 213.236538 
L 254.976787 214.018168 
L 255.608564 214.621036 
L 255.047854 215.640366 
L 255.534223 217.045915 
L 257.212732 218.51563 
L 256.304292 219.945687 
L 256.010329 221.289867 
L 256.402084 221.707927 
L 256.005224 222.348214 
L 254.649194 222.63695 
L 253.678018 223.0271 
L 253.536795 222.744594 
L 253.821117 222.217546 
L 254.009178 221.199442 
L 253.595885 221.286876 
L 252.920296 220.639109 
L 252.412745 220.525667 
L 251.941831 219.951167 
L 251.362523 219.784688 
L 250.872164 219.28426 
L 250.379595 219.579552 
L 250.150532 220.957142 
L 249.486103 221.340866 
L 249.683299 220.966422 
L 248.462574 220.292624 
L 247.450137 219.989766 
L 246.957828 219.492757 
L 246.105303 218.906158 
L 246.768446 218.644136 
L 246.964095 216.716252 
L 245.398313 215.35745 
L 245.905046 213.514396 
L 244.87719 213.652877 
L 244.877201 213.652857 
L 245.78948 212.016886 
L 244.761096 210.991363 
L 243.903144 209.527467 
L 243.903178 209.527441 
" style="fill:#808080;"/>
    <path clip-path="url(#p3d17d3327c)" d="M 248.299184 222.765037 
L 248.020535 222.040785 
L 246.970242 224.164345 
L 247.317094 225.40577 
L 246.656905 225.174688 
L 245.67714 223.975158 
L 244.310441 223.332633 
L 244.563978 222.618134 
L 244.75782 220.375732 
L 245.603535 219.336562 
L 246.105303 218.906158 
L 246.957828 219.492757 
L 247.450137 219.989766 
L 248.462574 220.292624 
L 249.683299 220.966422 
L 249.486103 221.340866 
L 249.049541 222.307211 
L 248.299184 222.765037 
" style="fill:#808080;"/>
    <path clip-path="url(#p3d17d3327c)" d="M 250.575039 223.597219 
L 249.814071 223.288801 
L 249.049541 222.307211 
L 249.486103 221.340866 
L 250.150532 220.957142 
L 250.379595 219.579552 
L 250.872164 219.28426 
L 251.362523 219.784688 
L 251.941831 219.951167 
L 252.412745 220.525667 
L 252.920296 220.639109 
L 253.595885 221.286876 
L 254.009178 221.199442 
L 253.821117 222.217546 
L 253.536795 222.744594 
L 253.678018 223.0271 
L 253.037684 223.281364 
L 251.371777 224.155825 
L 251.346543 224.988359 
L 250.96351 225.009318 
L 250.575039 223.597219 
" style="fill:#808080;"/>
   </g>
   <g id="matplotlib.axis_1">
    <g id="xtick_1">
     <g id="line2d_1">
      <defs>
       <path d="M 0 0 
L 0 3.5 
" id="m42b78f2c3d" style="stroke:#000000;stroke-width:0.8;"/>
      </defs>
      <g>
       <use style="stroke:#000000;stroke-width:0.8;" x="135.229018" xlink:href="#m42b78f2c3d" y="307.584"/>
      </g>
     </g>
     <g id="text_1">
      <!-- 2 -->
      <g transform="translate(132.047768 322.182437)scale(0.1 -0.1)">
       <defs>
        <path d="M 1228 531 
L 3431 531 
L 3431 0 
L 469 0 
L 469 531 
Q 828 903 1448 1529 
Q 2069 2156 2228 2338 
Q 2531 2678 2651 2914 
Q 2772 3150 2772 3378 
Q 2772 3750 2511 3984 
Q 2250 4219 1831 4219 
Q 1534 4219 1204 4116 
Q 875 4013 500 3803 
L 500 4441 
Q 881 4594 1212 4672 
Q 1544 4750 1819 4750 
Q 2544 4750 2975 4387 
Q 3406 4025 3406 3419 
Q 3406 3131 3298 2873 
Q 3191 2616 2906 2266 
Q 2828 2175 2409 1742 
Q 1991 1309 1228 531 
z
" id="DejaVuSans-32" transform="scale(0.015625)"/>
       </defs>
       <use xlink:href="#DejaVuSans-32"/>
      </g>
     </g>
    </g>
    <g id="xtick_2">
     <g id="line2d_2">
      <g>
       <use style="stroke:#000000;stroke-width:0.8;" x="171.391497" xlink:href="#m42b78f2c3d" y="307.584"/>
      </g>
     </g>
     <g id="text_2">
      <!-- 3 -->
      <g transform="translate(168.210247 322.182437)scale(0.1 -0.1)">
       <defs>
        <path d="M 2597 2516 
Q 3050 2419 3304 2112 
Q 3559 1806 3559 1356 
Q 3559 666 3084 287 
Q 2609 -91 1734 -91 
Q 1441 -91 1130 -33 
Q 819 25 488 141 
L 488 750 
Q 750 597 1062 519 
Q 1375 441 1716 441 
Q 2309 441 2620 675 
Q 2931 909 2931 1356 
Q 2931 1769 2642 2001 
Q 2353 2234 1838 2234 
L 1294 2234 
L 1294 2753 
L 1863 2753 
Q 2328 2753 2575 2939 
Q 2822 3125 2822 3475 
Q 2822 3834 2567 4026 
Q 2313 4219 1838 4219 
Q 1578 4219 1281 4162 
Q 984 4106 628 3988 
L 628 4550 
Q 988 4650 1302 4700 
Q 1616 4750 1894 4750 
Q 2613 4750 3031 4423 
Q 3450 4097 3450 3541 
Q 3450 3153 3228 2886 
Q 3006 2619 2597 2516 
z
" id="DejaVuSans-33" transform="scale(0.015625)"/>
       </defs>
       <use xlink:href="#DejaVuSans-33"/>
      </g>
     </g>
    </g>
    <g id="xtick_3">
     <g id="line2d_3">
      <g>
       <use style="stroke:#000000;stroke-width:0.8;" x="207.553976" xlink:href="#m42b78f2c3d" y="307.584"/>
      </g>
     </g>
     <g id="text_3">
      <!-- 4 -->
      <g transform="translate(204.372726 322.182437)scale(0.1 -0.1)">
       <defs>
        <path d="M 2419 4116 
L 825 1625 
L 2419 1625 
L 2419 4116 
z
M 2253 4666 
L 3047 4666 
L 3047 1625 
L 3713 1625 
L 3713 1100 
L 3047 1100 
L 3047 0 
L 2419 0 
L 2419 1100 
L 313 1100 
L 313 1709 
L 2253 4666 
z
" id="DejaVuSans-34" transform="scale(0.015625)"/>
       </defs>
       <use xlink:href="#DejaVuSans-34"/>
      </g>
     </g>
    </g>
    <g id="xtick_4">
     <g id="line2d_4">
      <g>
       <use style="stroke:#000000;stroke-width:0.8;" x="243.716455" xlink:href="#m42b78f2c3d" y="307.584"/>
      </g>
     </g>
     <g id="text_4">
      <!-- 5 -->
      <g transform="translate(240.535205 322.182437)scale(0.1 -0.1)">
       <defs>
        <path d="M 691 4666 
L 3169 4666 
L 3169 4134 
L 1269 4134 
L 1269 2991 
Q 1406 3038 1543 3061 
Q 1681 3084 1819 3084 
Q 2600 3084 3056 2656 
Q 3513 2228 3513 1497 
Q 3513 744 3044 326 
Q 2575 -91 1722 -91 
Q 1428 -91 1123 -41 
Q 819 9 494 109 
L 494 744 
Q 775 591 1075 516 
Q 1375 441 1709 441 
Q 2250 441 2565 725 
Q 2881 1009 2881 1497 
Q 2881 1984 2565 2268 
Q 2250 2553 1709 2553 
Q 1456 2553 1204 2497 
Q 953 2441 691 2322 
L 691 4666 
z
" id="DejaVuSans-35" transform="scale(0.015625)"/>
       </defs>
       <use xlink:href="#DejaVuSans-35"/>
      </g>
     </g>
    </g>
    <g id="xtick_5">
     <g id="line2d_5">
      <g>
       <use style="stroke:#000000;stroke-width:0.8;" x="279.878934" xlink:href="#m42b78f2c3d" y="307.584"/>
      </g>
     </g>
     <g id="text_5">
      <!-- 6 -->
      <g transform="translate(276.697684 322.182437)scale(0.1 -0.1)">
       <defs>
        <path d="M 2113 2584 
Q 1688 2584 1439 2293 
Q 1191 2003 1191 1497 
Q 1191 994 1439 701 
Q 1688 409 2113 409 
Q 2538 409 2786 701 
Q 3034 994 3034 1497 
Q 3034 2003 2786 2293 
Q 2538 2584 2113 2584 
z
M 3366 4563 
L 3366 3988 
Q 3128 4100 2886 4159 
Q 2644 4219 2406 4219 
Q 1781 4219 1451 3797 
Q 1122 3375 1075 2522 
Q 1259 2794 1537 2939 
Q 1816 3084 2150 3084 
Q 2853 3084 3261 2657 
Q 3669 2231 3669 1497 
Q 3669 778 3244 343 
Q 2819 -91 2113 -91 
Q 1303 -91 875 529 
Q 447 1150 447 2328 
Q 447 3434 972 4092 
Q 1497 4750 2381 4750 
Q 2619 4750 2861 4703 
Q 3103 4656 3366 4563 
z
" id="DejaVuSans-36" transform="scale(0.015625)"/>
       </defs>
       <use xlink:href="#DejaVuSans-36"/>
      </g>
     </g>
    </g>
    <g id="xtick_6">
     <g id="line2d_6">
      <g>
       <use style="stroke:#000000;stroke-width:0.8;" x="316.041413" xlink:href="#m42b78f2c3d" y="307.584"/>
      </g>
     </g>
     <g id="text_6">
      <!-- 7 -->
      <g transform="translate(312.860163 322.182437)scale(0.1 -0.1)">
       <defs>
        <path d="M 525 4666 
L 3525 4666 
L 3525 4397 
L 1831 0 
L 1172 0 
L 2766 4134 
L 525 4134 
L 525 4666 
z
" id="DejaVuSans-37" transform="scale(0.015625)"/>
       </defs>
       <use xlink:href="#DejaVuSans-37"/>
      </g>
     </g>
    </g>
    <g id="xtick_7">
     <g id="line2d_7">
      <g>
       <use style="stroke:#000000;stroke-width:0.8;" x="352.203892" xlink:href="#m42b78f2c3d" y="307.584"/>
      </g>
     </g>
     <g id="text_7">
      <!-- 8 -->
      <g transform="translate(349.022642 322.182437)scale(0.1 -0.1)">
       <defs>
        <path d="M 2034 2216 
Q 1584 2216 1326 1975 
Q 1069 1734 1069 1313 
Q 1069 891 1326 650 
Q 1584 409 2034 409 
Q 2484 409 2743 651 
Q 3003 894 3003 1313 
Q 3003 1734 2745 1975 
Q 2488 2216 2034 2216 
z
M 1403 2484 
Q 997 2584 770 2862 
Q 544 3141 544 3541 
Q 544 4100 942 4425 
Q 1341 4750 2034 4750 
Q 2731 4750 3128 4425 
Q 3525 4100 3525 3541 
Q 3525 3141 3298 2862 
Q 3072 2584 2669 2484 
Q 3125 2378 3379 2068 
Q 3634 1759 3634 1313 
Q 3634 634 3220 271 
Q 2806 -91 2034 -91 
Q 1263 -91 848 271 
Q 434 634 434 1313 
Q 434 1759 690 2068 
Q 947 2378 1403 2484 
z
M 1172 3481 
Q 1172 3119 1398 2916 
Q 1625 2713 2034 2713 
Q 2441 2713 2670 2916 
Q 2900 3119 2900 3481 
Q 2900 3844 2670 4047 
Q 2441 4250 2034 4250 
Q 1625 4250 1398 4047 
Q 1172 3844 1172 3481 
z
" id="DejaVuSans-38" transform="scale(0.015625)"/>
       </defs>
       <use xlink:href="#DejaVuSans-38"/>
      </g>
     </g>
    </g>
    <g id="text_8">
     <!-- 1e6 -->
     <g transform="translate(337.966037 334.860562)scale(0.1 -0.1)">
      <defs>
       <path d="M 794 531 
L 1825 531 
L 1825 4091 
L 703 3866 
L 703 4441 
L 1819 4666 
L 2450 4666 
L 2450 531 
L 3481 531 
L 3481 0 
L 794 0 
L 794 531 
z
" id="DejaVuSans-31" transform="scale(0.015625)"/>
       <path d="M 3597 1894 
L 3597 1613 
L 953 1613 
Q 991 1019 1311 708 
Q 1631 397 2203 397 
Q 2534 397 2845 478 
Q 3156 559 3463 722 
L 3463 178 
Q 3153 47 2828 -22 
Q 2503 -91 2169 -91 
Q 1331 -91 842 396 
Q 353 884 353 1716 
Q 353 2575 817 3079 
Q 1281 3584 2069 3584 
Q 2775 3584 3186 3129 
Q 3597 2675 3597 1894 
z
M 3022 2063 
Q 3016 2534 2758 2815 
Q 2500 3097 2075 3097 
Q 1594 3097 1305 2825 
Q 1016 2553 972 2059 
L 3022 2063 
z
" id="DejaVuSans-65" transform="scale(0.015625)"/>
      </defs>
      <use xlink:href="#DejaVuSans-31"/>
      <use x="63.623047" xlink:href="#DejaVuSans-65"/>
      <use x="125.146484" xlink:href="#DejaVuSans-36"/>
     </g>
    </g>
   </g>
   <g id="matplotlib.axis_2">
    <g id="ytick_1">
     <g id="line2d_8">
      <defs>
       <path d="M 0 0 
L -3.5 0 
" id="mf1d3885e03" style="stroke:#000000;stroke-width:0.8;"/>
      </defs>
      <g>
       <use style="stroke:#000000;stroke-width:0.8;" x="115.475838" xlink:href="#mf1d3885e03" y="302.593195"/>
      </g>
     </g>
     <g id="text_9">
      <!-- 0 -->
      <g transform="translate(102.113338 306.392414)scale(0.1 -0.1)">
       <defs>
        <path d="M 2034 4250 
Q 1547 4250 1301 3770 
Q 1056 3291 1056 2328 
Q 1056 1369 1301 889 
Q 1547 409 2034 409 
Q 2525 409 2770 889 
Q 3016 1369 3016 2328 
Q 3016 3291 2770 3770 
Q 2525 4250 2034 4250 
z
M 2034 4750 
Q 2819 4750 3233 4129 
Q 3647 3509 3647 2328 
Q 3647 1150 3233 529 
Q 2819 -91 2034 -91 
Q 1250 -91 836 529 
Q 422 1150 422 2328 
Q 422 3509 836 4129 
Q 1250 4750 2034 4750 
z
" id="DejaVuSans-30" transform="scale(0.015625)"/>
       </defs>
       <use xlink:href="#DejaVuSans-30"/>
      </g>
     </g>
    </g>
    <g id="ytick_2">
     <g id="line2d_9">
      <g>
       <use style="stroke:#000000;stroke-width:0.8;" x="115.475838" xlink:href="#mf1d3885e03" y="266.430717"/>
      </g>
     </g>
     <g id="text_10">
      <!-- 1 -->
      <g transform="translate(102.113338 270.229935)scale(0.1 -0.1)">
       <use xlink:href="#DejaVuSans-31"/>
      </g>
     </g>
    </g>
    <g id="ytick_3">
     <g id="line2d_10">
      <g>
       <use style="stroke:#000000;stroke-width:0.8;" x="115.475838" xlink:href="#mf1d3885e03" y="230.268238"/>
      </g>
     </g>
     <g id="text_11">
      <!-- 2 -->
      <g transform="translate(102.113338 234.067456)scale(0.1 -0.1)">
       <use xlink:href="#DejaVuSans-32"/>
      </g>
     </g>
    </g>
    <g id="ytick_4">
     <g id="line2d_11">
      <g>
       <use style="stroke:#000000;stroke-width:0.8;" x="115.475838" xlink:href="#mf1d3885e03" y="194.105759"/>
      </g>
     </g>
     <g id="text_12">
      <!-- 3 -->
      <g transform="translate(102.113338 197.904978)scale(0.1 -0.1)">
       <use xlink:href="#DejaVuSans-33"/>
      </g>
     </g>
    </g>
    <g id="ytick_5">
     <g id="line2d_12">
      <g>
       <use style="stroke:#000000;stroke-width:0.8;" x="115.475838" xlink:href="#mf1d3885e03" y="157.94328"/>
      </g>
     </g>
     <g id="text_13">
      <!-- 4 -->
      <g transform="translate(102.113338 161.742499)scale(0.1 -0.1)">
       <use xlink:href="#DejaVuSans-34"/>
      </g>
     </g>
    </g>
    <g id="ytick_6">
     <g id="line2d_13">
      <g>
       <use style="stroke:#000000;stroke-width:0.8;" x="115.475838" xlink:href="#mf1d3885e03" y="121.780801"/>
      </g>
     </g>
     <g id="text_14">
      <!-- 5 -->
      <g transform="translate(102.113338 125.58002)scale(0.1 -0.1)">
       <use xlink:href="#DejaVuSans-35"/>
      </g>
     </g>
    </g>
    <g id="ytick_7">
     <g id="line2d_14">
      <g>
       <use style="stroke:#000000;stroke-width:0.8;" x="115.475838" xlink:href="#mf1d3885e03" y="85.618322"/>
      </g>
     </g>
     <g id="text_15">
      <!-- 6 -->
      <g transform="translate(102.113338 89.417541)scale(0.1 -0.1)">
       <use xlink:href="#DejaVuSans-36"/>
      </g>
     </g>
    </g>
    <g id="ytick_8">
     <g id="line2d_15">
      <g>
       <use style="stroke:#000000;stroke-width:0.8;" x="115.475838" xlink:href="#mf1d3885e03" y="49.455843"/>
      </g>
     </g>
     <g id="text_16">
      <!-- 7 -->
      <g transform="translate(102.113338 53.255062)scale(0.1 -0.1)">
       <use xlink:href="#DejaVuSans-37"/>
      </g>
     </g>
    </g>
    <g id="text_17">
     <!-- 1e6 -->
     <g transform="translate(115.475838 38.472)scale(0.1 -0.1)">
      <use xlink:href="#DejaVuSans-31"/>
      <use x="63.623047" xlink:href="#DejaVuSans-65"/>
      <use x="125.146484" xlink:href="#DejaVuSans-36"/>
     </g>
    </g>
   </g>
   <g id="patch_3">
    <path d="M 115.475838 307.584 
L 115.475838 41.472 
" style="fill:none;stroke:#000000;stroke-linecap:square;stroke-linejoin:miter;stroke-width:0.8;"/>
   </g>
   <g id="patch_4">
    <path d="M 356.844162 307.584 
L 356.844162 41.472 
" style="fill:none;stroke:#000000;stroke-linecap:square;stroke-linejoin:miter;stroke-width:0.8;"/>
   </g>
   <g id="patch_5">
    <path d="M 115.475838 307.584 
L 356.844162 307.584 
" style="fill:none;stroke:#000000;stroke-linecap:square;stroke-linejoin:miter;stroke-width:0.8;"/>
   </g>
   <g id="patch_6">
    <path d="M 115.475838 41.472 
L 356.844162 41.472 
" style="fill:none;stroke:#000000;stroke-linecap:square;stroke-linejoin:miter;stroke-width:0.8;"/>
   </g>
  </g>
 </g>
 <defs>
  <clipPath id="p3d17d3327c">
   <rect height="266.112" width="241.368324" x="115.475838" y="41.472"/>
  </clipPath>
 </defs>
</svg>
