<?xml version="1.0" encoding="utf-8" standalone="no"?>
<!DOCTYPE svg PUBLIC "-//W3C//DTD SVG 1.1//EN"
  "http://www.w3.org/Graphics/SVG/1.1/DTD/svg11.dtd">
<svg height="345.6pt" version="1.1" viewBox="0 0 460.8 345.6" width="460.8pt" xmlns="http://www.w3.org/2000/svg" xmlns:xlink="http://www.w3.org/1999/xlink">
 <metadata>
  <rdf:RDF xmlns:cc="http://creativecommons.org/ns#" xmlns:dc="http://purl.org/dc/elements/1.1/" xmlns:rdf="http://www.w3.org/1999/02/22-rdf-syntax-ns#">
   <cc:Work>
    <dc:type rdf:resource="http://purl.org/dc/dcmitype/StillImage"/>
    <dc:date>2021-11-23T03:35:36.603351</dc:date>
    <dc:format>image/svg+xml</dc:format>
    <dc:creator>
     <cc:Agent>
      <dc:title>Matplotlib v3.4.3, https://matplotlib.org/</dc:title>
     </cc:Agent>
    </dc:creator>
   </cc:Work>
  </rdf:RDF>
 </metadata>
 <defs>
  <style type="text/css">*{stroke-linecap:butt;stroke-linejoin:round;}</style>
 </defs>
 <g id="figure_1">
  <g id="patch_1">
   <path d="M 0 345.6 
L 460.8 345.6 
L 460.8 0 
L 0 0 
z
" style="fill:#ffffff;"/>
  </g>
  <g id="axes_1">
   <g id="patch_2">
    <path d="M 65.640116 307.584 
L 406.679884 307.584 
L 406.679884 41.472 
L 65.640116 41.472 
z
" style="fill:#ffffff;"/>
   </g>
   <g id="PatchCollection_1">
    <path clip-path="url(#p24967c3ceb)" d="M 388.576953 257.121529 
L 389.704941 250.578973 
L 382.931449 250.627818 
L 382.323337 259.787095 
L 378.195647 271.965015 
L 375.694466 279.321425 
L 376.198498 285.334393 
L 381.208863 285.595828 
L 384.330106 293.196606 
L 384.769282 295.488 
L 373.51769 295.488 
L 370.671436 292.470827 
L 369.89336 295.488 
L 368.816999 295.488 
L 367.950434 292.739794 
L 368.789867 287.544006 
L 371.077421 279.572074 
L 374.804922 271.014059 
L 379.029307 263.250311 
L 376.02225 255.654962 
L 376.142739 251.786077 
L 375.263907 247.137115 
L 370.133755 240.519963 
L 368.297322 236.341811 
L 370.953492 234.802812 
L 373.768746 227.562789 
L 370.618176 222.065921 
L 365.736465 215.985204 
L 361.996502 208.667969 
L 365.241355 207.155302 
L 368.748133 198.152025 
L 374.177817 197.77913 
L 378.666717 194.168093 
L 383.071354 192.242293 
L 386.400866 194.812322 
L 386.842443 199.81639 
L 391.178076 200.134291 
L 391.178076 204.191548 
L 390.146915 208.972009 
L 390.328554 216.437228 
L 391.178076 215.916598 
L 391.178076 257.060105 
L 388.576953 257.121529 
" style="fill:#ffa500;"/>
    <path clip-path="url(#p24967c3ceb)" d="M 390.328554 216.437228 
L 390.146915 208.972009 
L 391.178076 204.191548 
L 391.178076 215.916598 
L 390.328554 216.437228 
" style="fill:#808080;"/>
    <path clip-path="url(#p24967c3ceb)" d="M 386.842443 199.81639 
L 386.400866 194.812322 
L 383.071354 192.242293 
L 384.710474 189.17543 
L 391.178076 183.822353 
L 391.178076 200.134291 
L 386.842443 199.81639 
" style="fill:#808080;"/>
    <path clip-path="url(#p24967c3ceb)" d="M 378.666717 194.168093 
L 374.177817 197.77913 
L 368.748133 198.152025 
L 365.241355 207.155302 
L 361.996502 208.667969 
L 365.736465 215.985204 
L 370.618176 222.065921 
L 373.768746 227.562789 
L 370.953492 234.802812 
L 368.297322 236.341811 
L 370.133755 240.519963 
L 375.263907 247.137115 
L 376.142739 251.786077 
L 376.02225 255.654962 
L 379.029307 263.250311 
L 374.804922 271.014059 
L 371.077421 279.572074 
L 370.336125 273.38991 
L 372.700558 267.010232 
L 370.114426 262.082374 
L 370.739406 253.009573 
L 367.616635 248.694769 
L 365.110071 238.727146 
L 363.72052 228.206052 
L 360.393468 221.308718 
L 355.325966 225.485274 
L 346.584266 231.422044 
L 342.26931 230.680225 
L 337.503193 228.727308 
L 340.154711 218.405924 
L 338.529742 210.599364 
L 332.501088 200.99769 
L 333.441475 197.995809 
L 328.942242 196.928335 
L 323.506559 190.143135 
L 323.004235 183.442119 
L 325.68897 184.703398 
L 325.822986 178.723177 
L 329.617922 176.747672 
L 328.803926 173.2113 
L 330.542411 170.375317 
L 330.8413 161.756986 
L 336.852466 163.654168 
L 340.282138 156.787991 
L 340.67125 152.730255 
L 344.916109 145.744872 
L 344.682404 140.979217 
L 354.63954 135.224625 
L 360.135997 136.730407 
L 359.50523 131.606487 
L 362.20159 130.078543 
L 361.621301 126.921952 
L 366.119739 126.302683 
L 368.690502 131.205405 
L 372.047438 133.190808 
L 372.273593 139.563807 
L 371.963972 146.432781 
L 364.678553 153.386964 
L 363.756449 163.265565 
L 371.874941 161.884153 
L 373.709214 169.550343 
L 378.579673 171.163282 
L 376.340788 178.081315 
L 382.05227 181.207351 
L 385.382974 182.74046 
L 391.024504 180.315889 
L 391.178076 182.609398 
L 391.178076 183.822353 
L 384.710474 189.17543 
L 383.071354 192.242293 
L 378.666717 194.168093 
" style="fill:#808080;"/>
    <path clip-path="url(#p24967c3ceb)" d="M 362.20159 130.078543 
L 359.50523 131.606487 
L 360.135997 136.730407 
L 354.63954 135.224625 
L 344.682404 140.979217 
L 344.916109 145.744872 
L 340.67125 152.730255 
L 340.282138 156.787991 
L 336.852466 163.654168 
L 330.8413 161.756986 
L 330.542411 170.375317 
L 328.803926 173.2113 
L 329.617922 176.747672 
L 325.822986 178.723177 
L 321.795379 165.519341 
L 319.671496 165.54555 
L 318.414071 170.868043 
L 314.202566 166.551668 
L 316.577773 161.811929 
L 320.019007 161.330835 
L 323.566126 154.282773 
L 319.130765 152.860693 
L 311.99708 152.984058 
L 304.677779 151.841671 
L 303.999355 146.050643 
L 300.327174 145.639767 
L 294.234622 142.040778 
L 291.51713 147.691228 
L 297.069055 152.100179 
L 292.259928 155.203362 
L 290.55257 158.238388 
L 295.287256 160.470008 
L 293.978168 165.488455 
L 296.643747 171.751417 
L 297.840922 178.609347 
L 296.739377 181.650184 
L 291.506585 181.545299 
L 282.005543 183.267419 
L 282.447517 189.531972 
L 278.341769 194.459223 
L 267.273337 200.064269 
L 258.664778 209.862396 
L 252.882548 215.115419 
L 245.218749 220.566616 
L 245.206825 224.39713 
L 241.37254 226.449451 
L 234.444834 229.432828 
L 230.852205 229.872427 
L 228.546149 236.224554 
L 230.14751 247.055943 
L 230.555303 253.963863 
L 227.296141 261.875566 
L 227.261165 276.023849 
L 223.281013 276.427083 
L 219.780196 282.778781 
L 222.121228 285.52353 
L 215.108466 287.88441 
L 212.518227 293.547984 
L 210.01679 295.488 
L 209.00714 295.488 
L 202.148926 288.165642 
L 198.588491 276.5039 
L 195.638154 268.1044 
L 192.943384 264.165439 
L 188.857111 256.165085 
L 186.948911 245.750057 
L 185.619412 240.548245 
L 178.622945 229.110714 
L 175.436518 212.972294 
L 173.136822 202.315626 
L 173.164247 192.228522 
L 171.672584 184.42957 
L 160.479748 189.414272 
L 155.058808 188.415868 
L 145.011448 178.322954 
L 148.709405 175.312682 
L 146.437928 172.044846 
L 137.416409 164.976407 
L 142.53846 159.42042 
L 159.464241 159.442152 
L 157.937205 152.292162 
L 153.616033 148.068958 
L 152.739636 141.659594 
L 147.705424 137.919669 
L 156.182027 129.190308 
L 165.112925 129.823347 
L 173.158682 121.09248 
L 177.980254 112.641337 
L 185.446517 104.285302 
L 185.327677 98.349104 
L 191.886144 93.531806 
L 185.678633 89.419631 
L 183.00771 83.785321 
L 180.282335 76.488368 
L 184.053027 72.897558 
L 195.719633 74.929223 
L 204.292819 73.691547 
L 211.720528 66.692393 
L 219.987272 76.453079 
L 219.209048 83.246312 
L 222.268685 87.508463 
L 222.016697 91.760716 
L 216.49679 90.6416 
L 218.653798 99.820888 
L 226.210284 105.093922 
L 236.900334 110.916939 
L 232.019938 114.69452 
L 229.033433 122.48422 
L 236.484593 125.635216 
L 243.73583 129.720925 
L 253.767291 134.39255 
L 264.310282 135.471859 
L 268.746319 139.708188 
L 274.688725 140.501102 
L 283.941962 142.442179 
L 290.366846 142.306463 
L 291.228176 139.006939 
L 290.215451 133.7154 
L 290.81005 130.128463 
L 295.500858 128.376953 
L 296.146331 134.935432 
L 296.310879 136.603885 
L 303.301383 139.764779 
L 308.137264 138.462981 
L 314.630547 139.021571 
L 320.906421 138.774552 
L 321.446567 133.658809 
L 318.315785 131.001205 
L 324.518526 129.959121 
L 331.519365 123.765361 
L 340.384682 118.462203 
L 346.836232 120.5085 
L 352.319176 117.001822 
L 355.925717 122.18018 
L 353.327926 125.67739 
L 361.621301 126.921952 
L 362.20159 130.078543 
" style="fill:#ff0000;"/>
    <path clip-path="url(#p24967c3ceb)" d="M 325.68897 184.703398 
L 323.004235 183.442119 
L 323.506559 190.143135 
L 321.309223 185.801427 
L 320.865685 181.559166 
L 319.401744 177.550148 
L 316.187993 172.70228 
L 309.102827 172.369028 
L 309.802376 175.802189 
L 307.387036 180.436267 
L 304.11399 178.747394 
L 302.995377 180.26339 
L 300.817051 179.355033 
L 297.840922 178.609347 
L 296.643747 171.751417 
L 293.978168 165.488455 
L 295.287256 160.470008 
L 290.55257 158.238388 
L 292.259928 155.203362 
L 297.069055 152.100179 
L 291.51713 147.691228 
L 294.234622 142.040778 
L 300.327174 145.639767 
L 303.999355 146.050643 
L 304.677779 151.841671 
L 311.99708 152.984058 
L 319.130765 152.860693 
L 323.566126 154.282773 
L 320.019007 161.330835 
L 316.577773 161.811929 
L 314.202566 166.551668 
L 318.414071 170.868043 
L 319.671496 165.54555 
L 321.795379 165.519341 
L 325.822986 178.723177 
L 325.68897 184.703398 
" style="fill:#ffa500;"/>
    <path clip-path="url(#p24967c3ceb)" d="M 321.446567 133.658809 
L 320.906421 138.774552 
L 314.630547 139.021571 
L 308.137264 138.462981 
L 303.301383 139.764779 
L 296.310879 136.603885 
L 296.146331 134.935432 
L 301.234598 128.744254 
L 305.388042 126.631683 
L 310.884896 128.55942 
L 314.948514 128.762113 
L 318.315785 131.001205 
L 321.446567 133.658809 
" style="fill:#808080;"/>
    <path clip-path="url(#p24967c3ceb)" d="M 290.215451 133.7154 
L 291.228176 139.006939 
L 290.366846 142.306463 
L 283.941962 142.442179 
L 274.688725 140.501102 
L 268.746319 139.708188 
L 264.310282 135.471859 
L 253.767291 134.39255 
L 243.73583 129.720925 
L 236.484593 125.635216 
L 229.033433 122.48422 
L 232.019938 114.69452 
L 236.900334 110.916939 
L 240.088749 108.924651 
L 246.254924 111.484997 
L 254.020075 116.910804 
L 258.341644 118.105876 
L 260.922741 122.105945 
L 266.899329 123.747502 
L 273.142213 127.405016 
L 281.842585 129.314678 
L 290.81005 130.128463 
L 290.215451 133.7154 
" style="fill:#808080;"/>
    <path clip-path="url(#p24967c3ceb)" d="M 204.292819 73.691547 
L 195.719633 74.929223 
L 184.053027 72.897558 
L 180.282335 76.488368 
L 183.00771 83.785321 
L 185.678633 89.419631 
L 191.886144 93.531806 
L 185.327677 98.349104 
L 185.446517 104.285302 
L 177.980254 112.641337 
L 173.158682 121.09248 
L 165.112925 129.823347 
L 156.182027 129.190308 
L 147.705424 137.919669 
L 152.739636 141.659594 
L 153.616033 148.068958 
L 157.937205 152.292162 
L 159.464241 159.442152 
L 142.53846 159.42042 
L 137.416409 164.976407 
L 131.778854 162.870507 
L 129.48512 156.884819 
L 123.542714 150.543019 
L 109.372117 152.10948 
L 96.876014 152.26462 
L 86.044071 153.431935 
L 88.94234 143.757318 
L 100.036606 139.455575 
L 99.400275 135.620543 
L 95.720204 134.272483 
L 95.507961 126.93809 
L 88.155372 123.276488 
L 85.059168 118.247029 
L 81.251513 113.866964 
L 94.139113 118.119647 
L 101.833517 116.872503 
L 106.430923 117.934383 
L 107.987768 116.108853 
L 113.34432 116.840442 
L 123.34001 113.37809 
L 123.60909 106.291576 
L 127.896477 101.577993 
L 133.622665 101.592624 
L 134.463291 99.262729 
L 140.341308 98.176965 
L 143.185126 98.952449 
L 146.193093 96.610504 
L 145.76821 91.609449 
L 149.034129 86.583218 
L 153.92923 84.476027 
L 150.906159 78.966518 
L 158.22258 79.226877 
L 160.337458 76.228439 
L 160.016311 73.028813 
L 163.847019 69.530528 
L 162.96784 65.388659 
L 161.149466 61.859173 
L 165.64075 58.231998 
L 173.899148 56.48264 
L 182.725117 55.515222 
L 186.634919 53.977379 
L 188.59679 53.568 
L 191.880582 53.568 
L 196.795157 56.925682 
L 199.071403 63.324717 
L 211.720528 66.692393 
L 204.292819 73.691547 
" style="fill:#ffa500;"/>
    <path clip-path="url(#p24967c3ceb)" d="M 137.10043 53.958444 
L 137.913068 53.568 
L 162.586419 53.568 
L 162.582702 53.604268 
L 165.628031 56.331374 
L 168.307698 54.581585 
L 171.721471 53.75489 
L 171.961729 53.568 
L 188.59679 53.568 
L 186.634919 53.977379 
L 182.725117 55.515222 
L 173.899148 56.48264 
L 165.64075 58.231998 
L 161.149466 61.859173 
L 162.96784 65.388659 
L 163.847019 69.530528 
L 160.016311 73.028813 
L 160.337458 76.228439 
L 158.22258 79.226877 
L 150.906159 78.966518 
L 153.92923 84.476027 
L 149.034129 86.583218 
L 145.76821 91.609449 
L 146.193093 96.610504 
L 143.185126 98.952449 
L 140.341308 98.176965 
L 134.463291 99.262729 
L 133.622665 101.592624 
L 127.896477 101.577993 
L 123.60909 106.291576 
L 123.34001 113.37809 
L 113.34432 116.840442 
L 107.987768 116.108853 
L 106.430923 117.934383 
L 101.833517 116.872503 
L 94.139113 118.119647 
L 81.251513 113.866964 
L 88.227312 106.316967 
L 87.59734 100.956788 
L 81.772184 99.552998 
L 81.170034 94.266192 
L 81.141924 94.192015 
L 81.141924 84.163629 
L 81.939514 83.057821 
L 81.141924 82.764952 
L 81.141924 74.322814 
L 83.840162 65.392747 
L 91.68401 68.55235 
L 97.483331 67.441626 
L 99.089859 63.668134 
L 105.161042 62.412383 
L 109.495727 59.879795 
L 110.950827 53.568 
L 136.196355 53.568 
L 137.10043 53.958444 
" style="fill:#808080;"/>
    <path clip-path="url(#p24967c3ceb)" d="M 171.721471 53.75489 
L 168.307698 54.581585 
L 165.628031 56.331374 
L 162.582702 53.604268 
L 162.586419 53.568 
L 171.961729 53.568 
L 171.721471 53.75489 
" style="fill:#808080;"/>
    <path clip-path="url(#p24967c3ceb)" d="M 137.10043 53.958444 
L 136.196355 53.568 
L 137.913068 53.568 
L 137.10043 53.958444 
" style="fill:#808080;"/>
    <path clip-path="url(#p24967c3ceb)" d="M 109.495727 59.879795 
L 105.161042 62.412383 
L 99.089859 63.668134 
L 97.483331 67.441626 
L 91.68401 68.55235 
L 83.840162 65.392747 
L 83.165277 58.384771 
L 81.141924 58.279599 
L 81.141924 53.568 
L 110.950827 53.568 
L 109.495727 59.879795 
" style="fill:#808080;"/>
    <path clip-path="url(#p24967c3ceb)" d="M 83.165277 58.384771 
L 83.840162 65.392747 
L 81.141924 74.322814 
L 81.141924 58.279599 
L 83.165277 58.384771 
" style="fill:#808080;"/>
    <path clip-path="url(#p24967c3ceb)" d="M 81.939514 83.057821 
L 81.141924 84.163629 
L 81.141924 82.764952 
L 81.939514 83.057821 
" style="fill:#808080;"/>
    <path clip-path="url(#p24967c3ceb)" d="M 81.170034 94.266192 
L 81.772184 99.552998 
L 87.59734 100.956788 
L 88.227312 106.316967 
L 81.251513 113.866964 
L 85.059168 118.247029 
L 88.155372 123.276488 
L 95.507961 126.93809 
L 95.720204 134.272483 
L 99.400275 135.620543 
L 100.036606 139.455575 
L 88.94234 143.757318 
L 86.044071 153.431935 
L 81.141924 152.580087 
L 81.141924 94.192015 
L 81.170034 94.266192 
" style="fill:#808080;"/>
    <path clip-path="url(#p24967c3ceb)" d="M 226.008772 293.981988 
L 229.490114 280.464163 
L 234.804932 285.091462 
L 238.38524 290.956008 
L 240.329576 295.488 
L 226.180343 295.488 
L 226.008772 293.981988 
" style="fill:#808080;"/>
    <path clip-path="url(#p24967c3ceb)" d="M 391.024504 180.315889 
L 385.382974 182.74046 
L 382.05227 181.207351 
L 376.340788 178.081315 
L 378.579673 171.163282 
L 373.709214 169.550343 
L 371.874941 161.884153 
L 363.756449 163.265565 
L 364.678553 153.386964 
L 371.963972 146.432781 
L 372.273593 139.563807 
L 372.047438 133.190808 
L 368.690502 131.205405 
L 366.119739 126.302683 
L 361.621301 126.921952 
L 353.327926 125.67739 
L 355.925717 122.18018 
L 352.319176 117.001822 
L 346.836232 120.5085 
L 340.384682 118.462203 
L 331.519365 123.765361 
L 324.518526 129.959121 
L 318.315785 131.001205 
L 314.948514 128.762113 
L 310.884896 128.55942 
L 305.388042 126.631683 
L 301.234598 128.744254 
L 296.146331 134.935432 
L 295.500858 128.376953 
L 290.81005 130.128463 
L 281.842585 129.314678 
L 273.142213 127.405016 
L 266.899329 123.747502 
L 260.922741 122.105945 
L 258.341644 118.105876 
L 254.020075 116.910804 
L 246.254924 111.484997 
L 240.088749 108.924651 
L 236.900334 110.916939 
L 226.210284 105.093922 
L 218.653798 99.820888 
L 216.49679 90.6416 
L 222.016697 91.760716 
L 222.268685 87.508463 
L 219.209048 83.246312 
L 219.987272 76.453079 
L 211.720528 66.692393 
L 199.071403 63.324717 
L 196.795157 56.925682 
L 191.880582 53.568 
L 391.178076 53.568 
L 391.178076 182.609398 
L 391.024504 180.315889 
" style="fill:#ff0000;"/>
   </g>
   <g id="matplotlib.axis_1">
    <g id="xtick_1">
     <g id="line2d_1">
      <defs>
       <path d="M 0 0 
L 0 3.5 
" id="m83957750f8" style="stroke:#000000;stroke-width:0.8;"/>
      </defs>
      <g>
       <use style="stroke:#000000;stroke-width:0.8;" x="74.527409" xlink:href="#m83957750f8" y="307.584"/>
      </g>
     </g>
     <g id="text_1">
      <!-- 60 -->
      <g transform="translate(68.164909 322.182437)scale(0.1 -0.1)">
       <defs>
        <path d="M 2113 2584 
Q 1688 2584 1439 2293 
Q 1191 2003 1191 1497 
Q 1191 994 1439 701 
Q 1688 409 2113 409 
Q 2538 409 2786 701 
Q 3034 994 3034 1497 
Q 3034 2003 2786 2293 
Q 2538 2584 2113 2584 
z
M 3366 4563 
L 3366 3988 
Q 3128 4100 2886 4159 
Q 2644 4219 2406 4219 
Q 1781 4219 1451 3797 
Q 1122 3375 1075 2522 
Q 1259 2794 1537 2939 
Q 1816 3084 2150 3084 
Q 2853 3084 3261 2657 
Q 3669 2231 3669 1497 
Q 3669 778 3244 343 
Q 2819 -91 2113 -91 
Q 1303 -91 875 529 
Q 447 1150 447 2328 
Q 447 3434 972 4092 
Q 1497 4750 2381 4750 
Q 2619 4750 2861 4703 
Q 3103 4656 3366 4563 
z
" id="DejaVuSans-36" transform="scale(0.015625)"/>
        <path d="M 2034 4250 
Q 1547 4250 1301 3770 
Q 1056 3291 1056 2328 
Q 1056 1369 1301 889 
Q 1547 409 2034 409 
Q 2525 409 2770 889 
Q 3016 1369 3016 2328 
Q 3016 3291 2770 3770 
Q 2525 4250 2034 4250 
z
M 2034 4750 
Q 2819 4750 3233 4129 
Q 3647 3509 3647 2328 
Q 3647 1150 3233 529 
Q 2819 -91 2034 -91 
Q 1250 -91 836 529 
Q 422 1150 422 2328 
Q 422 3509 836 4129 
Q 1250 4750 2034 4750 
z
" id="DejaVuSans-30" transform="scale(0.015625)"/>
       </defs>
       <use xlink:href="#DejaVuSans-36"/>
       <use x="63.623047" xlink:href="#DejaVuSans-30"/>
      </g>
     </g>
    </g>
    <g id="xtick_2">
     <g id="line2d_2">
      <g>
       <use style="stroke:#000000;stroke-width:0.8;" x="112.98389" xlink:href="#m83957750f8" y="307.584"/>
      </g>
     </g>
     <g id="text_2">
      <!-- 65 -->
      <g transform="translate(106.62139 322.182437)scale(0.1 -0.1)">
       <defs>
        <path d="M 691 4666 
L 3169 4666 
L 3169 4134 
L 1269 4134 
L 1269 2991 
Q 1406 3038 1543 3061 
Q 1681 3084 1819 3084 
Q 2600 3084 3056 2656 
Q 3513 2228 3513 1497 
Q 3513 744 3044 326 
Q 2575 -91 1722 -91 
Q 1428 -91 1123 -41 
Q 819 9 494 109 
L 494 744 
Q 775 591 1075 516 
Q 1375 441 1709 441 
Q 2250 441 2565 725 
Q 2881 1009 2881 1497 
Q 2881 1984 2565 2268 
Q 2250 2553 1709 2553 
Q 1456 2553 1204 2497 
Q 953 2441 691 2322 
L 691 4666 
z
" id="DejaVuSans-35" transform="scale(0.015625)"/>
       </defs>
       <use xlink:href="#DejaVuSans-36"/>
       <use x="63.623047" xlink:href="#DejaVuSans-35"/>
      </g>
     </g>
    </g>
    <g id="xtick_3">
     <g id="line2d_3">
      <g>
       <use style="stroke:#000000;stroke-width:0.8;" x="151.440372" xlink:href="#m83957750f8" y="307.584"/>
      </g>
     </g>
     <g id="text_3">
      <!-- 70 -->
      <g transform="translate(145.077872 322.182437)scale(0.1 -0.1)">
       <defs>
        <path d="M 525 4666 
L 3525 4666 
L 3525 4397 
L 1831 0 
L 1172 0 
L 2766 4134 
L 525 4134 
L 525 4666 
z
" id="DejaVuSans-37" transform="scale(0.015625)"/>
       </defs>
       <use xlink:href="#DejaVuSans-37"/>
       <use x="63.623047" xlink:href="#DejaVuSans-30"/>
      </g>
     </g>
    </g>
    <g id="xtick_4">
     <g id="line2d_4">
      <g>
       <use style="stroke:#000000;stroke-width:0.8;" x="189.896853" xlink:href="#m83957750f8" y="307.584"/>
      </g>
     </g>
     <g id="text_4">
      <!-- 75 -->
      <g transform="translate(183.534353 322.182437)scale(0.1 -0.1)">
       <use xlink:href="#DejaVuSans-37"/>
       <use x="63.623047" xlink:href="#DejaVuSans-35"/>
      </g>
     </g>
    </g>
    <g id="xtick_5">
     <g id="line2d_5">
      <g>
       <use style="stroke:#000000;stroke-width:0.8;" x="228.353334" xlink:href="#m83957750f8" y="307.584"/>
      </g>
     </g>
     <g id="text_5">
      <!-- 80 -->
      <g transform="translate(221.990834 322.182437)scale(0.1 -0.1)">
       <defs>
        <path d="M 2034 2216 
Q 1584 2216 1326 1975 
Q 1069 1734 1069 1313 
Q 1069 891 1326 650 
Q 1584 409 2034 409 
Q 2484 409 2743 651 
Q 3003 894 3003 1313 
Q 3003 1734 2745 1975 
Q 2488 2216 2034 2216 
z
M 1403 2484 
Q 997 2584 770 2862 
Q 544 3141 544 3541 
Q 544 4100 942 4425 
Q 1341 4750 2034 4750 
Q 2731 4750 3128 4425 
Q 3525 4100 3525 3541 
Q 3525 3141 3298 2862 
Q 3072 2584 2669 2484 
Q 3125 2378 3379 2068 
Q 3634 1759 3634 1313 
Q 3634 634 3220 271 
Q 2806 -91 2034 -91 
Q 1263 -91 848 271 
Q 434 634 434 1313 
Q 434 1759 690 2068 
Q 947 2378 1403 2484 
z
M 1172 3481 
Q 1172 3119 1398 2916 
Q 1625 2713 2034 2713 
Q 2441 2713 2670 2916 
Q 2900 3119 2900 3481 
Q 2900 3844 2670 4047 
Q 2441 4250 2034 4250 
Q 1625 4250 1398 4047 
Q 1172 3844 1172 3481 
z
" id="DejaVuSans-38" transform="scale(0.015625)"/>
       </defs>
       <use xlink:href="#DejaVuSans-38"/>
       <use x="63.623047" xlink:href="#DejaVuSans-30"/>
      </g>
     </g>
    </g>
    <g id="xtick_6">
     <g id="line2d_6">
      <g>
       <use style="stroke:#000000;stroke-width:0.8;" x="266.809816" xlink:href="#m83957750f8" y="307.584"/>
      </g>
     </g>
     <g id="text_6">
      <!-- 85 -->
      <g transform="translate(260.447316 322.182437)scale(0.1 -0.1)">
       <use xlink:href="#DejaVuSans-38"/>
       <use x="63.623047" xlink:href="#DejaVuSans-35"/>
      </g>
     </g>
    </g>
    <g id="xtick_7">
     <g id="line2d_7">
      <g>
       <use style="stroke:#000000;stroke-width:0.8;" x="305.266297" xlink:href="#m83957750f8" y="307.584"/>
      </g>
     </g>
     <g id="text_7">
      <!-- 90 -->
      <g transform="translate(298.903797 322.182437)scale(0.1 -0.1)">
       <defs>
        <path d="M 703 97 
L 703 672 
Q 941 559 1184 500 
Q 1428 441 1663 441 
Q 2288 441 2617 861 
Q 2947 1281 2994 2138 
Q 2813 1869 2534 1725 
Q 2256 1581 1919 1581 
Q 1219 1581 811 2004 
Q 403 2428 403 3163 
Q 403 3881 828 4315 
Q 1253 4750 1959 4750 
Q 2769 4750 3195 4129 
Q 3622 3509 3622 2328 
Q 3622 1225 3098 567 
Q 2575 -91 1691 -91 
Q 1453 -91 1209 -44 
Q 966 3 703 97 
z
M 1959 2075 
Q 2384 2075 2632 2365 
Q 2881 2656 2881 3163 
Q 2881 3666 2632 3958 
Q 2384 4250 1959 4250 
Q 1534 4250 1286 3958 
Q 1038 3666 1038 3163 
Q 1038 2656 1286 2365 
Q 1534 2075 1959 2075 
z
" id="DejaVuSans-39" transform="scale(0.015625)"/>
       </defs>
       <use xlink:href="#DejaVuSans-39"/>
       <use x="63.623047" xlink:href="#DejaVuSans-30"/>
      </g>
     </g>
    </g>
    <g id="xtick_8">
     <g id="line2d_8">
      <g>
       <use style="stroke:#000000;stroke-width:0.8;" x="343.722778" xlink:href="#m83957750f8" y="307.584"/>
      </g>
     </g>
     <g id="text_8">
      <!-- 95 -->
      <g transform="translate(337.360278 322.182437)scale(0.1 -0.1)">
       <use xlink:href="#DejaVuSans-39"/>
       <use x="63.623047" xlink:href="#DejaVuSans-35"/>
      </g>
     </g>
    </g>
    <g id="xtick_9">
     <g id="line2d_9">
      <g>
       <use style="stroke:#000000;stroke-width:0.8;" x="382.17926" xlink:href="#m83957750f8" y="307.584"/>
      </g>
     </g>
     <g id="text_9">
      <!-- 100 -->
      <g transform="translate(372.63551 322.182437)scale(0.1 -0.1)">
       <defs>
        <path d="M 794 531 
L 1825 531 
L 1825 4091 
L 703 3866 
L 703 4441 
L 1819 4666 
L 2450 4666 
L 2450 531 
L 3481 531 
L 3481 0 
L 794 0 
L 794 531 
z
" id="DejaVuSans-31" transform="scale(0.015625)"/>
       </defs>
       <use xlink:href="#DejaVuSans-31"/>
       <use x="63.623047" xlink:href="#DejaVuSans-30"/>
       <use x="127.246094" xlink:href="#DejaVuSans-30"/>
      </g>
     </g>
    </g>
   </g>
   <g id="matplotlib.axis_2">
    <g id="ytick_1">
     <g id="line2d_10">
      <defs>
       <path d="M 0 0 
L -3.5 0 
" id="m43a02411db" style="stroke:#000000;stroke-width:0.8;"/>
      </defs>
      <g>
       <use style="stroke:#000000;stroke-width:0.8;" x="65.640116" xlink:href="#m43a02411db" y="278.999133"/>
      </g>
     </g>
     <g id="text_10">
      <!-- 10 -->
      <g transform="translate(45.915116 282.798351)scale(0.1 -0.1)">
       <use xlink:href="#DejaVuSans-31"/>
       <use x="63.623047" xlink:href="#DejaVuSans-30"/>
      </g>
     </g>
    </g>
    <g id="ytick_2">
     <g id="line2d_11">
      <g>
       <use style="stroke:#000000;stroke-width:0.8;" x="65.640116" xlink:href="#m43a02411db" y="237.360578"/>
      </g>
     </g>
     <g id="text_11">
      <!-- 15 -->
      <g transform="translate(45.915116 241.159797)scale(0.1 -0.1)">
       <use xlink:href="#DejaVuSans-31"/>
       <use x="63.623047" xlink:href="#DejaVuSans-35"/>
      </g>
     </g>
    </g>
    <g id="ytick_3">
     <g id="line2d_12">
      <g>
       <use style="stroke:#000000;stroke-width:0.8;" x="65.640116" xlink:href="#m43a02411db" y="195.722024"/>
      </g>
     </g>
     <g id="text_12">
      <!-- 20 -->
      <g transform="translate(45.915116 199.521243)scale(0.1 -0.1)">
       <defs>
        <path d="M 1228 531 
L 3431 531 
L 3431 0 
L 469 0 
L 469 531 
Q 828 903 1448 1529 
Q 2069 2156 2228 2338 
Q 2531 2678 2651 2914 
Q 2772 3150 2772 3378 
Q 2772 3750 2511 3984 
Q 2250 4219 1831 4219 
Q 1534 4219 1204 4116 
Q 875 4013 500 3803 
L 500 4441 
Q 881 4594 1212 4672 
Q 1544 4750 1819 4750 
Q 2544 4750 2975 4387 
Q 3406 4025 3406 3419 
Q 3406 3131 3298 2873 
Q 3191 2616 2906 2266 
Q 2828 2175 2409 1742 
Q 1991 1309 1228 531 
z
" id="DejaVuSans-32" transform="scale(0.015625)"/>
       </defs>
       <use xlink:href="#DejaVuSans-32"/>
       <use x="63.623047" xlink:href="#DejaVuSans-30"/>
      </g>
     </g>
    </g>
    <g id="ytick_4">
     <g id="line2d_13">
      <g>
       <use style="stroke:#000000;stroke-width:0.8;" x="65.640116" xlink:href="#m43a02411db" y="154.08347"/>
      </g>
     </g>
     <g id="text_13">
      <!-- 25 -->
      <g transform="translate(45.915116 157.882689)scale(0.1 -0.1)">
       <use xlink:href="#DejaVuSans-32"/>
       <use x="63.623047" xlink:href="#DejaVuSans-35"/>
      </g>
     </g>
    </g>
    <g id="ytick_5">
     <g id="line2d_14">
      <g>
       <use style="stroke:#000000;stroke-width:0.8;" x="65.640116" xlink:href="#m43a02411db" y="112.444916"/>
      </g>
     </g>
     <g id="text_14">
      <!-- 30 -->
      <g transform="translate(45.915116 116.244134)scale(0.1 -0.1)">
       <defs>
        <path d="M 2597 2516 
Q 3050 2419 3304 2112 
Q 3559 1806 3559 1356 
Q 3559 666 3084 287 
Q 2609 -91 1734 -91 
Q 1441 -91 1130 -33 
Q 819 25 488 141 
L 488 750 
Q 750 597 1062 519 
Q 1375 441 1716 441 
Q 2309 441 2620 675 
Q 2931 909 2931 1356 
Q 2931 1769 2642 2001 
Q 2353 2234 1838 2234 
L 1294 2234 
L 1294 2753 
L 1863 2753 
Q 2328 2753 2575 2939 
Q 2822 3125 2822 3475 
Q 2822 3834 2567 4026 
Q 2313 4219 1838 4219 
Q 1578 4219 1281 4162 
Q 984 4106 628 3988 
L 628 4550 
Q 988 4650 1302 4700 
Q 1616 4750 1894 4750 
Q 2613 4750 3031 4423 
Q 3450 4097 3450 3541 
Q 3450 3153 3228 2886 
Q 3006 2619 2597 2516 
z
" id="DejaVuSans-33" transform="scale(0.015625)"/>
       </defs>
       <use xlink:href="#DejaVuSans-33"/>
       <use x="63.623047" xlink:href="#DejaVuSans-30"/>
      </g>
     </g>
    </g>
    <g id="ytick_6">
     <g id="line2d_15">
      <g>
       <use style="stroke:#000000;stroke-width:0.8;" x="65.640116" xlink:href="#m43a02411db" y="70.806361"/>
      </g>
     </g>
     <g id="text_15">
      <!-- 35 -->
      <g transform="translate(45.915116 74.60558)scale(0.1 -0.1)">
       <use xlink:href="#DejaVuSans-33"/>
       <use x="63.623047" xlink:href="#DejaVuSans-35"/>
      </g>
     </g>
    </g>
   </g>
   <g id="patch_3">
    <path d="M 65.640116 307.584 
L 65.640116 41.472 
" style="fill:none;stroke:#000000;stroke-linecap:square;stroke-linejoin:miter;stroke-width:0.8;"/>
   </g>
   <g id="patch_4">
    <path d="M 406.679884 307.584 
L 406.679884 41.472 
" style="fill:none;stroke:#000000;stroke-linecap:square;stroke-linejoin:miter;stroke-width:0.8;"/>
   </g>
   <g id="patch_5">
    <path d="M 65.640116 307.584 
L 406.679884 307.584 
" style="fill:none;stroke:#000000;stroke-linecap:square;stroke-linejoin:miter;stroke-width:0.8;"/>
   </g>
   <g id="patch_6">
    <path d="M 65.640116 41.472 
L 406.679884 41.472 
" style="fill:none;stroke:#000000;stroke-linecap:square;stroke-linejoin:miter;stroke-width:0.8;"/>
   </g>
  </g>
 </g>
 <defs>
  <clipPath id="p24967c3ceb">
   <rect height="266.112" width="341.039768" x="65.640116" y="41.472"/>
  </clipPath>
 </defs>
</svg>
