<?xml version="1.0" encoding="utf-8" standalone="no"?>
<!DOCTYPE svg PUBLIC "-//W3C//DTD SVG 1.1//EN"
  "http://www.w3.org/Graphics/SVG/1.1/DTD/svg11.dtd">
<svg height="345.6pt" version="1.1" viewBox="0 0 460.8 345.6" width="460.8pt" xmlns="http://www.w3.org/2000/svg" xmlns:xlink="http://www.w3.org/1999/xlink">
 <metadata>
  <rdf:RDF xmlns:cc="http://creativecommons.org/ns#" xmlns:dc="http://purl.org/dc/elements/1.1/" xmlns:rdf="http://www.w3.org/1999/02/22-rdf-syntax-ns#">
   <cc:Work>
    <dc:type rdf:resource="http://purl.org/dc/dcmitype/StillImage"/>
    <dc:date>2021-11-23T03:35:38.641147</dc:date>
    <dc:format>image/svg+xml</dc:format>
    <dc:creator>
     <cc:Agent>
      <dc:title>Matplotlib v3.4.3, https://matplotlib.org/</dc:title>
     </cc:Agent>
    </dc:creator>
   </cc:Work>
  </rdf:RDF>
 </metadata>
 <defs>
  <style type="text/css">*{stroke-linecap:butt;stroke-linejoin:round;}</style>
 </defs>
 <g id="figure_1">
  <g id="patch_1">
   <path d="M 0 345.6 
L 460.8 345.6 
L 460.8 0 
L 0 0 
z
" style="fill:#ffffff;"/>
  </g>
  <g id="axes_1">
   <g id="patch_2">
    <path d="M 159.571544 307.584 
L 312.748456 307.584 
L 312.748456 41.472 
L 159.571544 41.472 
z
" style="fill:#ffffff;"/>
   </g>
   <g id="PatchCollection_1">
    <path clip-path="url(#p0a7e7709aa)" d="M 264.601924 241.497932 
L 263.487374 245.943694 
L 263.528252 250.251548 
L 262.624234 251.214374 
L 262.301515 254.0094 
L 262.016685 256.267146 
L 267.306926 259.971494 
L 266.738101 262.95292 
L 269.341824 264.83739 
L 269.130204 266.949864 
L 265.126612 272.495722 
L 258.948625 274.815472 
L 250.591859 275.716073 
L 246.014617 275.280561 
L 246.890514 277.859904 
L 246.037388 281.097025 
L 246.80637 283.278102 
L 244.307163 284.799928 
L 240.037545 285.396967 
L 236.030764 283.822296 
L 234.422659 284.953886 
L 235.003959 289.251472 
L 237.817197 290.553277 
L 240.09828 289.189461 
L 241.339583 291.436014 
L 237.503118 292.77863 
L 234.157316 295.468023 
L 234.154504 295.488 
L 206.553096 295.484805 
L 206.09942 295.089379 
L 205.126437 290.100029 
L 206.801755 289.219894 
L 206.097701 283.947828 
L 207.076578 279.5185 
L 208.189948 275.660184 
L 210.685069 274.090132 
L 209.418462 269.868478 
L 209.404782 265.895318 
L 212.560039 263.073655 
L 212.462124 259.458331 
L 214.8401 255.236788 
L 214.850559 251.259342 
L 213.768783 250.469324 
L 211.849164 243.00391 
L 214.415996 238.555087 
L 214.02199 234.366904 
L 215.511173 230.436601 
L 218.239843 226.380237 
L 221.180199 223.690732 
L 219.93326 221.993575 
L 220.803236 220.601453 
L 220.671285 213.394473 
L 225.209709 211.261195 
L 226.640734 206.768762 
L 226.133696 205.684861 
L 229.606119 201.777154 
L 235.058169 202.830424 
L 237.507744 205.95395 
L 239.133519 202.474805 
L 243.885208 202.653554 
L 244.557786 203.579259 
L 252.219375 210.63647 
L 255.626144 211.294174 
L 260.717318 214.488737 
L 265.008755 216.179198 
L 265.606949 218.087827 
L 261.50478 224.66194 
L 265.706633 225.839034 
L 270.386173 226.49896 
L 273.675616 225.819715 
L 277.455295 222.50665 
L 278.136617 218.689831 
L 280.200287 217.861118 
L 282.290873 220.357538 
L 282.205923 223.811404 
L 278.697351 226.195631 
L 275.898957 227.956535 
L 271.196026 232.155304 
L 265.642746 238.036888 
L 264.601924 241.497932 
" style="fill:#808080;"/>
    <path clip-path="url(#p0a7e7709aa)" d="M 217.827294 186.328477 
L 218.382771 189.448565 
L 220.568638 191.279601 
L 219.256398 195.464253 
L 221.495053 200.31532 
L 223.127374 206.277369 
L 226.133696 205.684861 
L 226.640734 206.768762 
L 225.209709 211.261195 
L 220.671285 213.394473 
L 220.803236 220.601453 
L 219.93326 221.993575 
L 221.180199 223.690732 
L 218.239843 226.380237 
L 215.511173 230.436601 
L 214.02199 234.366904 
L 214.415996 238.555087 
L 211.849164 243.00391 
L 213.768783 250.469324 
L 214.850559 251.259342 
L 214.8401 255.236788 
L 212.462124 259.458331 
L 212.560039 263.073655 
L 209.404782 265.895318 
L 209.418462 269.868478 
L 210.685069 274.090132 
L 208.189948 275.660184 
L 207.076578 279.5185 
L 206.097701 283.947828 
L 206.801755 289.219894 
L 205.126437 290.100029 
L 206.09942 295.089379 
L 206.553096 295.484805 
L 201.582687 295.484924 
L 202.756074 290.655676 
L 199.95986 289.50612 
L 198.658304 294.904512 
L 196.030809 294.295573 
L 197.33879 288.1105 
L 198.75869 280.098416 
L 200.673159 277.142296 
L 199.473174 272.922202 
L 199.129263 268.049953 
L 200.88483 267.909341 
L 203.440983 260.925269 
L 206.321651 254.006631 
L 208.085171 247.561822 
L 207.125567 241.082203 
L 208.369821 237.514395 
L 207.870498 232.176582 
L 210.306954 226.895718 
L 211.057438 218.529761 
L 212.394781 209.547397 
L 213.69768 199.878482 
L 213.392701 192.799411 
L 212.525747 186.708472 
L 214.668018 185.604389 
L 215.784786 183.387094 
L 217.827294 186.328477 
" style="fill:#808080;"/>
    <path clip-path="url(#p0a7e7709aa)" d="M 268.347422 237.575787 
L 272.519694 240.936133 
L 274.068711 240.809859 
L 278.356798 243.580506 
L 281.625809 245.970991 
L 284.035846 248.913727 
L 282.198386 250.965173 
L 283.352155 253.414659 
L 281.548826 256.132562 
L 276.84245 258.536456 
L 273.766273 257.671537 
L 271.511062 258.135062 
L 267.6658 256.262598 
L 264.840007 256.401427 
L 262.301515 254.0094 
L 262.624234 251.214374 
L 263.528252 250.251548 
L 263.487374 245.943694 
L 264.601924 241.497932 
L 265.642746 238.036888 
L 268.347422 237.575787 
" style="fill:#808080;"/>
    <path clip-path="url(#p0a7e7709aa)" d="M 282.198386 250.965173 
L 284.035846 248.913727 
L 281.625809 245.970991 
L 278.356798 243.580506 
L 274.068711 240.809859 
L 272.519694 240.936133 
L 268.347422 237.575787 
L 265.642746 238.036888 
L 271.196026 232.155304 
L 275.898957 227.956535 
L 278.697351 226.195631 
L 282.205923 223.811404 
L 282.290873 220.357538 
L 280.200287 217.861118 
L 278.136617 218.689831 
L 278.954785 216.194081 
L 279.519288 213.636423 
L 279.521441 211.258678 
L 278.021844 210.473993 
L 276.458937 211.173303 
L 274.905291 210.981546 
L 274.418201 209.316744 
L 274.030489 205.353537 
L 273.250113 204.061746 
L 270.441682 202.875706 
L 268.740842 203.72276 
L 264.341287 202.892067 
L 264.618255 197.021122 
L 263.38604 194.616569 
L 264.688533 193.722588 
L 264.287688 191.257463 
L 265.429327 189.362459 
L 266.170356 185.956439 
L 265.185323 183.267144 
L 262.909223 182.052923 
L 262.462305 180.346336 
L 263.074136 177.848581 
L 255.08568 177.67006 
L 253.483198 172.634337 
L 254.69914 172.562141 
L 254.644221 170.697098 
L 253.832222 169.434371 
L 253.648428 166.934388 
L 251.228272 165.65178 
L 248.607008 165.694258 
L 246.882459 164.438241 
L 244.06578 163.581388 
L 242.42639 161.965548 
L 237.760171 161.25174 
L 233.235293 157.377974 
L 233.570218 154.478608 
L 233.057949 152.816053 
L 233.50129 149.574747 
L 228.049131 150.307156 
L 225.853674 151.931061 
L 222.210257 153.683707 
L 221.280808 154.991813 
L 219.135797 155.086774 
L 216.037676 154.720712 
L 213.687282 155.465629 
L 211.791649 154.96904 
L 212.069922 148.399467 
L 208.650976 150.948198 
L 204.973837 150.836474 
L 203.398168 148.529589 
L 200.632721 148.278845 
L 201.513291 146.421837 
L 199.197864 143.790668 
L 197.463708 139.895644 
L 198.563058 139.104922 
L 198.558529 137.278093 
L 201.077207 136.029653 
L 200.661832 133.691031 
L 201.72522 132.186253 
L 202.027641 130.167894 
L 206.7925 127.22449 
L 210.207476 126.392421 
L 210.766141 125.742283 
L 214.521012 125.945204 
L 216.394122 114.08698 
L 216.492525 112.211445 
L 215.840083 109.734945 
L 213.991717 108.157101 
L 214.013109 105.015135 
L 216.359934 104.3031 
L 217.192951 104.7503 
L 217.333979 103.094233 
L 214.892365 102.647015 
L 214.840803 99.940855 
L 222.959568 100.037551 
L 224.337788 98.546753 
L 225.49539 99.918443 
L 226.307706 102.469612 
L 227.09409 101.936587 
L 229.388192 104.224043 
L 232.627921 103.943801 
L 233.434442 102.620284 
L 236.53335 101.610677 
L 238.248878 100.900877 
L 238.733163 99.069251 
L 241.709552 97.838724 
L 241.484216 96.929781 
L 237.954335 96.55809 
L 237.375871 93.83439 
L 237.543954 90.934919 
L 235.678998 89.81376 
L 236.459891 89.415726 
L 239.544689 89.969114 
L 242.857946 91.050169 
L 244.06078 90.027816 
L 247.057193 89.356806 
L 251.717996 87.737873 
L 253.241891 86.087403 
L 252.690229 84.867023 
L 254.856545 84.675847 
L 255.826269 85.672403 
L 255.284379 87.571404 
L 256.716088 88.22606 
L 257.671808 90.235783 
L 256.516023 91.759869 
L 255.852997 95.44144 
L 256.919664 97.627564 
L 257.221764 99.628798 
L 259.78511 101.65797 
L 261.830382 101.872521 
L 262.290965 101.025497 
L 263.60779 100.838438 
L 265.493183 100.079917 
L 266.848013 98.929733 
L 269.152751 99.296592 
L 270.166612 99.141715 
L 272.432053 99.495723 
L 272.807473 98.612049 
L 272.108527 97.752287 
L 272.525291 96.499969 
L 274.201035 96.898484 
L 276.168557 96.456303 
L 278.555553 97.372737 
L 280.375247 98.264922 
L 281.665108 97.092253 
L 282.597188 97.273059 
L 283.165459 98.490539 
L 285.160651 98.181447 
L 286.757581 96.53866 
L 288.037213 93.35388 
L 290.50216 89.396037 
L 291.927709 89.177674 
L 292.958473 91.569684 
L 295.29562 99.133024 
L 297.524034 99.846964 
L 297.636433 102.832343 
L 294.502354 106.39254 
L 295.798404 107.696159 
L 303.163864 108.375345 
L 303.308602 112.724493 
L 305.78587 110.503238 
L 305.78587 216.72429 
L 303.679626 219.285664 
L 303.073133 222.514919 
L 303.765975 224.903169 
L 302.987645 229.27224 
L 302.041998 231.382687 
L 299.129799 233.762891 
L 294.506327 241.374627 
L 290.842067 244.805249 
L 288.009111 246.827864 
L 286.108882 250.941706 
L 283.352155 253.414659 
L 282.198386 250.965173 
" style="fill:#ffa500;"/>
    <path clip-path="url(#p0a7e7709aa)" d="M 219.135797 155.086774 
L 221.280808 154.991813 
L 222.210257 153.683707 
L 225.853674 151.931061 
L 228.049131 150.307156 
L 233.50129 149.574747 
L 233.057949 152.816053 
L 233.570218 154.478608 
L 233.235293 157.377974 
L 237.760171 161.25174 
L 242.42639 161.965548 
L 244.06578 163.581388 
L 246.882459 164.438241 
L 248.607008 165.694258 
L 251.228272 165.65178 
L 253.648428 166.934388 
L 253.832222 169.434371 
L 254.644221 170.697098 
L 254.69914 172.562141 
L 253.483198 172.634337 
L 255.08568 177.67006 
L 263.074136 177.848581 
L 262.462305 180.346336 
L 262.909223 182.052923 
L 265.185323 183.267144 
L 266.170356 185.956439 
L 265.429327 189.362459 
L 264.287688 191.257463 
L 264.688533 193.722588 
L 263.38604 194.616569 
L 263.314865 193.28321 
L 259.433187 191.071105 
L 255.564227 191.009897 
L 248.302507 192.268444 
L 246.304 196.074329 
L 246.198943 198.400673 
L 244.557786 203.579259 
L 243.885208 202.653554 
L 239.133519 202.474805 
L 237.507744 205.95395 
L 235.058169 202.830424 
L 229.606119 201.777154 
L 226.133696 205.684861 
L 223.127374 206.277369 
L 221.495053 200.31532 
L 219.256398 195.464253 
L 220.568638 191.279601 
L 218.382771 189.448565 
L 217.827294 186.328477 
L 215.784786 183.387094 
L 218.413123 178.719177 
L 216.620821 175.083846 
L 217.57675 173.630012 
L 216.830092 172.026452 
L 218.457836 169.865928 
L 218.539073 166.185011 
L 218.744493 163.145485 
L 219.639846 161.681404 
L 216.037676 154.720712 
L 219.135797 155.086774 
" style="fill:#808080;"/>
    <path clip-path="url(#p0a7e7709aa)" d="M 210.766141 125.742283 
L 210.207476 126.392421 
L 206.7925 127.22449 
L 202.027641 130.167894 
L 201.72522 132.186253 
L 200.661832 133.691031 
L 201.077207 136.029653 
L 198.558529 137.278093 
L 198.563058 139.104922 
L 197.463708 139.895644 
L 199.197864 143.790668 
L 201.513291 146.421837 
L 200.632721 148.278845 
L 203.398168 148.529589 
L 204.973837 150.836474 
L 208.650976 150.948198 
L 212.069922 148.399467 
L 211.791649 154.96904 
L 213.687282 155.465629 
L 216.037676 154.720712 
L 219.639846 161.681404 
L 218.744493 163.145485 
L 218.539073 166.185011 
L 218.457836 169.865928 
L 216.830092 172.026452 
L 217.57675 173.630012 
L 216.620821 175.083846 
L 218.413123 178.719177 
L 215.784786 183.387094 
L 214.668018 185.604389 
L 212.525747 186.708472 
L 208.34774 184.225272 
L 207.98608 182.450732 
L 199.725346 178.108101 
L 192.252696 173.378143 
L 189.038695 170.712334 
L 187.312491 167.139571 
L 187.99679 165.893361 
L 184.467634 160.217758 
L 180.359231 152.238385 
L 176.42234 143.626973 
L 174.718223 141.655992 
L 173.407075 138.470769 
L 170.169819 135.648062 
L 167.200865 133.897227 
L 168.549459 131.967132 
L 166.534131 127.850147 
L 166.53413 127.832952 
L 167.827225 124.813117 
L 171.148768 122.082275 
L 171.64274 123.882713 
L 170.45404 124.912568 
L 170.566776 126.49734 
L 172.289059 126.152926 
L 173.972158 126.620456 
L 175.720944 128.804171 
L 178.076814 127.025168 
L 178.865213 124.107268 
L 181.418532 120.34434 
L 186.429171 118.638858 
L 190.972656 114.110472 
L 192.269671 111.298507 
L 191.688388 108.014311 
L 192.799321 107.603739 
L 195.570371 109.652036 
L 196.900449 111.693405 
L 198.829245 112.807732 
L 201.283981 117.342147 
L 204.386631 117.883886 
L 206.682663 116.740277 
L 208.18737 117.488524 
L 210.688177 117.116854 
L 213.879002 119.142127 
L 211.191514 123.543571 
L 212.435889 123.646151 
L 214.521012 125.945204 
L 210.766141 125.742283 
" style="fill:#808080;"/>
    <path clip-path="url(#p0a7e7709aa)" d="M 226.307706 102.469612 
L 225.49539 99.918443 
L 224.337788 98.546753 
L 222.959568 100.037551 
L 214.840803 99.940855 
L 214.892365 102.647015 
L 217.333979 103.094233 
L 217.192951 104.7503 
L 216.359934 104.3031 
L 214.013109 105.015135 
L 213.991717 108.157101 
L 215.840083 109.734945 
L 216.492525 112.211445 
L 216.394122 114.08698 
L 214.521012 125.945204 
L 212.435889 123.646151 
L 211.191514 123.543571 
L 213.879002 119.142127 
L 210.688177 117.116854 
L 208.18737 117.488524 
L 206.682663 116.740277 
L 204.386631 117.883886 
L 201.283981 117.342147 
L 198.829245 112.807732 
L 196.900449 111.693405 
L 195.570371 109.652036 
L 192.799321 107.603739 
L 191.688388 108.014311 
L 189.903969 106.990058 
L 187.85868 105.557489 
L 186.675029 106.245621 
L 183.139031 105.645564 
L 182.123862 103.785009 
L 181.346961 103.854071 
L 177.179286 101.384634 
L 176.61415 100.041761 
L 178.16882 99.717253 
L 177.984286 97.550726 
L 178.961448 95.984277 
L 181.028491 95.694301 
L 182.783204 92.976541 
L 184.378036 90.707666 
L 182.842212 89.678486 
L 183.628381 87.168465 
L 182.688272 83.212009 
L 183.581672 82.07657 
L 182.923967 78.418815 
L 181.236774 76.115183 
L 181.770798 74.013039 
L 183.113797 74.323474 
L 183.899427 73.038076 
L 182.93208 70.490736 
L 183.437781 69.858375 
L 185.590736 69.995722 
L 188.717097 66.976735 
L 190.432939 66.51647 
L 190.474182 65.086028 
L 191.242064 61.431655 
L 193.63189 59.424744 
L 196.257594 59.342631 
L 196.588989 58.441193 
L 199.849366 58.80215 
L 203.128487 56.618234 
L 204.752083 55.651311 
L 206.769157 53.568 
L 208.24533 53.832956 
L 209.338728 54.97048 
L 208.52983 56.426629 
L 205.853271 57.151503 
L 204.796309 59.313773 
L 203.183371 60.553804 
L 201.972345 62.161034 
L 201.462641 65.247113 
L 200.306951 67.776137 
L 202.457988 68.065794 
L 202.992319 70.054091 
L 203.911665 71.005612 
L 204.240681 72.74695 
L 203.745737 74.347707 
L 203.892372 75.250392 
L 204.917986 75.61089 
L 205.910434 77.119465 
L 211.268808 76.703576 
L 213.689433 77.254609 
L 216.622201 80.976212 
L 218.306295 80.513706 
L 221.307555 80.745262 
L 223.682533 80.252031 
L 225.156135 80.995262 
L 224.405698 83.3246 
L 223.47579 84.77662 
L 223.149441 87.87835 
L 223.987702 90.752015 
L 225.172221 92.037101 
L 225.315517 93.005381 
L 223.203882 95.15827 
L 224.71581 96.11136 
L 225.823347 97.623514 
L 227.09409 101.936587 
L 226.307706 102.469612 
" style="fill:#808080;"/>
    <path clip-path="url(#p0a7e7709aa)" d="M 182.93208 70.490736 
L 183.899427 73.038076 
L 183.113797 74.323474 
L 181.770798 74.013039 
L 181.236774 76.115183 
L 179.847699 74.867543 
L 178.955068 72.533074 
L 179.984558 71.377749 
L 178.928806 71.081396 
L 178.151049 69.652398 
L 176.075365 68.450084 
L 174.252074 68.725635 
L 173.407441 70.230049 
L 171.724431 71.316423 
L 170.815314 71.467385 
L 170.406832 72.367376 
L 172.394406 74.714814 
L 171.256932 75.267387 
L 170.654872 75.908241 
L 168.716271 76.128928 
L 167.994827 73.545378 
L 167.452411 74.280657 
L 166.534519 74.111073 
L 166.534546 69.339008 
L 168.462545 69.045076 
L 170.235134 67.952781 
L 172.765675 67.080519 
L 174.187817 65.788089 
L 176.488199 66.042024 
L 176.332945 66.467435 
L 178.656226 66.614954 
L 180.510304 67.361979 
L 181.870416 68.663255 
L 183.437781 69.858375 
L 182.93208 70.490736 
" style="fill:#808080;"/>
    <path clip-path="url(#p0a7e7709aa)" d="M 253.241891 86.087403 
L 251.717996 87.737873 
L 247.057193 89.356806 
L 244.06078 90.027816 
L 242.857946 91.050169 
L 239.544689 89.969114 
L 236.459891 89.415726 
L 235.678998 89.81376 
L 237.543954 90.934919 
L 237.375871 93.83439 
L 237.954335 96.55809 
L 241.484216 96.929781 
L 241.709552 97.838724 
L 238.733163 99.069251 
L 238.248878 100.900877 
L 236.53335 101.610677 
L 233.434442 102.620284 
L 232.627921 103.943801 
L 229.388192 104.224043 
L 227.09409 101.936587 
L 225.823347 97.623514 
L 224.71581 96.11136 
L 223.203882 95.15827 
L 225.315517 93.005381 
L 225.172221 92.037101 
L 223.987702 90.752015 
L 223.149441 87.87835 
L 223.47579 84.77662 
L 224.405698 83.3246 
L 225.156135 80.995262 
L 223.682533 80.252031 
L 221.307555 80.745262 
L 218.306295 80.513706 
L 216.622201 80.976212 
L 213.689433 77.254609 
L 211.268808 76.703576 
L 205.910434 77.119465 
L 204.917986 75.61089 
L 203.892372 75.250392 
L 203.745737 74.347707 
L 204.240681 72.74695 
L 203.911665 71.005612 
L 202.992319 70.054091 
L 202.457988 68.065794 
L 200.306951 67.776137 
L 201.462641 65.247113 
L 201.972345 62.161034 
L 203.183371 60.553804 
L 204.796309 59.313773 
L 205.853271 57.151503 
L 208.52983 56.426629 
L 208.411391 57.448541 
L 205.965238 57.953278 
L 207.324388 59.915987 
L 207.273556 62.177718 
L 205.435483 64.689749 
L 207.012755 68.121024 
L 208.809039 67.840218 
L 209.744774 64.71425 
L 208.452696 63.192153 
L 208.242125 59.918117 
L 213.431267 58.160062 
L 212.853982 56.121597 
L 214.314899 54.757196 
L 215.810558 57.796237 
L 218.732799 57.866437 
L 221.440122 60.278149 
L 221.603223 61.710057 
L 225.344577 61.748081 
L 229.796413 61.303708 
L 232.182463 63.2405 
L 235.369227 63.775007 
L 237.706747 62.424027 
L 237.75456 61.334957 
L 242.916008 61.074194 
L 247.909495 61.014125 
L 244.371085 62.29145 
L 245.7945 64.333051 
L 249.126931 64.65804 
L 252.286112 66.784697 
L 252.950046 70.249593 
L 255.12164 70.15195 
L 256.754144 71.171241 
L 253.452807 73.711918 
L 253.088671 75.288755 
L 254.514995 76.893658 
L 253.480225 77.703803 
L 250.91619 78.397942 
L 250.999182 80.395059 
L 249.870418 81.585363 
L 252.690229 84.867023 
L 253.241891 86.087403 
" style="fill:#808080;"/>
    <path clip-path="url(#p0a7e7709aa)" d="M 269.152751 99.296592 
L 266.848013 98.929733 
L 265.493183 100.079917 
L 263.60779 100.838438 
L 262.290965 101.025497 
L 261.830382 101.872521 
L 259.78511 101.65797 
L 257.221764 99.628798 
L 256.919664 97.627564 
L 255.852997 95.44144 
L 256.516023 91.759869 
L 257.671808 90.235783 
L 256.716088 88.22606 
L 255.284379 87.571404 
L 255.826269 85.672403 
L 254.856545 84.675847 
L 252.690229 84.867023 
L 249.870418 81.585363 
L 250.999182 80.395059 
L 250.91619 78.397942 
L 253.480225 77.703803 
L 254.514995 76.893658 
L 253.088671 75.288755 
L 253.452807 73.711918 
L 256.754144 71.171241 
L 259.490068 72.762037 
L 262.068153 75.579666 
L 262.185176 77.806498 
L 263.755115 77.908973 
L 265.988036 80.018704 
L 267.633013 81.524235 
L 266.967109 85.414712 
L 264.437675 86.54321 
L 264.663012 87.563099 
L 263.894294 89.794406 
L 265.740708 92.935093 
L 267.07465 92.940124 
L 267.621897 95.381737 
L 270.166612 99.141715 
L 269.152751 99.296592 
" style="fill:#808080;"/>
    <path clip-path="url(#p0a7e7709aa)" d="M 276.168557 96.456303 
L 274.201035 96.898484 
L 272.525291 96.499969 
L 272.108527 97.752287 
L 272.807473 98.612049 
L 272.432053 99.495723 
L 270.166612 99.141715 
L 267.621897 95.381737 
L 267.07465 92.940124 
L 265.740708 92.935093 
L 263.894294 89.794406 
L 264.663012 87.563099 
L 264.437675 86.54321 
L 266.967109 85.414712 
L 267.633013 81.524235 
L 272.625334 82.390376 
L 273.073429 81.610851 
L 276.43665 81.312618 
L 280.917031 82.474895 
L 278.74774 86.193377 
L 279.077311 89.152205 
L 280.713324 91.715003 
L 279.984951 93.575809 
L 279.618342 95.553948 
L 278.555553 97.372737 
L 276.168557 96.456303 
" style="fill:#808080;"/>
    <path clip-path="url(#p0a7e7709aa)" d="M 288.037213 93.35388 
L 286.757581 96.53866 
L 285.160651 98.181447 
L 283.165459 98.490539 
L 282.597188 97.273059 
L 281.665108 97.092253 
L 280.375247 98.264922 
L 278.555553 97.372737 
L 279.618342 95.553948 
L 279.984951 93.575809 
L 280.713324 91.715003 
L 279.077311 89.152205 
L 278.74774 86.193377 
L 280.917031 82.474895 
L 282.33211 82.950713 
L 285.40032 83.974312 
L 289.812332 87.624852 
L 290.50216 89.396037 
L 288.037213 93.35388 
" style="fill:#ff0000;"/>
    <path clip-path="url(#p0a7e7709aa)" d="M 192.269671 111.298507 
L 190.972656 114.110472 
L 186.429171 118.638858 
L 181.418532 120.34434 
L 178.865213 124.107268 
L 178.076814 127.025168 
L 175.720944 128.804171 
L 173.972158 126.620456 
L 172.289059 126.152926 
L 170.566776 126.49734 
L 170.45404 124.912568 
L 171.64274 123.882713 
L 171.148768 122.082275 
L 173.366606 118.850134 
L 172.465451 116.96142 
L 170.872803 118.969722 
L 168.376937 117.074542 
L 169.222623 115.855392 
L 168.51901 111.930229 
L 169.978599 111.278069 
L 170.745465 108.583881 
L 172.322285 105.798502 
L 172.031795 104.033597 
L 174.314582 103.105869 
L 177.179286 101.384634 
L 181.346961 103.854071 
L 182.123862 103.785009 
L 183.139031 105.645564 
L 186.675029 106.245621 
L 187.85868 105.557489 
L 189.903969 106.990058 
L 191.688388 108.014311 
L 192.269671 111.298507 
" style="fill:#808080;"/>
    <path clip-path="url(#p0a7e7709aa)" d="M 264.618255 197.021122 
L 264.341287 202.892067 
L 268.740842 203.72276 
L 270.441682 202.875706 
L 273.250113 204.061746 
L 274.030489 205.353537 
L 274.418201 209.316744 
L 274.905291 210.981546 
L 276.458937 211.173303 
L 278.021844 210.473993 
L 279.521441 211.258678 
L 279.519288 213.636423 
L 278.954785 216.194081 
L 278.136617 218.689831 
L 277.455295 222.50665 
L 273.675616 225.819715 
L 270.386173 226.49896 
L 265.706633 225.839034 
L 261.50478 224.66194 
L 265.606949 218.087827 
L 265.008755 216.179198 
L 260.717318 214.488737 
L 255.626144 211.294174 
L 252.219375 210.63647 
L 244.557786 203.579259 
L 246.198943 198.400673 
L 246.304 196.074329 
L 248.302507 192.268444 
L 255.564227 191.009897 
L 259.433187 191.071105 
L 263.314865 193.28321 
L 263.38604 194.616569 
L 264.618255 197.021122 
" style="fill:#808080;"/>
    <path clip-path="url(#p0a7e7709aa)" d="M 251.142773 60.260023 
L 252.017815 60.4114 
L 251.851108 63.633378 
L 248.371764 64.109071 
L 247.62173 63.719831 
L 248.830135 62.530521 
L 248.746814 60.822222 
L 251.142773 60.260023 
" style="fill:#808080;"/>
   </g>
   <g id="matplotlib.axis_1">
    <g id="xtick_1">
     <g id="line2d_1">
      <defs>
       <path d="M 0 0 
L 0 3.5 
" id="m5bbd3c607e" style="stroke:#000000;stroke-width:0.8;"/>
      </defs>
      <g>
       <use style="stroke:#000000;stroke-width:0.8;" x="172.40022" xlink:href="#m5bbd3c607e" y="307.584"/>
      </g>
     </g>
     <g id="text_1">
      <!-- −80 -->
      <g transform="translate(161.847876 322.182437)scale(0.1 -0.1)">
       <defs>
        <path d="M 678 2272 
L 4684 2272 
L 4684 1741 
L 678 1741 
L 678 2272 
z
" id="DejaVuSans-2212" transform="scale(0.015625)"/>
        <path d="M 2034 2216 
Q 1584 2216 1326 1975 
Q 1069 1734 1069 1313 
Q 1069 891 1326 650 
Q 1584 409 2034 409 
Q 2484 409 2743 651 
Q 3003 894 3003 1313 
Q 3003 1734 2745 1975 
Q 2488 2216 2034 2216 
z
M 1403 2484 
Q 997 2584 770 2862 
Q 544 3141 544 3541 
Q 544 4100 942 4425 
Q 1341 4750 2034 4750 
Q 2731 4750 3128 4425 
Q 3525 4100 3525 3541 
Q 3525 3141 3298 2862 
Q 3072 2584 2669 2484 
Q 3125 2378 3379 2068 
Q 3634 1759 3634 1313 
Q 3634 634 3220 271 
Q 2806 -91 2034 -91 
Q 1263 -91 848 271 
Q 434 634 434 1313 
Q 434 1759 690 2068 
Q 947 2378 1403 2484 
z
M 1172 3481 
Q 1172 3119 1398 2916 
Q 1625 2713 2034 2713 
Q 2441 2713 2670 2916 
Q 2900 3119 2900 3481 
Q 2900 3844 2670 4047 
Q 2441 4250 2034 4250 
Q 1625 4250 1398 4047 
Q 1172 3844 1172 3481 
z
" id="DejaVuSans-38" transform="scale(0.015625)"/>
        <path d="M 2034 4250 
Q 1547 4250 1301 3770 
Q 1056 3291 1056 2328 
Q 1056 1369 1301 889 
Q 1547 409 2034 409 
Q 2525 409 2770 889 
Q 3016 1369 3016 2328 
Q 3016 3291 2770 3770 
Q 2525 4250 2034 4250 
z
M 2034 4750 
Q 2819 4750 3233 4129 
Q 3647 3509 3647 2328 
Q 3647 1150 3233 529 
Q 2819 -91 2034 -91 
Q 1250 -91 836 529 
Q 422 1150 422 2328 
Q 422 3509 836 4129 
Q 1250 4750 2034 4750 
z
" id="DejaVuSans-30" transform="scale(0.015625)"/>
       </defs>
       <use xlink:href="#DejaVuSans-2212"/>
       <use x="83.789062" xlink:href="#DejaVuSans-38"/>
       <use x="147.412109" xlink:href="#DejaVuSans-30"/>
      </g>
     </g>
    </g>
    <g id="xtick_2">
     <g id="line2d_2">
      <g>
       <use style="stroke:#000000;stroke-width:0.8;" x="214.070214" xlink:href="#m5bbd3c607e" y="307.584"/>
      </g>
     </g>
     <g id="text_2">
      <!-- −70 -->
      <g transform="translate(203.51787 322.182437)scale(0.1 -0.1)">
       <defs>
        <path d="M 525 4666 
L 3525 4666 
L 3525 4397 
L 1831 0 
L 1172 0 
L 2766 4134 
L 525 4134 
L 525 4666 
z
" id="DejaVuSans-37" transform="scale(0.015625)"/>
       </defs>
       <use xlink:href="#DejaVuSans-2212"/>
       <use x="83.789062" xlink:href="#DejaVuSans-37"/>
       <use x="147.412109" xlink:href="#DejaVuSans-30"/>
      </g>
     </g>
    </g>
    <g id="xtick_3">
     <g id="line2d_3">
      <g>
       <use style="stroke:#000000;stroke-width:0.8;" x="255.740207" xlink:href="#m5bbd3c607e" y="307.584"/>
      </g>
     </g>
     <g id="text_3">
      <!-- −60 -->
      <g transform="translate(245.187863 322.182437)scale(0.1 -0.1)">
       <defs>
        <path d="M 2113 2584 
Q 1688 2584 1439 2293 
Q 1191 2003 1191 1497 
Q 1191 994 1439 701 
Q 1688 409 2113 409 
Q 2538 409 2786 701 
Q 3034 994 3034 1497 
Q 3034 2003 2786 2293 
Q 2538 2584 2113 2584 
z
M 3366 4563 
L 3366 3988 
Q 3128 4100 2886 4159 
Q 2644 4219 2406 4219 
Q 1781 4219 1451 3797 
Q 1122 3375 1075 2522 
Q 1259 2794 1537 2939 
Q 1816 3084 2150 3084 
Q 2853 3084 3261 2657 
Q 3669 2231 3669 1497 
Q 3669 778 3244 343 
Q 2819 -91 2113 -91 
Q 1303 -91 875 529 
Q 447 1150 447 2328 
Q 447 3434 972 4092 
Q 1497 4750 2381 4750 
Q 2619 4750 2861 4703 
Q 3103 4656 3366 4563 
z
" id="DejaVuSans-36" transform="scale(0.015625)"/>
       </defs>
       <use xlink:href="#DejaVuSans-2212"/>
       <use x="83.789062" xlink:href="#DejaVuSans-36"/>
       <use x="147.412109" xlink:href="#DejaVuSans-30"/>
      </g>
     </g>
    </g>
    <g id="xtick_4">
     <g id="line2d_4">
      <g>
       <use style="stroke:#000000;stroke-width:0.8;" x="297.410201" xlink:href="#m5bbd3c607e" y="307.584"/>
      </g>
     </g>
     <g id="text_4">
      <!-- −50 -->
      <g transform="translate(286.857857 322.182437)scale(0.1 -0.1)">
       <defs>
        <path d="M 691 4666 
L 3169 4666 
L 3169 4134 
L 1269 4134 
L 1269 2991 
Q 1406 3038 1543 3061 
Q 1681 3084 1819 3084 
Q 2600 3084 3056 2656 
Q 3513 2228 3513 1497 
Q 3513 744 3044 326 
Q 2575 -91 1722 -91 
Q 1428 -91 1123 -41 
Q 819 9 494 109 
L 494 744 
Q 775 591 1075 516 
Q 1375 441 1709 441 
Q 2250 441 2565 725 
Q 2881 1009 2881 1497 
Q 2881 1984 2565 2268 
Q 2250 2553 1709 2553 
Q 1456 2553 1204 2497 
Q 953 2441 691 2322 
L 691 4666 
z
" id="DejaVuSans-35" transform="scale(0.015625)"/>
       </defs>
       <use xlink:href="#DejaVuSans-2212"/>
       <use x="83.789062" xlink:href="#DejaVuSans-35"/>
       <use x="147.412109" xlink:href="#DejaVuSans-30"/>
      </g>
     </g>
    </g>
   </g>
   <g id="matplotlib.axis_2">
    <g id="ytick_1">
     <g id="line2d_5">
      <defs>
       <path d="M 0 0 
L -3.5 0 
" id="mb451a5ff50" style="stroke:#000000;stroke-width:0.8;"/>
      </defs>
      <g>
       <use style="stroke:#000000;stroke-width:0.8;" x="159.571544" xlink:href="#mb451a5ff50" y="280.365552"/>
      </g>
     </g>
     <g id="text_5">
      <!-- −40 -->
      <g transform="translate(131.466856 284.164771)scale(0.1 -0.1)">
       <defs>
        <path d="M 2419 4116 
L 825 1625 
L 2419 1625 
L 2419 4116 
z
M 2253 4666 
L 3047 4666 
L 3047 1625 
L 3713 1625 
L 3713 1100 
L 3047 1100 
L 3047 0 
L 2419 0 
L 2419 1100 
L 313 1100 
L 313 1709 
L 2253 4666 
z
" id="DejaVuSans-34" transform="scale(0.015625)"/>
       </defs>
       <use xlink:href="#DejaVuSans-2212"/>
       <use x="83.789062" xlink:href="#DejaVuSans-34"/>
       <use x="147.412109" xlink:href="#DejaVuSans-30"/>
      </g>
     </g>
    </g>
    <g id="ytick_2">
     <g id="line2d_6">
      <g>
       <use style="stroke:#000000;stroke-width:0.8;" x="159.571544" xlink:href="#mb451a5ff50" y="237.116954"/>
      </g>
     </g>
     <g id="text_6">
      <!-- −30 -->
      <g transform="translate(131.466856 240.916172)scale(0.1 -0.1)">
       <defs>
        <path d="M 2597 2516 
Q 3050 2419 3304 2112 
Q 3559 1806 3559 1356 
Q 3559 666 3084 287 
Q 2609 -91 1734 -91 
Q 1441 -91 1130 -33 
Q 819 25 488 141 
L 488 750 
Q 750 597 1062 519 
Q 1375 441 1716 441 
Q 2309 441 2620 675 
Q 2931 909 2931 1356 
Q 2931 1769 2642 2001 
Q 2353 2234 1838 2234 
L 1294 2234 
L 1294 2753 
L 1863 2753 
Q 2328 2753 2575 2939 
Q 2822 3125 2822 3475 
Q 2822 3834 2567 4026 
Q 2313 4219 1838 4219 
Q 1578 4219 1281 4162 
Q 984 4106 628 3988 
L 628 4550 
Q 988 4650 1302 4700 
Q 1616 4750 1894 4750 
Q 2613 4750 3031 4423 
Q 3450 4097 3450 3541 
Q 3450 3153 3228 2886 
Q 3006 2619 2597 2516 
z
" id="DejaVuSans-33" transform="scale(0.015625)"/>
       </defs>
       <use xlink:href="#DejaVuSans-2212"/>
       <use x="83.789062" xlink:href="#DejaVuSans-33"/>
       <use x="147.412109" xlink:href="#DejaVuSans-30"/>
      </g>
     </g>
    </g>
    <g id="ytick_3">
     <g id="line2d_7">
      <g>
       <use style="stroke:#000000;stroke-width:0.8;" x="159.571544" xlink:href="#mb451a5ff50" y="193.868356"/>
      </g>
     </g>
     <g id="text_7">
      <!-- −20 -->
      <g transform="translate(131.466856 197.667574)scale(0.1 -0.1)">
       <defs>
        <path d="M 1228 531 
L 3431 531 
L 3431 0 
L 469 0 
L 469 531 
Q 828 903 1448 1529 
Q 2069 2156 2228 2338 
Q 2531 2678 2651 2914 
Q 2772 3150 2772 3378 
Q 2772 3750 2511 3984 
Q 2250 4219 1831 4219 
Q 1534 4219 1204 4116 
Q 875 4013 500 3803 
L 500 4441 
Q 881 4594 1212 4672 
Q 1544 4750 1819 4750 
Q 2544 4750 2975 4387 
Q 3406 4025 3406 3419 
Q 3406 3131 3298 2873 
Q 3191 2616 2906 2266 
Q 2828 2175 2409 1742 
Q 1991 1309 1228 531 
z
" id="DejaVuSans-32" transform="scale(0.015625)"/>
       </defs>
       <use xlink:href="#DejaVuSans-2212"/>
       <use x="83.789062" xlink:href="#DejaVuSans-32"/>
       <use x="147.412109" xlink:href="#DejaVuSans-30"/>
      </g>
     </g>
    </g>
    <g id="ytick_4">
     <g id="line2d_8">
      <g>
       <use style="stroke:#000000;stroke-width:0.8;" x="159.571544" xlink:href="#mb451a5ff50" y="150.619757"/>
      </g>
     </g>
     <g id="text_8">
      <!-- −10 -->
      <g transform="translate(131.466856 154.418976)scale(0.1 -0.1)">
       <defs>
        <path d="M 794 531 
L 1825 531 
L 1825 4091 
L 703 3866 
L 703 4441 
L 1819 4666 
L 2450 4666 
L 2450 531 
L 3481 531 
L 3481 0 
L 794 0 
L 794 531 
z
" id="DejaVuSans-31" transform="scale(0.015625)"/>
       </defs>
       <use xlink:href="#DejaVuSans-2212"/>
       <use x="83.789062" xlink:href="#DejaVuSans-31"/>
       <use x="147.412109" xlink:href="#DejaVuSans-30"/>
      </g>
     </g>
    </g>
    <g id="ytick_5">
     <g id="line2d_9">
      <g>
       <use style="stroke:#000000;stroke-width:0.8;" x="159.571544" xlink:href="#mb451a5ff50" y="107.371159"/>
      </g>
     </g>
     <g id="text_9">
      <!-- 0 -->
      <g transform="translate(146.209044 111.170378)scale(0.1 -0.1)">
       <use xlink:href="#DejaVuSans-30"/>
      </g>
     </g>
    </g>
    <g id="ytick_6">
     <g id="line2d_10">
      <g>
       <use style="stroke:#000000;stroke-width:0.8;" x="159.571544" xlink:href="#mb451a5ff50" y="64.122561"/>
      </g>
     </g>
     <g id="text_10">
      <!-- 10 -->
      <g transform="translate(139.846544 67.92178)scale(0.1 -0.1)">
       <use xlink:href="#DejaVuSans-31"/>
       <use x="63.623047" xlink:href="#DejaVuSans-30"/>
      </g>
     </g>
    </g>
   </g>
   <g id="patch_3">
    <path d="M 159.571544 307.584 
L 159.571544 41.472 
" style="fill:none;stroke:#000000;stroke-linecap:square;stroke-linejoin:miter;stroke-width:0.8;"/>
   </g>
   <g id="patch_4">
    <path d="M 312.748456 307.584 
L 312.748456 41.472 
" style="fill:none;stroke:#000000;stroke-linecap:square;stroke-linejoin:miter;stroke-width:0.8;"/>
   </g>
   <g id="patch_5">
    <path d="M 159.571544 307.584 
L 312.748456 307.584 
" style="fill:none;stroke:#000000;stroke-linecap:square;stroke-linejoin:miter;stroke-width:0.8;"/>
   </g>
   <g id="patch_6">
    <path d="M 159.571544 41.472 
L 312.748456 41.472 
" style="fill:none;stroke:#000000;stroke-linecap:square;stroke-linejoin:miter;stroke-width:0.8;"/>
   </g>
  </g>
 </g>
 <defs>
  <clipPath id="p0a7e7709aa">
   <rect height="266.112" width="153.176913" x="159.571544" y="41.472"/>
  </clipPath>
 </defs>
</svg>
