<?xml version="1.0" encoding="utf-8" standalone="no"?>
<!DOCTYPE svg PUBLIC "-//W3C//DTD SVG 1.1//EN"
  "http://www.w3.org/Graphics/SVG/1.1/DTD/svg11.dtd">
<svg height="345.6pt" version="1.1" viewBox="0 0 460.8 345.6" width="460.8pt" xmlns="http://www.w3.org/2000/svg" xmlns:xlink="http://www.w3.org/1999/xlink">
 <metadata>
  <rdf:RDF xmlns:cc="http://creativecommons.org/ns#" xmlns:dc="http://purl.org/dc/elements/1.1/" xmlns:rdf="http://www.w3.org/1999/02/22-rdf-syntax-ns#">
   <cc:Work>
    <dc:type rdf:resource="http://purl.org/dc/dcmitype/StillImage"/>
    <dc:date>2021-11-23T03:35:40.837499</dc:date>
    <dc:format>image/svg+xml</dc:format>
    <dc:creator>
     <cc:Agent>
      <dc:title>Matplotlib v3.4.3, https://matplotlib.org/</dc:title>
     </cc:Agent>
    </dc:creator>
   </cc:Work>
  </rdf:RDF>
 </metadata>
 <defs>
  <style type="text/css">*{stroke-linecap:butt;stroke-linejoin:round;}</style>
 </defs>
 <g id="figure_1">
  <g id="patch_1">
   <path d="M 0 345.6 
L 460.8 345.6 
L 460.8 0 
L 0 0 
z
" style="fill:#ffffff;"/>
  </g>
  <g id="axes_1">
   <g id="patch_2">
    <path d="M 57.6 302.213149 
L 414.72 302.213149 
L 414.72 46.842851 
L 57.6 46.842851 
z
" style="fill:#ffffff;"/>
   </g>
   <g id="PatchCollection_1">
    <path clip-path="url(#p30d949fcaa)" d="M 142.739003 91.265419 
L 138.329522 91.877279 
L 138.076016 98.444289 
L 135.123101 101.404434 
L 124.590774 99.249386 
L 120.759914 110.97423 
L 118.042398 112.432137 
L 107.52516 115.04845 
L 112.303927 126.424723 
L 108.661551 128.129336 
L 109.085434 131.862599 
L 105.813167 130.901998 
L 103.150797 128.548298 
L 95.273157 127.863339 
L 86.470383 127.684316 
L 84.541098 128.405486 
L 76.980341 125.652114 
L 73.967068 127.008156 
L 73.832727 127.637103 
L 73.832727 58.834571 
L 77.893272 58.536709 
L 78.078692 58.450592 
L 94.665865 58.450592 
L 96.029837 59.469486 
L 107.893898 76.101228 
L 110.723077 72.672373 
L 118.036637 76.4454 
L 125.665982 74.762445 
L 128.597223 75.940818 
L 131.152318 79.725013 
L 134.864381 80.996112 
L 137.124542 83.775712 
L 143.963188 82.899377 
L 146.780296 86.905236 
L 142.739003 91.265419 
" style="fill:#808080;"/>
    <path clip-path="url(#p30d949fcaa)" d="M 391.9404 128.840522 
L 388.59245 128.925525 
L 385.257242 125.742352 
L 378.1313 130.534892 
L 377.303788 132.71387 
L 377.303782 132.713887 
L 377.303763 132.713938 
L 377.303722 132.713875 
L 376.560482 131.567899 
L 376.56048 131.56774 
L 376.527918 128.241014 
L 379.239946 128.06436 
L 380.003758 120.326761 
L 378.605513 114.718109 
L 383.162167 112.405063 
L 389.605701 113.564669 
L 393.176232 107.193758 
L 394.99571 100.019205 
L 397.058103 97.622542 
L 398.487273 94.604101 
L 398.487273 125.284681 
L 391.9404 128.840522 
" style="fill:#808080;"/>
    <path clip-path="url(#p30d949fcaa)" d="M 391.073553 93.660575 
L 386.47102 96.243955 
L 378.404137 96.236293 
L 376.254108 90.083323 
L 369.96555 85.427701 
L 360.72541 83.334248 
L 358.76132 76.919524 
L 356.912147 72.897929 
L 354.922503 70.07958 
L 351.641182 63.474837 
L 346.979018 61.063268 
L 339.032593 59.11333 
L 331.994135 59.290632 
L 325.396649 60.471543 
L 321.011312 63.729667 
L 323.924445 65.286053 
L 323.990336 68.90175 
L 321.037812 71.001032 
L 316.245295 77.946881 
L 316.293453 80.828595 
L 308.811711 84.966775 
L 302.438376 82.494291 
L 296.104 83.040159 
L 293.324205 80.845854 
L 290.140555 80.138222 
L 282.364154 84.753403 
L 275.374611 85.837864 
L 270.494331 87.460919 
L 263.807131 86.394563 
L 258.884052 86.462754 
L 255.661443 83.115288 
L 250.461811 79.967997 
L 245.140913 79.105369 
L 238.424777 79.961291 
L 233.407447 81.175136 
L 225.864973 78.420752 
L 224.852625 73.513412 
L 218.610499 71.830726 
L 213.791128 71.063532 
L 207.843596 68.356523 
L 202.34464 75.143504 
L 204.50027 78.99809 
L 199.339768 83.558348 
L 191.664117 81.911915 
L 186.36521 81.676333 
L 182.816664 78.617369 
L 177.277328 78.520752 
L 172.66103 76.511053 
L 164.585578 79.591337 
L 154.455185 85.231757 
L 148.857734 86.366812 
L 146.780296 86.905236 
L 143.963188 82.899377 
L 137.124542 83.775712 
L 134.864381 80.996112 
L 131.152318 79.725013 
L 128.597223 75.940818 
L 125.665982 74.762445 
L 118.036637 76.4454 
L 110.723077 72.672373 
L 107.893898 76.101228 
L 96.029837 59.469486 
L 94.665865 58.450592 
L 398.487273 58.450592 
L 398.487273 92.02946 
L 391.073553 93.660575 
" style="fill:#808080;"/>
    <path clip-path="url(#p30d949fcaa)" d="M 77.893272 58.536709 
L 73.832727 58.834571 
L 73.832727 58.450592 
L 78.078692 58.450592 
L 77.893272 58.536709 
" style="fill:#808080;"/>
    <path clip-path="url(#p30d949fcaa)" d="M 199.956354 288.408695 
L 202.196212 287.219154 
L 204.616872 280.139103 
L 208.364876 279.845863 
L 211.463475 277.006194 
L 214.50391 275.491772 
L 216.802206 277.512807 
L 217.107018 281.447936 
L 220.694522 281.747605 
L 219.38803 288.647787 
L 219.42984 290.605408 
L 200.937073 290.605408 
L 199.956354 288.408695 
" style="fill:#ffa500;"/>
    <path clip-path="url(#p30d949fcaa)" d="M 230.878415 289.298058 
L 234.893644 289.747817 
L 235.544702 290.605408 
L 230.264653 290.605408 
L 230.878415 289.298058 
" style="fill:#ffa500;"/>
    <path clip-path="url(#p30d949fcaa)" d="M 234.893644 289.747817 
L 230.878415 289.298058 
L 230.264653 290.605408 
L 219.42984 290.605408 
L 219.38803 288.647787 
L 220.694522 281.747605 
L 217.107018 281.447936 
L 216.802206 277.512807 
L 214.50391 275.491772 
L 215.635362 273.080033 
L 220.15294 268.82036 
L 220.630871 270.358811 
L 223.461148 270.537495 
L 222.658925 263.046773 
L 225.411284 262.087019 
L 228.514273 267.258052 
L 230.897895 273.208124 
L 237.434198 273.259395 
L 239.491883 278.970544 
L 236.09835 280.686156 
L 234.575389 283.040364 
L 240.936103 286.957895 
L 243.016062 290.605408 
L 235.544702 290.605408 
L 234.893644 289.747817 
" style="fill:#808080;"/>
    <path clip-path="url(#p30d949fcaa)" d="M 211.463475 277.006194 
L 208.364876 279.845863 
L 204.616872 280.139103 
L 202.196212 287.219154 
L 199.956354 288.408695 
L 200.937073 290.605408 
L 183.880196 290.605408 
L 183.757712 289.927517 
L 179.59625 282.376894 
L 180.245381 280.016257 
L 177.139649 279.17681 
L 173.371617 273.834706 
L 173.024829 268.565531 
L 174.877842 269.557267 
L 174.986488 264.860527 
L 177.606058 263.307017 
L 177.044173 260.526064 
L 178.244214 258.295886 
L 178.450532 251.51855 
L 182.599921 253.010468 
L 184.967356 247.611002 
L 185.235952 244.420055 
L 188.166095 238.926847 
L 188.004773 235.179202 
L 194.877988 230.653871 
L 198.672084 231.837997 
L 198.236678 227.808618 
L 200.097922 226.607063 
L 199.69736 224.124764 
L 202.802543 223.63778 
L 204.57709 227.493212 
L 206.894318 229.054505 
L 207.050427 234.066143 
L 206.836702 239.467809 
L 201.807721 244.936481 
L 201.171211 252.704876 
L 206.775246 251.618553 
L 208.041408 257.647138 
L 211.403391 258.91553 
L 209.857932 264.355776 
L 213.800456 266.814047 
L 216.099576 268.019663 
L 219.993812 266.113013 
L 220.15294 268.82036 
L 215.635362 273.080033 
L 214.50391 275.491772 
L 211.463475 277.006194 
" style="fill:#808080;"/>
    <path clip-path="url(#p30d949fcaa)" d="M 240.936103 286.957895 
L 234.575389 283.040364 
L 236.09835 280.686156 
L 239.491883 278.970544 
L 237.434198 273.259395 
L 230.897895 273.208124 
L 228.514273 267.258052 
L 225.411284 262.087019 
L 228.259943 260.488838 
L 232.494109 260.521833 
L 237.656428 259.766145 
L 242.181688 256.276205 
L 244.740899 258.733123 
L 249.594291 259.929094 
L 248.754756 263.701613 
L 251.28269 266.362428 
L 256.627732 268.061965 
L 249.53942 273.664651 
L 245.114849 279.851955 
L 243.948554 284.396068 
L 247.601173 290.605408 
L 243.016062 290.605408 
L 240.936103 286.957895 
" style="fill:#808080;"/>
    <path clip-path="url(#p30d949fcaa)" d="M 377.303788 132.71387 
L 377.303802 132.713891 
L 377.303782 132.713887 
L 377.303788 132.71387 
" style="fill:#808080;"/>
    <path clip-path="url(#p30d949fcaa)" d="M 376.560482 131.567899 
L 377.303722 132.713875 
L 375.286448 132.320987 
L 372.981841 134.538643 
L 371.396601 136.766959 
L 371.597431 141.470805 
L 368.852205 142.918221 
L 367.908688 144.073243 
L 365.906973 146.008996 
L 362.371322 147.085844 
L 360.067264 148.844604 
L 359.901003 151.679704 
L 359.281502 152.403074 
L 361.394059 153.467738 
L 364.401022 156.340403 
L 363.636661 157.924201 
L 361.3765 158.355515 
L 357.62438 158.672613 
L 355.555996 161.62836 
L 353.186092 161.395189 
L 352.853844 161.989114 
L 350.275428 160.742719 
L 349.634803 161.973377 
L 348.078644 162.517046 
L 347.891532 161.284865 
L 346.516176 160.685018 
L 345.088691 159.640321 
L 346.542514 156.758011 
L 347.795232 155.989294 
L 347.322239 154.792815 
L 348.669337 151.260404 
L 348.321725 150.190156 
L 345.223127 149.4766 
L 342.717964 147.720547 
L 347.041297 143.520606 
L 352.892529 140.000547 
L 356.540118 135.355923 
L 359.06037 137.408431 
L 363.650927 137.646677 
L 362.821543 134.192102 
L 371.021279 131.371554 
L 373.132189 127.701575 
L 376.56048 131.56774 
L 376.560482 131.567899 
" style="fill:#808080;"/>
    <path clip-path="url(#p30d949fcaa)" d="M 353.186092 161.395189 
L 355.555996 161.62836 
L 357.62438 158.672613 
L 361.3765 158.355515 
L 363.636661 157.924201 
L 364.401022 156.340403 
L 368.983897 164.067003 
L 370.298072 168.311954 
L 370.339774 175.856485 
L 368.338607 179.456072 
L 363.531033 180.714143 
L 359.287264 183.42995 
L 354.504931 183.99071 
L 353.91122 180.424795 
L 354.895068 175.513328 
L 352.549307 168.696397 
L 356.492654 167.593322 
L 352.853844 161.989114 
L 353.186092 161.395189 
" style="fill:#808080;"/>
    <path clip-path="url(#p30d949fcaa)" d="M 154.455185 85.231757 
L 164.585578 79.591337 
L 172.66103 76.511053 
L 177.277328 78.520752 
L 182.816664 78.617369 
L 186.36521 81.676333 
L 191.664117 81.911915 
L 199.339768 83.558348 
L 204.50027 78.99809 
L 202.34464 75.143504 
L 207.843596 68.356523 
L 213.791128 71.063532 
L 218.610499 71.830726 
L 224.852625 73.513412 
L 225.864973 78.420752 
L 233.407447 81.175136 
L 238.424777 79.961291 
L 245.140913 79.105369 
L 250.461811 79.967997 
L 255.661443 83.115288 
L 258.884052 86.462754 
L 263.807131 86.394563 
L 270.494331 87.460919 
L 275.374611 85.837864 
L 282.364154 84.753403 
L 290.140555 80.138222 
L 293.324205 80.845854 
L 296.104 83.040159 
L 302.438376 82.494291 
L 299.852827 87.431646 
L 296.101805 93.975304 
L 297.469205 96.652702 
L 300.474796 95.821884 
L 305.712564 96.841539 
L 309.793364 94.424893 
L 314.053594 96.518349 
L 318.86501 101.095966 
L 318.283371 103.42327 
L 314.094748 102.68501 
L 306.382546 103.553899 
L 302.645791 105.417231 
L 298.755395 109.745771 
L 290.660189 112.282894 
L 285.370019 115.759805 
L 279.91304 114.43202 
L 276.925282 113.839788 
L 274.138354 118.061389 
L 275.833886 120.577868 
L 276.693175 122.739346 
L 272.977271 124.941604 
L 269.167536 128.449142 
L 262.963754 130.752925 
L 255.006276 131.001324 
L 246.429573 133.274988 
L 240.248014 136.791156 
L 237.897589 134.754892 
L 231.473498 134.760645 
L 223.620001 130.782875 
L 218.378941 129.807553 
L 211.317516 130.718576 
L 200.359111 129.250347 
L 194.506507 129.402636 
L 191.39035 125.51387 
L 188.97161 119.476654 
L 185.690838 118.749732 
L 179.276349 114.668913 
L 172.125758 113.754676 
L 165.816622 112.634849 
L 163.906542 109.795011 
L 165.950783 102.143202 
L 162.287556 96.868782 
L 154.713905 94.409495 
L 150.251747 90.936138 
L 148.857734 86.366812 
L 154.455185 85.231757 
" style="fill:#ffa500;"/>
    <path clip-path="url(#p30d949fcaa)" d="M 200.097922 226.607063 
L 198.236678 227.808618 
L 198.672084 231.837997 
L 194.877988 230.653871 
L 188.004773 235.179202 
L 188.166095 238.926847 
L 185.235952 244.420055 
L 184.967356 247.611002 
L 182.599921 253.010468 
L 178.450532 251.51855 
L 178.244214 258.295886 
L 177.044173 260.526064 
L 177.606058 263.307017 
L 174.986488 264.860527 
L 172.190232 254.472435 
L 170.724337 254.493079 
L 169.856543 258.678299 
L 166.949721 255.284301 
L 168.589009 251.557299 
L 170.964126 251.178947 
L 173.412222 245.636838 
L 170.350936 244.518704 
L 165.427308 244.61583 
L 160.375555 243.717667 
L 159.907226 239.164078 
L 157.372708 238.841058 
L 153.167623 236.011203 
L 151.292112 240.454299 
L 155.12407 243.921057 
L 151.804887 246.361223 
L 150.62652 248.747749 
L 153.894398 250.502449 
L 152.990937 254.448577 
L 154.830781 259.373241 
L 155.657147 264.765769 
L 154.896902 267.156865 
L 151.285253 267.07446 
L 144.74017 268.434056 
L 145.045256 273.360413 
L 142.211139 277.235134 
L 134.570818 281.642865 
L 128.6285 289.347975 
L 127.413544 290.605408 
L 73.832727 290.605408 
L 73.832727 211.748259 
L 78.087375 206.323617 
L 78.005342 201.655474 
L 82.532523 197.867218 
L 78.247601 194.633461 
L 76.403915 190.202718 
L 74.522643 184.464495 
L 77.125477 181.640732 
L 85.178705 183.238406 
L 91.096606 182.265114 
L 96.223808 176.761077 
L 101.930179 184.436745 
L 101.392986 189.778849 
L 103.504993 193.130545 
L 103.33105 196.474457 
L 99.520767 195.5944 
L 101.009708 202.812865 
L 106.225801 206.959506 
L 113.604933 211.538645 
L 110.236091 214.509282 
L 108.174566 220.634994 
L 113.317954 223.112893 
L 118.323341 226.325838 
L 125.247861 229.999539 
L 132.52548 230.848292 
L 135.587589 234.179683 
L 139.689515 234.803219 
L 146.076842 236.329655 
L 150.49812 236.220177 
L 151.106372 233.62823 
L 150.407308 229.467037 
L 150.817748 226.64632 
L 154.05572 225.268957 
L 154.501277 230.426453 
L 154.614862 231.738502 
L 159.440269 234.224185 
L 162.778382 233.200469 
L 167.260568 233.639736 
L 171.59268 233.445484 
L 171.965533 229.422535 
L 169.804415 227.332632 
L 174.086045 226.513152 
L 178.918586 221.642465 
L 185.03814 217.472135 
L 189.491518 219.081315 
L 193.276286 216.323712 
L 195.76581 220.395901 
L 193.972607 223.146058 
L 199.69736 224.124764 
L 200.097922 226.607063 
" style="fill:#ff0000;"/>
    <path clip-path="url(#p30d949fcaa)" d="M 174.877842 269.557267 
L 173.024829 268.565531 
L 173.371617 273.834706 
L 171.854966 270.420741 
L 171.548783 267.084951 
L 170.538323 263.932583 
L 168.320139 260.120638 
L 163.429982 259.858703 
L 163.912852 262.558266 
L 162.245854 266.202186 
L 159.98679 264.874233 
L 159.214747 266.066311 
L 157.711265 265.352079 
L 155.657147 264.765769 
L 154.830781 259.373241 
L 152.990937 254.448577 
L 153.894398 250.502449 
L 150.62652 248.747749 
L 151.804887 246.361223 
L 155.12407 243.921057 
L 151.292112 240.454299 
L 153.167623 236.011203 
L 157.372708 238.841058 
L 159.907226 239.164078 
L 160.375555 243.717667 
L 165.427308 244.61583 
L 170.350936 244.518704 
L 173.412222 245.636838 
L 170.964126 251.178947 
L 168.589009 251.557299 
L 166.949721 255.284301 
L 169.856543 258.678299 
L 170.724337 254.493079 
L 172.190232 254.472435 
L 174.986488 264.860527 
L 174.877842 269.557267 
" style="fill:#ffa500;"/>
    <path clip-path="url(#p30d949fcaa)" d="M 171.965533 229.422535 
L 171.59268 233.445484 
L 167.260568 233.639736 
L 162.778382 233.200469 
L 159.440269 234.224185 
L 154.614862 231.738502 
L 154.501277 230.426453 
L 158.013608 225.557797 
L 160.880648 223.896501 
L 164.675019 225.412446 
L 167.480055 225.571841 
L 169.804415 227.332632 
L 171.965533 229.422535 
" style="fill:#808080;"/>
    <path clip-path="url(#p30d949fcaa)" d="M 150.407308 229.467037 
L 151.106372 233.62823 
L 150.49812 236.220177 
L 146.076842 236.329655 
L 139.689515 234.803219 
L 135.587589 234.179683 
L 132.52548 230.848292 
L 125.247861 229.999539 
L 118.323341 226.325838 
L 113.317954 223.112893 
L 108.174566 220.634994 
L 110.236091 214.509282 
L 113.604933 211.538645 
L 115.805832 209.971937 
L 120.062221 211.985357 
L 125.422353 216.252137 
L 128.405447 217.191925 
L 130.187127 220.337524 
L 134.312648 221.628421 
L 138.621988 224.504639 
L 144.627683 226.006371 
L 150.817748 226.64632 
L 150.407308 229.467037 
" style="fill:#808080;"/>
    <path clip-path="url(#p30d949fcaa)" d="M 91.096606 182.265114 
L 85.178705 183.238406 
L 77.125477 181.640732 
L 74.522643 184.464495 
L 76.403915 190.202718 
L 78.247601 194.633461 
L 82.532523 197.867218 
L 78.005342 201.655474 
L 78.087375 206.323617 
L 73.832727 211.748259 
L 73.832727 168.268214 
L 76.208847 167.971505 
L 78.907706 166.762167 
L 81.998348 166.02746 
L 85.921118 169.080671 
L 87.492366 174.112784 
L 96.223808 176.761077 
L 91.096606 182.265114 
" style="fill:#ffa500;"/>
    <path clip-path="url(#p30d949fcaa)" d="M 75.577823 164.137901 
L 81.053185 164.148223 
L 81.998348 166.02746 
L 78.907706 166.762167 
L 76.208847 167.971505 
L 73.832727 168.268214 
L 73.832727 163.907558 
L 75.577823 164.137901 
" style="fill:#808080;"/>
    <path clip-path="url(#p30d949fcaa)" d="M 74.126744 150.976978 
L 75.47247 157.037375 
L 77.217386 156.377967 
L 80.441641 157.868869 
L 80.256724 160.415299 
L 81.053185 164.148223 
L 75.577823 164.137901 
L 73.832727 163.907558 
L 73.832727 151.006091 
L 74.126744 150.976978 
" style="fill:#808080;"/>
    <path clip-path="url(#p30d949fcaa)" d="M 73.967068 127.008156 
L 76.980341 125.652114 
L 84.541098 128.405486 
L 86.470383 127.684316 
L 95.273157 127.863339 
L 103.150797 128.548298 
L 105.813167 130.901998 
L 109.085434 131.862599 
L 108.33918 133.34301 
L 99.973184 136.890481 
L 98.080662 139.489873 
L 91.270549 140.268066 
L 89.263072 144.449733 
L 83.643124 143.571368 
L 79.974684 144.852621 
L 74.906469 147.946611 
L 75.637908 149.4788 
L 74.126744 150.976978 
L 73.832727 151.006091 
L 73.832727 127.637103 
L 73.967068 127.008156 
" style="fill:#808080;"/>
    <path clip-path="url(#p30d949fcaa)" d="M 259.839915 288.00107 
L 259.686 282.367757 
L 262.302552 279.400166 
L 268.103028 277.565092 
L 271.155534 277.720426 
L 272.342132 280.219477 
L 270.009267 283.101279 
L 268.780417 286.883105 
L 264.193427 290.031073 
L 259.839915 288.00107 
" style="fill:#ff0000;"/>
    <path clip-path="url(#p30d949fcaa)" d="M 108.661551 128.129336 
L 112.303927 126.424723 
L 107.52516 115.04845 
L 118.042398 112.432137 
L 120.759914 110.97423 
L 124.590774 99.249386 
L 135.123101 101.404434 
L 138.076016 98.444289 
L 138.329522 91.877279 
L 142.739003 91.265419 
L 146.780296 86.905236 
L 148.857734 86.366812 
L 150.251747 90.936138 
L 154.713905 94.409495 
L 162.287556 96.868782 
L 165.950783 102.143202 
L 163.906542 109.795011 
L 165.816622 112.634849 
L 172.125758 113.754676 
L 179.276349 114.668913 
L 185.690838 118.749732 
L 188.97161 119.476654 
L 191.39035 125.51387 
L 194.506507 129.402636 
L 200.359111 129.250347 
L 211.317516 130.718576 
L 218.378941 129.807553 
L 223.620001 130.782875 
L 231.473498 134.760645 
L 237.897589 134.754892 
L 240.248014 136.791156 
L 246.429573 133.274988 
L 255.006276 131.001324 
L 262.963754 130.752925 
L 269.167536 128.449142 
L 272.977271 124.941604 
L 276.693175 122.739346 
L 275.833886 120.577868 
L 274.138354 118.061389 
L 276.925282 113.839788 
L 279.91304 114.43202 
L 285.370019 115.759805 
L 290.660189 112.282894 
L 298.755395 109.745771 
L 302.645791 105.417231 
L 306.382546 103.553899 
L 314.094748 102.68501 
L 318.283371 103.42327 
L 318.86501 101.095966 
L 314.053594 96.518349 
L 309.793364 94.424893 
L 305.712564 96.841539 
L 300.474796 95.821884 
L 297.469205 96.652702 
L 296.101805 93.975304 
L 299.852827 87.431646 
L 302.438376 82.494291 
L 308.811711 84.966775 
L 316.293453 80.828595 
L 316.245295 77.946881 
L 321.037812 71.001032 
L 323.990336 68.90175 
L 323.924445 65.286053 
L 321.011312 63.729667 
L 325.396649 60.471543 
L 331.994135 59.290632 
L 339.032593 59.11333 
L 346.979018 61.063268 
L 351.641182 63.474837 
L 354.922503 70.07958 
L 356.912147 72.897929 
L 358.76132 76.919524 
L 360.72541 83.334248 
L 369.96555 85.427701 
L 376.254108 90.083323 
L 378.404137 96.236293 
L 386.47102 96.243955 
L 391.073553 93.660575 
L 398.487273 92.02946 
L 398.487273 94.604101 
L 397.058103 97.622542 
L 394.99571 100.019205 
L 393.176232 107.193758 
L 389.605701 113.564669 
L 383.162167 112.405063 
L 378.605513 114.718109 
L 380.003758 120.326761 
L 379.239946 128.06436 
L 376.527918 128.241014 
L 376.56048 131.56774 
L 373.132189 127.701575 
L 371.021279 131.371554 
L 362.821543 134.192102 
L 363.650927 137.646677 
L 359.06037 137.408431 
L 356.540118 135.355923 
L 352.892529 140.000547 
L 347.041297 143.520606 
L 342.717964 147.720547 
L 335.295484 149.62432 
L 331.386981 152.684807 
L 325.66991 154.472502 
L 328.491407 151.437904 
L 327.380532 148.887752 
L 331.584519 144.485775 
L 328.780032 141.054551 
L 324.151887 143.366287 
L 318.157715 147.919876 
L 314.886545 152.148583 
L 309.67978 152.463312 
L 306.971867 155.51923 
L 309.769769 159.947266 
L 314.115051 161.022252 
L 314.292835 163.961754 
L 318.493255 165.874495 
L 324.442981 161.198399 
L 329.156451 163.747874 
L 332.589766 163.922329 
L 333.450153 167.353045 
L 325.933294 169.182028 
L 323.453098 172.717654 
L 318.29023 176.002851 
L 315.564758 180.586559 
L 321.279085 184.1853 
L 323.364754 190.626756 
L 326.596142 196.628099 
L 330.201755 201.65852 
L 330.115606 206.523115 
L 326.783255 208.311487 
L 328.053532 211.804304 
L 331.178469 213.837014 
L 330.362528 219.170995 
L 329.014059 224.36098 
L 326.047427 224.949321 
L 322.170749 232.038171 
L 317.870462 240.632983 
L 312.94025 248.448249 
L 305.638762 254.492063 
L 298.254417 260.003715 
L 292.271494 260.755511 
L 289.026113 263.665233 
L 287.190384 261.539627 
L 284.186988 264.794197 
L 276.767526 268.074317 
L 271.149773 269.078574 
L 269.33709 275.994831 
L 266.394875 276.378428 
L 265.002783 271.625511 
L 266.260165 269.09228 
L 259.13701 266.995608 
L 256.627732 268.061965 
L 251.28269 266.362428 
L 248.754756 263.701613 
L 249.594291 259.929094 
L 244.740899 258.733123 
L 242.181688 256.276205 
L 237.656428 259.766145 
L 232.494109 260.521833 
L 228.259943 260.488838 
L 225.411284 262.087019 
L 222.658925 263.046773 
L 223.461148 270.537495 
L 220.630871 270.358811 
L 220.15294 268.82036 
L 219.993812 266.113013 
L 216.099576 268.019663 
L 213.800456 266.814047 
L 209.857932 264.355776 
L 211.403391 258.91553 
L 208.041408 257.647138 
L 206.775246 251.618553 
L 201.171211 252.704876 
L 201.807721 244.936481 
L 206.836702 239.467809 
L 207.050427 234.066143 
L 206.894318 229.054505 
L 204.57709 227.493212 
L 202.802543 223.63778 
L 199.69736 224.124764 
L 193.972607 223.146058 
L 195.76581 220.395901 
L 193.276286 216.323712 
L 189.491518 219.081315 
L 185.03814 217.472135 
L 178.918586 221.642465 
L 174.086045 226.513152 
L 169.804415 227.332632 
L 167.480055 225.571841 
L 164.675019 225.412446 
L 160.880648 223.896501 
L 158.013608 225.557797 
L 154.501277 230.426453 
L 154.05572 225.268957 
L 150.817748 226.64632 
L 144.627683 226.006371 
L 138.621988 224.504639 
L 134.312648 221.628421 
L 130.187127 220.337524 
L 128.405447 217.191925 
L 125.422353 216.252137 
L 120.062221 211.985357 
L 115.805832 209.971937 
L 113.604933 211.538645 
L 106.225801 206.959506 
L 101.009708 202.812865 
L 99.520767 195.5944 
L 103.33105 196.474457 
L 103.504993 193.130545 
L 101.392986 189.778849 
L 101.930179 184.436745 
L 96.223808 176.761077 
L 87.492366 174.112784 
L 85.921118 169.080671 
L 81.998348 166.02746 
L 81.053185 164.148223 
L 80.256724 160.415299 
L 80.441641 157.868869 
L 77.217386 156.377967 
L 75.47247 157.037375 
L 74.126744 150.976978 
L 75.637908 149.4788 
L 74.906469 147.946611 
L 79.974684 144.852621 
L 83.643124 143.571368 
L 89.263072 144.449733 
L 91.270549 140.268066 
L 98.080662 139.489873 
L 99.973184 136.890481 
L 108.33918 133.34301 
L 109.085434 131.862599 
L 108.661551 128.129336 
" style="fill:#ff0000;"/>
    <path clip-path="url(#p30d949fcaa)" d="M 326.312731 259.951429 
L 324.03748 265.323314 
L 321.239578 259.794234 
L 320.634893 254.938945 
L 323.759281 248.506795 
L 328.008537 243.549304 
L 330.430569 245.499948 
L 329.509824 249.450983 
L 326.312731 259.951429 
" style="fill:#808080;"/>
    <path clip-path="url(#p30d949fcaa)" d="M 332.239058 290.605408 
L 323.117282 290.605408 
L 323.871768 288.017145 
L 327.086146 288.024759 
L 330.358139 289.894521 
L 331.995507 288.189231 
L 332.478377 289.853065 
L 332.239058 290.605408 
" style="fill:#ffa500;"/>
    <path clip-path="url(#p30d949fcaa)" d="M 390.896866 184.083098 
L 384.613246 187.167612 
L 378.398216 187.293166 
L 383.781119 192.111567 
L 380.238609 203.242149 
L 376.806391 205.99772 
L 374.237303 203.452476 
L 375.539406 197.550459 
L 372.178795 195.64584 
L 370.022067 191.155027 
L 375.041721 189.137377 
L 377.826454 185.020855 
L 383.166282 181.635318 
L 387.060245 177.158042 
L 397.628787 175.205029 
L 398.487273 175.407543 
L 398.487273 182.895441 
L 390.896866 184.083098 
" style="fill:#ffa500;"/>
    <path clip-path="url(#p30d949fcaa)" d="M 388.688559 186.150158 
L 391.70732 186.907707 
L 393.890112 184.155181 
L 397.788738 185.567739 
L 398.468048 187.813315 
L 395.479193 191.776364 
L 393.299968 189.675462 
L 390.578062 191.197499 
L 389.16896 195.028565 
L 385.708758 193.163371 
L 385.751557 190.057536 
L 388.688559 186.150158 
" style="fill:#ffa500;"/>
   </g>
   <g id="matplotlib.axis_1">
    <g id="xtick_1">
     <g id="line2d_1">
      <defs>
       <path d="M 0 0 
L 0 3.5 
" id="m492b653bd8" style="stroke:#000000;stroke-width:0.8;"/>
      </defs>
      <g>
       <use style="stroke:#000000;stroke-width:0.8;" x="107.705107" xlink:href="#m492b653bd8" y="302.213149"/>
      </g>
     </g>
     <g id="text_1">
      <!-- 80 -->
      <g transform="translate(101.342607 316.811586)scale(0.1 -0.1)">
       <defs>
        <path d="M 2034 2216 
Q 1584 2216 1326 1975 
Q 1069 1734 1069 1313 
Q 1069 891 1326 650 
Q 1584 409 2034 409 
Q 2484 409 2743 651 
Q 3003 894 3003 1313 
Q 3003 1734 2745 1975 
Q 2488 2216 2034 2216 
z
M 1403 2484 
Q 997 2584 770 2862 
Q 544 3141 544 3541 
Q 544 4100 942 4425 
Q 1341 4750 2034 4750 
Q 2731 4750 3128 4425 
Q 3525 4100 3525 3541 
Q 3525 3141 3298 2862 
Q 3072 2584 2669 2484 
Q 3125 2378 3379 2068 
Q 3634 1759 3634 1313 
Q 3634 634 3220 271 
Q 2806 -91 2034 -91 
Q 1263 -91 848 271 
Q 434 634 434 1313 
Q 434 1759 690 2068 
Q 947 2378 1403 2484 
z
M 1172 3481 
Q 1172 3119 1398 2916 
Q 1625 2713 2034 2713 
Q 2441 2713 2670 2916 
Q 2900 3119 2900 3481 
Q 2900 3844 2670 4047 
Q 2441 4250 2034 4250 
Q 1625 4250 1398 4047 
Q 1172 3844 1172 3481 
z
" id="DejaVuSans-38" transform="scale(0.015625)"/>
        <path d="M 2034 4250 
Q 1547 4250 1301 3770 
Q 1056 3291 1056 2328 
Q 1056 1369 1301 889 
Q 1547 409 2034 409 
Q 2525 409 2770 889 
Q 3016 1369 3016 2328 
Q 3016 3291 2770 3770 
Q 2525 4250 2034 4250 
z
M 2034 4750 
Q 2819 4750 3233 4129 
Q 3647 3509 3647 2328 
Q 3647 1150 3233 529 
Q 2819 -91 2034 -91 
Q 1250 -91 836 529 
Q 422 1150 422 2328 
Q 422 3509 836 4129 
Q 1250 4750 2034 4750 
z
" id="DejaVuSans-30" transform="scale(0.015625)"/>
       </defs>
       <use xlink:href="#DejaVuSans-38"/>
       <use x="63.623047" xlink:href="#DejaVuSans-30"/>
      </g>
     </g>
    </g>
    <g id="xtick_2">
     <g id="line2d_2">
      <g>
       <use style="stroke:#000000;stroke-width:0.8;" x="160.79661" xlink:href="#m492b653bd8" y="302.213149"/>
      </g>
     </g>
     <g id="text_2">
      <!-- 90 -->
      <g transform="translate(154.43411 316.811586)scale(0.1 -0.1)">
       <defs>
        <path d="M 703 97 
L 703 672 
Q 941 559 1184 500 
Q 1428 441 1663 441 
Q 2288 441 2617 861 
Q 2947 1281 2994 2138 
Q 2813 1869 2534 1725 
Q 2256 1581 1919 1581 
Q 1219 1581 811 2004 
Q 403 2428 403 3163 
Q 403 3881 828 4315 
Q 1253 4750 1959 4750 
Q 2769 4750 3195 4129 
Q 3622 3509 3622 2328 
Q 3622 1225 3098 567 
Q 2575 -91 1691 -91 
Q 1453 -91 1209 -44 
Q 966 3 703 97 
z
M 1959 2075 
Q 2384 2075 2632 2365 
Q 2881 2656 2881 3163 
Q 2881 3666 2632 3958 
Q 2384 4250 1959 4250 
Q 1534 4250 1286 3958 
Q 1038 3666 1038 3163 
Q 1038 2656 1286 2365 
Q 1534 2075 1959 2075 
z
" id="DejaVuSans-39" transform="scale(0.015625)"/>
       </defs>
       <use xlink:href="#DejaVuSans-39"/>
       <use x="63.623047" xlink:href="#DejaVuSans-30"/>
      </g>
     </g>
    </g>
    <g id="xtick_3">
     <g id="line2d_3">
      <g>
       <use style="stroke:#000000;stroke-width:0.8;" x="213.888114" xlink:href="#m492b653bd8" y="302.213149"/>
      </g>
     </g>
     <g id="text_3">
      <!-- 100 -->
      <g transform="translate(204.344364 316.811586)scale(0.1 -0.1)">
       <defs>
        <path d="M 794 531 
L 1825 531 
L 1825 4091 
L 703 3866 
L 703 4441 
L 1819 4666 
L 2450 4666 
L 2450 531 
L 3481 531 
L 3481 0 
L 794 0 
L 794 531 
z
" id="DejaVuSans-31" transform="scale(0.015625)"/>
       </defs>
       <use xlink:href="#DejaVuSans-31"/>
       <use x="63.623047" xlink:href="#DejaVuSans-30"/>
       <use x="127.246094" xlink:href="#DejaVuSans-30"/>
      </g>
     </g>
    </g>
    <g id="xtick_4">
     <g id="line2d_4">
      <g>
       <use style="stroke:#000000;stroke-width:0.8;" x="266.979618" xlink:href="#m492b653bd8" y="302.213149"/>
      </g>
     </g>
     <g id="text_4">
      <!-- 110 -->
      <g transform="translate(257.435868 316.811586)scale(0.1 -0.1)">
       <use xlink:href="#DejaVuSans-31"/>
       <use x="63.623047" xlink:href="#DejaVuSans-31"/>
       <use x="127.246094" xlink:href="#DejaVuSans-30"/>
      </g>
     </g>
    </g>
    <g id="xtick_5">
     <g id="line2d_5">
      <g>
       <use style="stroke:#000000;stroke-width:0.8;" x="320.071122" xlink:href="#m492b653bd8" y="302.213149"/>
      </g>
     </g>
     <g id="text_5">
      <!-- 120 -->
      <g transform="translate(310.527372 316.811586)scale(0.1 -0.1)">
       <defs>
        <path d="M 1228 531 
L 3431 531 
L 3431 0 
L 469 0 
L 469 531 
Q 828 903 1448 1529 
Q 2069 2156 2228 2338 
Q 2531 2678 2651 2914 
Q 2772 3150 2772 3378 
Q 2772 3750 2511 3984 
Q 2250 4219 1831 4219 
Q 1534 4219 1204 4116 
Q 875 4013 500 3803 
L 500 4441 
Q 881 4594 1212 4672 
Q 1544 4750 1819 4750 
Q 2544 4750 2975 4387 
Q 3406 4025 3406 3419 
Q 3406 3131 3298 2873 
Q 3191 2616 2906 2266 
Q 2828 2175 2409 1742 
Q 1991 1309 1228 531 
z
" id="DejaVuSans-32" transform="scale(0.015625)"/>
       </defs>
       <use xlink:href="#DejaVuSans-31"/>
       <use x="63.623047" xlink:href="#DejaVuSans-32"/>
       <use x="127.246094" xlink:href="#DejaVuSans-30"/>
      </g>
     </g>
    </g>
    <g id="xtick_6">
     <g id="line2d_6">
      <g>
       <use style="stroke:#000000;stroke-width:0.8;" x="373.162625" xlink:href="#m492b653bd8" y="302.213149"/>
      </g>
     </g>
     <g id="text_6">
      <!-- 130 -->
      <g transform="translate(363.618875 316.811586)scale(0.1 -0.1)">
       <defs>
        <path d="M 2597 2516 
Q 3050 2419 3304 2112 
Q 3559 1806 3559 1356 
Q 3559 666 3084 287 
Q 2609 -91 1734 -91 
Q 1441 -91 1130 -33 
Q 819 25 488 141 
L 488 750 
Q 750 597 1062 519 
Q 1375 441 1716 441 
Q 2309 441 2620 675 
Q 2931 909 2931 1356 
Q 2931 1769 2642 2001 
Q 2353 2234 1838 2234 
L 1294 2234 
L 1294 2753 
L 1863 2753 
Q 2328 2753 2575 2939 
Q 2822 3125 2822 3475 
Q 2822 3834 2567 4026 
Q 2313 4219 1838 4219 
Q 1578 4219 1281 4162 
Q 984 4106 628 3988 
L 628 4550 
Q 988 4650 1302 4700 
Q 1616 4750 1894 4750 
Q 2613 4750 3031 4423 
Q 3450 4097 3450 3541 
Q 3450 3153 3228 2886 
Q 3006 2619 2597 2516 
z
" id="DejaVuSans-33" transform="scale(0.015625)"/>
       </defs>
       <use xlink:href="#DejaVuSans-31"/>
       <use x="63.623047" xlink:href="#DejaVuSans-33"/>
       <use x="127.246094" xlink:href="#DejaVuSans-30"/>
      </g>
     </g>
    </g>
   </g>
   <g id="matplotlib.axis_2">
    <g id="ytick_1">
     <g id="line2d_7">
      <defs>
       <path d="M 0 0 
L -3.5 0 
" id="mebd054f5b5" style="stroke:#000000;stroke-width:0.8;"/>
      </defs>
      <g>
       <use style="stroke:#000000;stroke-width:0.8;" x="57.6" xlink:href="#mebd054f5b5" y="278.228184"/>
      </g>
     </g>
     <g id="text_7">
      <!-- 20 -->
      <g transform="translate(37.875 282.027403)scale(0.1 -0.1)">
       <use xlink:href="#DejaVuSans-32"/>
       <use x="63.623047" xlink:href="#DejaVuSans-30"/>
      </g>
     </g>
    </g>
    <g id="ytick_2">
     <g id="line2d_8">
      <g>
       <use style="stroke:#000000;stroke-width:0.8;" x="57.6" xlink:href="#mebd054f5b5" y="245.484204"/>
      </g>
     </g>
     <g id="text_8">
      <!-- 25 -->
      <g transform="translate(37.875 249.283423)scale(0.1 -0.1)">
       <defs>
        <path d="M 691 4666 
L 3169 4666 
L 3169 4134 
L 1269 4134 
L 1269 2991 
Q 1406 3038 1543 3061 
Q 1681 3084 1819 3084 
Q 2600 3084 3056 2656 
Q 3513 2228 3513 1497 
Q 3513 744 3044 326 
Q 2575 -91 1722 -91 
Q 1428 -91 1123 -41 
Q 819 9 494 109 
L 494 744 
Q 775 591 1075 516 
Q 1375 441 1709 441 
Q 2250 441 2565 725 
Q 2881 1009 2881 1497 
Q 2881 1984 2565 2268 
Q 2250 2553 1709 2553 
Q 1456 2553 1204 2497 
Q 953 2441 691 2322 
L 691 4666 
z
" id="DejaVuSans-35" transform="scale(0.015625)"/>
       </defs>
       <use xlink:href="#DejaVuSans-32"/>
       <use x="63.623047" xlink:href="#DejaVuSans-35"/>
      </g>
     </g>
    </g>
    <g id="ytick_3">
     <g id="line2d_9">
      <g>
       <use style="stroke:#000000;stroke-width:0.8;" x="57.6" xlink:href="#mebd054f5b5" y="212.740224"/>
      </g>
     </g>
     <g id="text_9">
      <!-- 30 -->
      <g transform="translate(37.875 216.539443)scale(0.1 -0.1)">
       <use xlink:href="#DejaVuSans-33"/>
       <use x="63.623047" xlink:href="#DejaVuSans-30"/>
      </g>
     </g>
    </g>
    <g id="ytick_4">
     <g id="line2d_10">
      <g>
       <use style="stroke:#000000;stroke-width:0.8;" x="57.6" xlink:href="#mebd054f5b5" y="179.996245"/>
      </g>
     </g>
     <g id="text_10">
      <!-- 35 -->
      <g transform="translate(37.875 183.795463)scale(0.1 -0.1)">
       <use xlink:href="#DejaVuSans-33"/>
       <use x="63.623047" xlink:href="#DejaVuSans-35"/>
      </g>
     </g>
    </g>
    <g id="ytick_5">
     <g id="line2d_11">
      <g>
       <use style="stroke:#000000;stroke-width:0.8;" x="57.6" xlink:href="#mebd054f5b5" y="147.252265"/>
      </g>
     </g>
     <g id="text_11">
      <!-- 40 -->
      <g transform="translate(37.875 151.051484)scale(0.1 -0.1)">
       <defs>
        <path d="M 2419 4116 
L 825 1625 
L 2419 1625 
L 2419 4116 
z
M 2253 4666 
L 3047 4666 
L 3047 1625 
L 3713 1625 
L 3713 1100 
L 3047 1100 
L 3047 0 
L 2419 0 
L 2419 1100 
L 313 1100 
L 313 1709 
L 2253 4666 
z
" id="DejaVuSans-34" transform="scale(0.015625)"/>
       </defs>
       <use xlink:href="#DejaVuSans-34"/>
       <use x="63.623047" xlink:href="#DejaVuSans-30"/>
      </g>
     </g>
    </g>
    <g id="ytick_6">
     <g id="line2d_12">
      <g>
       <use style="stroke:#000000;stroke-width:0.8;" x="57.6" xlink:href="#mebd054f5b5" y="114.508285"/>
      </g>
     </g>
     <g id="text_12">
      <!-- 45 -->
      <g transform="translate(37.875 118.307504)scale(0.1 -0.1)">
       <use xlink:href="#DejaVuSans-34"/>
       <use x="63.623047" xlink:href="#DejaVuSans-35"/>
      </g>
     </g>
    </g>
    <g id="ytick_7">
     <g id="line2d_13">
      <g>
       <use style="stroke:#000000;stroke-width:0.8;" x="57.6" xlink:href="#mebd054f5b5" y="81.764305"/>
      </g>
     </g>
     <g id="text_13">
      <!-- 50 -->
      <g transform="translate(37.875 85.563524)scale(0.1 -0.1)">
       <use xlink:href="#DejaVuSans-35"/>
       <use x="63.623047" xlink:href="#DejaVuSans-30"/>
      </g>
     </g>
    </g>
    <g id="ytick_8">
     <g id="line2d_14">
      <g>
       <use style="stroke:#000000;stroke-width:0.8;" x="57.6" xlink:href="#mebd054f5b5" y="49.020326"/>
      </g>
     </g>
     <g id="text_14">
      <!-- 55 -->
      <g transform="translate(37.875 52.819544)scale(0.1 -0.1)">
       <use xlink:href="#DejaVuSans-35"/>
       <use x="63.623047" xlink:href="#DejaVuSans-35"/>
      </g>
     </g>
    </g>
   </g>
   <g id="patch_3">
    <path d="M 57.6 302.213149 
L 57.6 46.842851 
" style="fill:none;stroke:#000000;stroke-linecap:square;stroke-linejoin:miter;stroke-width:0.8;"/>
   </g>
   <g id="patch_4">
    <path d="M 414.72 302.213149 
L 414.72 46.842851 
" style="fill:none;stroke:#000000;stroke-linecap:square;stroke-linejoin:miter;stroke-width:0.8;"/>
   </g>
   <g id="patch_5">
    <path d="M 57.6 302.213149 
L 414.72 302.213149 
" style="fill:none;stroke:#000000;stroke-linecap:square;stroke-linejoin:miter;stroke-width:0.8;"/>
   </g>
   <g id="patch_6">
    <path d="M 57.6 46.842851 
L 414.72 46.842851 
" style="fill:none;stroke:#000000;stroke-linecap:square;stroke-linejoin:miter;stroke-width:0.8;"/>
   </g>
  </g>
 </g>
 <defs>
  <clipPath id="p30d949fcaa">
   <rect height="255.370298" width="357.12" x="57.6" y="46.842851"/>
  </clipPath>
 </defs>
</svg>
